<?xml version="1.0" encoding="UTF-8"?>
<svg id="Layer_2" xmlns="http://www.w3.org/2000/svg" viewBox="0 0 800.95 451.57">
  <defs>
    <style>
      .cls-1 {
        fill: #fcd168;
      }

      .cls-2 {
        fill: #fbc355;
      }

      .cls-3 {
        fill: #fecc87;
      }

      .cls-4 {
        fill: #f89a48;
      }

      .cls-5 {
        fill: #eeb877;
      }

      .cls-6 {
        fill: #d13331;
      }

      .cls-7 {
        fill: #fde1ca;
      }
    </style>
  </defs>
  <g id="Layer_1-2" data-name="Layer_1">
    <g>
      <g>
        <path class="cls-1" d="M659.27,70.96c-13.08,5.29-21.87,15.05-26.63,27.92-2.59,7-3.54,14.77-4.17,22.28-1.01,12-9.43,24-20.1,27.15-1.14-1.35-2.3-2.68-3.41-4.05-3.19-3.94-7.05-7.52-9.4-11.91-4.5-8.41-3.43-17.54-2.5-26.77,2.7-26.71,13.86-49.47,32-68.7,15.58-16.52,34.66-27.7,56.95-33.09,2.86-.69,5.48-2.39,8.21-3.61,35.78,3.12,64.81,18.81,86.64,47.27,19.01,24.79,27.08,53.32,23.07,84.01-6.16,47.25-31.95,80.39-76.48,98.36-6.15,2.48-8.82,5.7-9.02,12.28-.14,4.66.1,9.33-.1,13.99-.56,13.24-7.06,22.5-19.07,27.98-.76-.87-1.37-1.94-2.3-2.57-7.65-5.2-13.05-12.13-14.07-21.38-1.49-13.55-1.71-27.22,2.36-40.44,7.63-24.79,23.79-41.63,48.07-50.84,23.17-8.78,38.2-32.86,34.8-56.84-3.27-23.03-19.92-41.89-44.07-46.02-7.06-1.21-14.04-2.01-20.84,1.13-1.8-.25-3.62-.39-5.4-.77-12.07-2.54-23.7-1.86-34.57,4.6Z"/>
        <path class="cls-4" d="M659.27,70.96c10.87-6.46,22.5-7.14,34.57-4.6,1.78.37,3.6.52,5.4.76,1.34.92,2.58,2.08,4.04,2.72,9.84,4.3,17.55,10.85,23.54,19.89,19.17,28.94,4.97,67.41-26.29,79.01-12.61,4.68-23.34,11.79-32.25,21.77-8.34,9.35-14.51,20.13-16.72,32.31-1.93,10.67-2.25,21.76-2.11,32.65.1,7.98,2.38,15.94,9.12,21.32,4.62,3.68,9.74,6.75,14.63,10.09-13.83.04-27.67.45-41.48,0-15.65-.51-29.11-14.24-29.54-29.84-.41-14.95-1.13-29.96,4.93-44.3,8.77-20.74,23.34-35.37,44.42-43.36,34.39-13.03,47.47-53.13,26.09-81.84-4.83-6.49-12.17-11.1-18.36-16.58Z"/>
        <path class="cls-4" d="M588.2,150.97c-14.33.04-28.67.48-42.98,0-16.71-.56-30.39-16.19-29.55-34.18,2.25-48.07,25.06-83.27,67.91-105.13C599.85,3.37,617.45-.15,635.73,0c9.49.08,18.99.23,28.48.35-.73.53-1.38,1.31-2.19,1.57-10.38,3.3-21.15,5.69-31.11,9.97-16.58,7.11-30.29,18.47-41.54,32.58-8.55,10.71-15.7,22.36-19.25,35.7-2.79,10.5-5.3,21.17-6.66,31.92-1.45,11.43.82,22.41,10.55,30.09,4.34,3.43,9.44,5.88,14.19,8.78Z"/>
        <path class="cls-2" d="M673.21,286.88c-4.89-3.34-10.01-6.41-14.63-10.09-6.74-5.38-9.02-13.33-9.12-21.32-.14-10.89.17-21.98,2.11-32.65,2.21-12.18,8.38-22.97,16.72-32.31,8.91-9.98,19.63-17.09,32.25-21.77,31.26-11.6,45.46-50.07,26.29-79.01-5.99-9.04-13.7-15.59-23.54-19.89-1.46-.64-2.7-1.8-4.04-2.72,6.8-3.13,13.77-2.34,20.84-1.13,24.15,4.13,40.81,22.99,44.07,46.02,3.4,23.98-11.63,48.06-34.8,56.84-24.28,9.2-40.45,26.05-48.07,50.84-4.07,13.22-3.85,26.89-2.36,40.44,1.02,9.25,6.41,16.18,14.07,21.38.92.63,1.54,1.7,2.3,2.57-6.97,4.03-14.57,3.04-22.08,2.8Z"/>
        <path class="cls-2" d="M588.2,150.97c-4.75-2.9-9.86-5.35-14.19-8.78-9.73-7.69-12-18.66-10.55-30.09,1.37-10.75,3.87-21.43,6.66-31.92,3.55-13.34,10.71-24.99,19.25-35.7,11.25-14.1,24.96-25.46,41.54-32.58,9.96-4.27,20.73-6.66,31.11-9.97.81-.26,1.46-1.03,2.19-1.57,8.67-.06,17.35-.11,26.02-.17-2.73,1.23-5.35,2.92-8.21,3.61-22.29,5.39-41.37,16.57-56.95,33.09-18.14,19.23-29.3,41.99-32,68.7-.93,9.23-2,18.36,2.5,26.77,2.35,4.39,6.2,7.98,9.4,11.91,1.11,1.37,2.27,2.7,3.41,4.05-6.31,4.02-13.31,2.89-20.18,2.65Z"/>
        <path class="cls-4" d="M676.12,383.81c-16.27-.22-32.69.79-48.79-1-16.58-1.84-26.51-17.52-25.13-35.77,1.12-14.73,14.79-27.72,30.17-28.06,13.97-.31,27.96-.01,41.93.02-.39.3-.74.76-1.18.87-19.23,4.69-29.59,27.32-20.35,46.17,4.78,9.74,13.01,15.17,23.33,17.76Z"/>
        <path class="cls-2" d="M676.12,383.81c-10.31-2.59-18.55-8.02-23.33-17.76-9.24-18.85,1.12-41.48,20.35-46.17.44-.11.79-.57,1.18-.87,6.65.7,13.3,1.39,19.95,2.09-.78,1.2-1.29,2.77-2.38,3.53-16.62,11.73-18.48,37.39-3.1,50.49,2.24,1.91,4.34,3.99,6.51,5.99-6.04,3.37-12.58,3.25-19.18,2.7Z"/>
        <path class="cls-1" d="M695.3,381.11c-2.17-2-4.26-4.08-6.51-5.99-15.39-13.1-13.52-38.75,3.1-50.49,1.08-.77,1.6-2.34,2.38-3.53,12.03,5.24,19.1,14.22,20.04,27.43,1.07,15.07-5.21,26.07-19.01,32.58Z"/>
      </g>
      <g>
        <g>
          <path class="cls-3" d="M387.33,48.08c18.28,49.25,36.61,98.49,54.83,147.76,12.17,32.92,24.19,65.89,36.32,98.82,2.87,7.79,6.97,15.3,8.63,23.33,4.87,23.45-1.2,44.16-18.03,61.44-8.13,8.35-16.41,16.55-24.66,24.77-1.16,1.16-2.54,2.09-3.82,3.13-.32-7.2-.76-14.4-6.36-19.86-7.33-7.14-14.64-14.3-22.19-21.2-6.86-6.27-17.7-6.44-24.34.14-8.52,8.44-16.48,17.44-24.53,26.35-9.84,10.88-11.95,24.22-10.52,38.06.45,4.33,3.61,8.78,6.51,12.38,5.46,6.76,13.71,6.56,21.5,7.12-23.83,4.37-44.14-2.74-60.29-20.25-16.54-17.92-20.86-39.39-15.01-62.98,3.86-12.26,10.57-22.6,19.87-31.55,9.95-9.57,19.11-19.96,28.94-29.65,8.4-8.27,17.17-16.18,25.98-24.02,3.78-3.37,7.72-6.94,12.24-8.97,3.55-1.59,4.05-3.35,4.04-6.61-.1-26.67-.07-53.33-.04-80,0-1.99.37-3.97.37-5.95.04-10.31.02-20.62.02-29.19-3.92,16.56-11.3,32.83-26.32,44.98-15.16,12.26-32.55,17.24-51.88,16.9v7.08q-1.9-7.96-5.72-7.02c3.5,6,3.23,9.11-1.14,13.09-3.13,2.85-9.16,3.09-12.93.52-4.6-3.14-4.91-9.47-.94-18.88-25.26-11.84-43.1-29.65-47.24-58.62-.24,6.17.12,12.34-.33,18.45-.71,9.6,1.72,18.78,4.59,27.53,4.94,15.02,16.34,25.78,27.48,36.44.4.39,1.25.41,1.89.43,5.12.17,10.96-1.4,13.11,5.67.06.18.59.27.92.32,3.31.45,3.1,2.93,3.09,5.3,0,4.12,0,8.25,0,12.37.36,0,.73-.02,1.09-.03v-14.93h5.4c.32-1.56.62-2.98.87-4.21.66,1.79,1.02,4.83,2,5.04,2.22.48,4.73-.43,7.33-.81-.36,4.45,2.62,2.43,5.13.98.17,2.38.3,4.26.44,6.14.14,0,.28,0,.43,0,.26-1.43.51-2.85.72-3.99,2.32-.86,4.23-1.79,6.26-2.28,3.95-.95,7.97-1.6,11.94-2.46,2.81-.61,5.57-1.56,8.4-1.95,2.19-.31,5.06-.81,6.56.27,1.86,1.33,2.48,4.29,3.92,6.35.54.77,1.88.97,3.29,1.63,2.31,5.16,1.11,12.46,6.53,17.83,2.13,2.11,3.59,5.42,4.16,8.41.47,2.5.13,6.38-1.48,7.79-3.85,3.39-8.59,5.79-13.09,8.39-8.94,5.16-18.03,10.05-26.92,15.29-10.73,6.32-22.18,10.09-34.63,10.92-11.69.77-22.77-2.06-33.38-6.34-9.57-3.85-18.62-9.5-24.73-17.76-9.96-13.47-18.66-27.88-28.11-42.21-.58,2.55-1.12,4.87-1.71,7.44-1.56-5.1,1.75-10.86-3.11-15.06-2.66,9.63-1.44,18.63,2.84,27.38,4.42,9.04,8.48,18.25,12.92,27.28,7.01,14.27,14.25,28.43,21.22,42.72.58,1.18.43,3.82-.37,4.38-5.2,3.67-10.34,7.73-16.13,10.14-6.31,2.62-13.32,3.55-20.01,5.27-9.08,2.33-17.85,0-26.28-2.63-19.13-5.97-31.34-20.06-41.13-36.75-5.98-10.2-12.07-20.36-18.5-30.29-4.31-6.65-9.35-12.81-13.94-19.28-1.21-1.71-2.66-3.75-2.7-5.66-.04-1.73,1.71-3.5,2.91-5.69-10.9,2.7-10.21-7.24-14-12.6-.12,2.06-.25,4.25-.38,6.43-.56-8.5-5.05-14.74-10.82-20.3-.4.19-.8.38-1.21.58,22.72,48.06,45.43,96.12,68.3,144.5-8.2,4.43-17.46,8.58-27.94,8.38-16.74-.31-31.73-5.76-43.34-17.95-7.85-8.24-14.51-17.64-21.52-26.66-5.68-7.3-10.95-14.92-16.67-22.19-6.03-7.67-12.22-15.23-18.64-22.58-4.42-5.06-9.33-9.69-14.02-14.51-22.52-32-3.43-89.35,49.58-90.59,3.09-9.13,5.13-18.5,9.3-26.8,10.48-20.87,28.04-32.26,51.25-34.64,5.06-.52,10.24-.16,15.35.06,3.01.13,4.37-.51,4.66-3.97,2.65-31.86,30.06-59.99,61.52-64.27,16.65-2.27,32.01.72,46.73,8.29,1.17.6,2.38,1.12,3.3,1.55,3.91-8.19,6.92-16.72,11.7-24.1,12.35-19.08,30.17-29.95,52.89-32.58,22.91-2.65,42.58,4.36,59.2,20.06,3.83,3.62,7.01,7.93,10.49,11.92.36.35.72.7,1.08,1.05,0,0-.02-.03-.02-.03.34.68.68,1.35,1.03,2.03,0,0-.03-.02-.03-.02ZM366.98,142.31c0-.08.02-.17.03-.25,2.17,0,4.33.07,6.5-.01,4.03-.15,6.72-1.57,7.55-6.16,1.25-6.94-1.56-14.06-8.62-18.74-9.58-6.35-20.32-9.12-31.68-10.63-19.76-2.61-39.01-1.44-57.49,6.26-7.05,2.94-14.31,6.77-16.11,15.11-2.28,10.52-1.42,14.35,9.66,14.06,6.21-.16,12.39-1.19,18.59-1.83,6.09-.63,12.17-1.66,18.28-1.8,8.46-.2,16.96-.13,25.39.53,9.34.73,18.61,2.27,27.91,3.45ZM206.55,256.04c0-5.54.11-10.18-.04-14.81-.07-2.3,0-4.95-1.06-6.82-3.76-6.59-8.12-12.83-12-19.35-7.52-12.61-14.86-25.33-22.34-37.96-.29-.48-1.23-.57-1.92-.87-.21.7-.47,1.08-.38,1.29,5.6,12.33,11.21,24.66,16.87,36.97.34.73,1.21,1.22,1.52,1.95,4.11,9.69,8.24,19.38,12.19,29.14,1.49,3.68,1.82,8,7.17,10.46ZM304.08,210.49c-1.17.33-2.8.29-3.53,1.07-2.76,2.97-3.46,6.99-1.13,9.99,1.76,2.25,5.34,3.95,8.21,4.1,1.47.08,4.24-3.67,4.41-5.84.13-1.72-2.46-4.52-4.46-5.34-3.47-1.43-3.74,1.94-4.42,4.28-.09.32-.68.5-1.03.75-.35-.16-.71-.32-1.06-.48.91-2.56,1.81-5.12,3.03-8.54ZM324.27,256.71c-.11-.26-.22-.53-.33-.8-.12.1-.32.19-.33.29-.02.29.05.58.08.87.19-.12.38-.23.58-.36Z"/>
          <path class="cls-5" d="M9.3,280.12c4.69,4.82,9.6,9.45,14.02,14.51,6.41,7.35,12.61,14.91,18.64,22.58,5.72,7.27,10.99,14.89,16.67,22.19,7.02,9.02,13.67,18.42,21.52,26.66,11.61,12.19,26.59,17.64,43.34,17.95,10.49.2,19.74-3.95,27.94-8.38-22.87-48.38-45.58-96.44-68.3-144.5.4-.19.8-.38,1.21-.58,5.77,5.56,10.26,11.8,10.82,20.3.13-2.19.26-4.37.38-6.43,3.78,5.36,3.1,15.29,14,12.6-1.2,2.19-2.94,3.96-2.91,5.69.04,1.91,1.49,3.95,2.7,5.66,4.59,6.47,9.63,12.63,13.94,19.28,6.43,9.93,12.51,20.08,18.5,30.29,9.79,16.69,22,30.78,41.13,36.75,8.44,2.63,17.2,4.96,26.28,2.63,6.69-1.72,13.7-2.65,20.01-5.27,5.79-2.41,10.93-6.47,16.13-10.14.8-.56.95-3.2.37-4.38-6.97-14.29-14.21-28.45-21.22-42.72-4.44-9.03-8.5-18.24-12.92-27.28-4.28-8.75-5.5-17.75-2.84-27.38,4.85,4.2,1.55,9.96,3.11,15.06.59-2.57,1.12-4.89,1.71-7.44,9.45,14.34,18.15,28.74,28.11,42.21,6.11,8.27,15.16,13.91,24.73,17.76,10.61,4.27,21.69,7.11,33.38,6.34,12.44-.82,23.9-4.6,34.63-10.92,8.89-5.24,17.98-10.13,26.92-15.29,4.5-2.6,9.24-5.01,13.09-8.39,1.61-1.42,1.95-5.3,1.48-7.79-.57-2.99-2.03-6.3-4.16-8.41-5.42-5.37-4.23-12.67-6.53-17.83-1.41-.66-2.75-.86-3.29-1.63-1.44-2.06-2.06-5.02-3.92-6.35-1.5-1.07-4.37-.57-6.56-.27-2.84.39-5.59,1.35-8.4,1.95-3.97.86-7.99,1.51-11.94,2.46-2.02.49-3.94,1.42-6.26,2.28-.2,1.13-.46,2.56-.72,3.99-.14,0-.28,0-.43,0-.13-1.88-.27-3.76-.44-6.14-2.51,1.44-5.49,3.46-5.13-.98-2.6.38-5.12,1.29-7.33.81-.98-.21-1.34-3.25-2-5.04-.26,1.23-.55,2.65-.87,4.21h-5.4v14.93c-.36,0-.73.02-1.09.03,0-4.12,0-8.25,0-12.37,0-2.37.21-4.85-3.09-5.3-.32-.04-.86-.13-.92-.32-2.15-7.07-8-5.51-13.11-5.67-.64-.02-1.49-.04-1.89-.43-11.15-10.66-22.54-21.42-27.48-36.44-2.88-8.75-5.31-17.92-4.59-27.53.45-6.11.08-12.27.33-18.45,4.15,28.97,21.99,46.78,47.24,58.62-3.97,9.42-3.66,15.74.94,18.88,3.77,2.58,9.79,2.33,12.93-.52,4.37-3.98,4.64-7.09,1.14-13.09q3.82-.94,5.72,7.02v-7.08c19.33.34,36.72-4.64,51.88-16.9,15.02-12.15,22.4-28.42,26.32-44.98,0,8.57.02,18.88-.02,29.19,0,1.99-.37,3.97-.37,5.95-.02,26.67-.05,53.33.04,80,.01,3.26-.49,5.02-4.04,6.61-4.52,2.03-8.46,5.6-12.24,8.97-8.81,7.84-17.58,15.75-25.98,24.02-9.84,9.69-19,20.07-28.94,29.65-9.3,8.95-16.01,19.3-19.87,31.55-14.31-.89-27.94-4.13-40.69-12.28-7.3,17.79-18.88,31.06-36.56,38.44-17.75,7.41-35.31,6.32-53.18-1.02-1.98,2.91-3.86,5.99-6.06,8.82-17.27,22.25-45.21,29.39-71.09,18.26-1.22-.52-2.48-.92-3.73-1.38,0,0-.15.12-.15.12-.52-.38-1.03-.75-1.55-1.13-15.04-8.9-22.83-23.43-30.44-38.35-8.45-16.58-17.8-32.69-26.59-49.1-8.79-16.4-17.36-32.91-26.03-49.37Z"/>
          <path class="cls-6" d="M387.36,48.1c-.34-.68-.68-1.35-1.03-2.03.34.68.68,1.35,1.03,2.03Z"/>
          <path class="cls-6" d="M386.35,46.11c-.36-.35-.72-.7-1.08-1.05.36.35.72.7,1.08,1.05Z"/>
          <path class="cls-6" d="M92.36,416.93c.52.38,1.03.75,1.55,1.13-.52-.38-1.03-.75-1.55-1.13Z"/>
          <path class="cls-7" d="M380.68,450.32c-7.79-.56-16.04-.36-21.5-7.12-2.91-3.6-6.06-8.04-6.51-12.38-1.44-13.83.68-27.18,10.52-38.06,8.05-8.9,16.01-17.91,24.53-26.35,6.64-6.58,17.47-6.41,24.34-.14,7.55,6.9,14.87,14.06,22.19,21.2,5.6,5.46,6.03,12.66,6.36,19.86-10.94,13.66-22.49,26.83-38.08,35.25-6.71,3.63-14.53,5.21-21.84,7.72Z"/>
          <path class="cls-7" d="M366.98,142.31c-9.3-1.18-18.57-2.72-27.91-3.45-8.43-.66-16.93-.73-25.39-.53-6.1.15-12.18,1.17-18.28,1.8-6.19.64-12.38,1.67-18.59,1.83-11.09.29-11.94-3.54-9.66-14.06,1.8-8.34,9.06-12.17,16.11-15.11,18.48-7.7,37.73-8.88,57.49-6.26,11.36,1.5,22.1,4.28,31.68,10.63,7.06,4.68,9.87,11.8,8.62,18.74-.83,4.59-3.52,6.01-7.55,6.16-2.16.08-4.33.01-6.5.01,0,.08-.02.17-.03.25Z"/>
          <path class="cls-5" d="M206.55,256.04c-5.35-2.46-5.68-6.78-7.17-10.46-3.95-9.76-8.08-19.45-12.19-29.14-.31-.73-1.18-1.22-1.52-1.95-5.66-12.31-11.27-24.63-16.87-36.97-.1-.22.16-.59.38-1.29.69.3,1.63.39,1.92.87,7.48,12.63,14.82,25.35,22.34,37.96,3.89,6.52,8.25,12.76,12,19.35,1.07,1.87.99,4.52,1.06,6.82.15,4.63.04,9.27.04,14.81Z"/>
          <path class="cls-5" d="M304.08,210.49c-1.21,3.42-2.12,5.98-3.03,8.54.35.16.71.32,1.06.48.36-.25.94-.43,1.03-.75.68-2.34.95-5.71,4.42-4.28,2,.82,4.59,3.62,4.46,5.34-.17,2.17-2.93,5.92-4.41,5.84-2.87-.16-6.45-1.85-8.21-4.1-2.33-2.99-1.63-7.02,1.13-9.99.73-.79,2.36-.75,3.53-1.07ZM304.28,221.76c.26.49.53.98.79,1.48,1.54-1.04,3.08-2.08,4.62-3.12-.25-.37-.5-.75-.75-1.12-1.55.92-3.1,1.84-4.65,2.77Z"/>
          <path class="cls-5" d="M324.27,256.71c-.2.13-.39.24-.58.36-.03-.29-.1-.58-.08-.87,0-.1.21-.19.33-.29.11.27.22.53.33.8Z"/>
          <path class="cls-3" d="M304.28,221.76c1.55-.92,3.1-1.84,4.65-2.77.25.37.5.75.75,1.12-1.54,1.04-3.08,2.08-4.62,3.12-.26-.49-.53-.98-.79-1.48Z"/>
        </g>
        <path class="cls-5" d="M280.68,228.11c9.14,8.93,23.45,9.14,36.22,8.59,1.11-.05,2.25-.11,3.25-.58,1.86-.88,2.8-3.01,3.09-5.04,1.32-9.3-7.92-16.93-17.01-19.31-4.86-1.27-30.36-8.76-33.61-7.51-9.09,3.47,2.34,18.27,8.06,23.85Z"/>
      </g>
    </g>
  </g>
</svg>