<svg width="289" height="74" viewBox="0 0 289 74" fill="none" xmlns="http://www.w3.org/2000/svg">
<path d="M31 61.8717C48.1208 61.8717 62 48.0212 62 30.9358C62 13.8504 48.1208 0 31 0C13.8792 0 0 13.8504 0 30.9358C0 48.0212 13.8792 61.8717 31 61.8717Z" fill="url(#paint0_radial_2_148)"/>
<path d="M61.9969 31.2975C57.3573 30.7102 51.104 35.603 47.3223 39.4108C42.63 44.1367 27.7479 47.8024 23.7401 36.1964C19.7323 24.5904 29.2748 21.784 29.2748 21.784C28.4262 24.2103 28.9775 27.1125 30.777 28.9546C32.5765 30.7968 35.5777 31.4026 37.8882 30.2713C39.2355 29.6099 40.2885 28.4416 41.0071 27.1249C43.3455 22.8256 41.7938 16.8418 37.6559 14.2177C33.9485 11.8656 29.0983 12.2581 24.9233 13.6273C22.2287 14.5113 19.6115 15.7909 17.5612 17.7505C16.855 18.4243 16.2232 19.1753 15.6409 19.9573C10.5398 26.8405 9.81506 36.8331 14.3246 44.115C16.3378 47.3666 19.2399 49.9968 22.3928 52.1666C28.3798 56.2866 35.4228 58.8365 42.6517 59.6154C53.8915 55.0627 61.8482 44.1181 61.9938 31.3036L61.9969 31.2975Z" fill="url(#paint1_linear_2_148)"/>
<path d="M61.9969 31.2975C57.3573 30.7102 51.104 35.603 47.3223 39.4108C42.63 44.1367 27.7479 47.8024 23.7401 36.1964C19.7323 24.5904 29.2748 21.784 29.2748 21.784C28.4262 24.2103 28.9775 27.1125 30.777 28.9546C32.5765 30.7968 35.5777 31.4026 37.8882 30.2713C39.2355 29.6099 40.2885 28.4416 41.0071 27.1249C43.3455 22.8256 41.7938 16.8418 37.6559 14.2177C33.9485 11.8656 29.0983 12.2581 24.9233 13.6273C22.2287 14.5113 19.6115 15.7909 17.5612 17.7505C16.855 18.4243 16.2232 19.1753 15.6409 19.9573C10.5398 26.8405 9.81506 36.8331 14.3246 44.115C16.3378 47.3666 19.2399 49.9968 22.3928 52.1666C28.3798 56.2866 35.4228 58.8365 42.6517 59.6154C53.8915 55.0627 61.8482 44.1181 61.9938 31.3036L61.9969 31.2975Z" fill="url(#paint2_linear_2_148)"/>
<path d="M43.9587 30.5093C25.9887 47.1966 22.8977 30.5093 22.8977 30.5093C22.8977 30.5093 22.6592 50.5563 42.5588 43.0951C53.8698 38.8545 57.8931 35.0652 61.7925 34.5057C61.9288 33.3343 62 32.1443 62 30.9358C62 28.2283 61.65 25.6011 60.9934 23.0945C55.9109 23.0296 50.0509 24.847 43.9556 30.5062L43.9587 30.5093Z" fill="url(#paint3_linear_2_148)"/>
<path d="M60.5815 39.8312C60.5815 39.8312 60.5877 39.8095 60.5908 39.8003C60.6992 39.451 60.8045 39.0986 60.9005 38.7432C60.9005 38.737 60.9005 38.7339 60.9036 38.7277C61.5881 36.2304 61.969 33.6063 62 30.8987C57.3604 30.3115 51.1071 35.2042 47.3254 39.0121C42.6331 43.7379 27.751 47.4036 23.7432 35.7977C19.7355 24.1917 29.278 21.3853 29.278 21.3853C29.2346 21.5058 29.2005 21.6294 29.1634 21.7531C30.7429 20.5693 32.496 19.9048 32.496 19.9048C32.496 19.9048 20.6491 19.401 19.5775 33.529C19.0634 40.2979 22.7986 45.6171 27.7789 49.357C30.9814 51.7617 39.6939 55.2821 48.6479 55.9744C54.2384 52.1047 58.4909 46.4486 60.5753 39.8343L60.5815 39.8312Z" fill="url(#paint4_linear_2_148)"/>
<path d="M47.3254 39.009C42.6331 43.7349 27.751 47.4005 23.7432 35.7946C23.7432 35.7946 25.3847 54.3796 58.5559 44.7239C59.3643 43.1662 60.0457 41.5311 60.5815 39.8312C60.5846 39.8219 60.5877 39.8095 60.5908 39.8003C60.6992 39.451 60.8045 39.0987 60.9005 38.7432C60.9005 38.737 60.9005 38.7339 60.9036 38.7278C61.5881 36.2304 61.969 33.6063 62 30.8988C57.3604 30.3115 51.1071 35.2042 47.3254 39.0121V39.009Z" fill="url(#paint5_linear_2_148)"/>
<g clip-path="url(#clip0_2_148)">
<path d="M87 49.1951H93.4926V36.0731H110.371V30.8021H93.4926V20.4122H112.521V15.0476H87V49.1951Z" fill="#0E333B"/>
<path d="M123.955 13H117.762V49.1951H123.955V13Z" fill="#0E333B"/>
<path d="M151.219 36.313C151.219 38.0388 150.919 39.4838 150.32 40.6538C149.721 41.8239 148.871 42.7014 147.775 43.2864C146.679 43.8714 145.391 44.1639 143.93 44.1639C141.965 44.1639 140.432 43.5848 139.336 42.4323C138.24 41.2798 137.689 39.5481 137.689 37.2373V23.1384H131.394V38.0154C131.394 40.6187 131.885 42.7716 132.867 44.4798C133.849 46.1881 135.203 47.4576 136.94 48.2825C138.671 49.1132 140.665 49.5285 142.935 49.5285C145.002 49.5285 146.894 49.0722 148.631 48.1655C149.781 47.5629 150.746 46.7848 151.53 45.8488V49.1892H157.472V23.1442H151.231V36.313H151.219Z" fill="#0E333B"/>
<path d="M183.682 24.4898C181.651 23.3665 179.339 22.8049 176.74 22.8049C174.14 22.8049 171.703 23.3841 169.624 24.5366C167.546 25.689 165.911 27.2686 164.731 29.2694C163.551 31.2701 162.958 33.5692 162.958 36.1726C162.958 38.7759 163.563 41.075 164.779 43.0758C165.995 45.0766 167.708 46.6561 169.924 47.8086C172.14 48.9611 174.727 49.5402 177.692 49.5402C180.022 49.5402 182.094 49.1834 183.909 48.4697C185.724 47.7559 187.245 46.7146 188.479 45.3457L185.083 41.543C184.149 42.4849 183.089 43.1986 181.885 43.6901C180.687 44.1756 179.339 44.4213 177.842 44.4213C176.075 44.4213 174.53 44.0879 173.2 43.4209C171.87 42.754 170.846 41.818 170.127 40.6187C169.678 39.864 169.385 39.0275 169.217 38.1324H190.126C190.156 37.875 190.186 37.5708 190.198 37.2315C190.216 36.8921 190.222 36.6055 190.222 36.3773C190.222 33.616 189.641 31.2233 188.473 29.205C187.305 27.1867 185.712 25.6188 183.682 24.4956V24.4898ZM169.996 31.4398C170.631 30.2697 171.535 29.3688 172.715 28.7311C173.895 28.0993 175.236 27.7776 176.734 27.7776C178.231 27.7776 179.597 28.0935 180.729 28.7311C181.861 29.363 182.753 30.258 183.4 31.4164C183.855 32.2237 184.131 33.1129 184.251 34.0724H169.151C169.289 33.1129 169.558 32.2295 169.99 31.4398H169.996Z" fill="#0E333B"/>
<path d="M216.564 24.0217C214.917 23.2086 213.012 22.8049 210.844 22.8049C208.514 22.8049 206.459 23.2612 204.675 24.168C203.489 24.7764 202.5 25.5545 201.704 26.4964V23.1442H195.762V49.1892H201.955V36.0205C201.955 34.2654 202.261 32.8087 202.878 31.6562C203.495 30.5037 204.369 29.6321 205.501 29.047C206.633 28.462 207.933 28.1695 209.394 28.1695C211.425 28.1695 212.988 28.737 214.09 29.8778C215.186 31.0186 215.737 32.7385 215.737 35.0493V49.1951H221.978V34.2713C221.978 31.6387 221.487 29.4741 220.505 27.7834C219.522 26.0927 218.205 24.8408 216.558 24.0276L216.564 24.0217Z" fill="#0E333B"/>
<path d="M240.264 44.5091C239.066 44.5091 238.132 44.1698 237.467 43.4853C236.802 42.8008 236.467 41.8414 236.467 40.607V28.2163H243.66V23.3373H236.467V17.3876H230.274V23.3373H225.877V28.2163H230.274V40.8001C230.274 43.6608 231.07 45.8312 232.669 47.3113C234.268 48.7914 236.532 49.5285 239.461 49.5285C240.557 49.5285 241.641 49.3823 242.708 49.0898C243.774 48.7973 244.69 48.3585 245.457 47.7735L243.66 43.4327C242.761 44.1464 241.629 44.5032 240.264 44.5032V44.5091Z" fill="#0E333B"/>
<path d="M256.346 13H250.152V49.1951H256.346V13Z" fill="#0E333B"/>
<path d="M283.011 23.1442L274.583 42.4674L266.126 23.1442H259.682L271.325 49.2478L270.864 50.2657C270.265 51.5995 269.618 52.5414 268.917 53.0972C268.217 53.6471 267.3 53.9279 266.168 53.9279C265.3 53.9279 264.479 53.7641 263.695 53.4423C262.91 53.1147 262.203 52.6935 261.574 52.1728L259.125 56.6131C259.957 57.362 261.023 57.947 262.323 58.3682C263.623 58.7894 264.934 59 266.27 59C267.737 59 269.091 58.766 270.343 58.2921C271.589 57.8183 272.721 57.0226 273.739 55.8994C274.751 54.7762 275.679 53.2551 276.512 51.3363L288.994 23.1442H282.999H283.011Z" fill="#0E333B"/>
</g>
<defs>
<radialGradient id="paint0_radial_2_148" cx="0" cy="0" r="1" gradientUnits="userSpaceOnUse" gradientTransform="translate(31 30.9358) scale(31 30.9358)">
<stop offset="0.46" stop-color="#FFC3AA"/>
<stop offset="0.98" stop-color="#F48574"/>
</radialGradient>
<linearGradient id="paint1_linear_2_148" x1="26.6918" y1="13.7881" x2="43.8604" y2="49.9317" gradientUnits="userSpaceOnUse">
<stop stop-color="#C2FDFB"/>
<stop offset="0.19" stop-color="#27BCB8"/>
<stop offset="0.25" stop-color="#23AAA7"/>
<stop offset="0.42" stop-color="#1C7F81"/>
<stop offset="0.58" stop-color="#155E62"/>
<stop offset="0.74" stop-color="#11464C"/>
<stop offset="0.88" stop-color="#0E373F"/>
<stop offset="1" stop-color="#0E333B"/>
</linearGradient>
<linearGradient id="paint2_linear_2_148" x1="26.6918" y1="13.7881" x2="43.8604" y2="49.9317" gradientUnits="userSpaceOnUse">
<stop stop-color="#C2FDFB"/>
<stop offset="0.19" stop-color="#27BCB8"/>
<stop offset="0.25" stop-color="#23AAA7"/>
<stop offset="0.42" stop-color="#1C7F81"/>
<stop offset="0.58" stop-color="#155E62"/>
<stop offset="0.74" stop-color="#11464C"/>
<stop offset="0.88" stop-color="#0E373F"/>
<stop offset="1" stop-color="#0E333B"/>
</linearGradient>
<linearGradient id="paint3_linear_2_148" x1="22.8977" y1="33.9277" x2="62" y2="33.9277" gradientUnits="userSpaceOnUse">
<stop stop-color="#C2FDFB"/>
<stop offset="0.19" stop-color="#27BCB8"/>
<stop offset="0.25" stop-color="#23AAA7"/>
<stop offset="0.42" stop-color="#1C7F81"/>
<stop offset="0.58" stop-color="#155E62"/>
<stop offset="0.74" stop-color="#11464C"/>
<stop offset="0.88" stop-color="#0E373F"/>
<stop offset="1" stop-color="#0E333B"/>
</linearGradient>
<linearGradient id="paint4_linear_2_148" x1="19.531" y1="37.9365" x2="62" y2="37.9365" gradientUnits="userSpaceOnUse">
<stop stop-color="#0E333B"/>
<stop offset="0.06" stop-color="#14585D"/>
<stop offset="0.17" stop-color="#219F9E"/>
<stop offset="0.23" stop-color="#27BCB8"/>
<stop offset="0.25" stop-color="#43BCB6"/>
<stop offset="0.29" stop-color="#74BEB2"/>
<stop offset="0.34" stop-color="#9FBFB0"/>
<stop offset="0.39" stop-color="#C1C1AD"/>
<stop offset="0.43" stop-color="#DCC1AC"/>
<stop offset="0.48" stop-color="#EFC2AA"/>
<stop offset="0.53" stop-color="#FBC2AA"/>
<stop offset="0.58" stop-color="#FFC3AA"/>
<stop offset="0.8" stop-color="#F48574"/>
</linearGradient>
<linearGradient id="paint5_linear_2_148" x1="23.7432" y1="39.1759" x2="62" y2="39.1759" gradientUnits="userSpaceOnUse">
<stop stop-color="#0E333B"/>
<stop offset="0.12" stop-color="#0E373F"/>
<stop offset="0.26" stop-color="#11464C"/>
<stop offset="0.42" stop-color="#155E62"/>
<stop offset="0.58" stop-color="#1C7F81"/>
<stop offset="0.75" stop-color="#23AAA7"/>
<stop offset="0.81" stop-color="#27BCB8"/>
<stop offset="1" stop-color="#C2FDFB"/>
</linearGradient>
<clipPath id="clip0_2_148">
<rect width="202" height="46" fill="white" transform="translate(87 13)"/>
</clipPath>
</defs>
</svg>
