<?xml version="1.0" encoding="UTF-8"?>
<svg id="Layer_2" xmlns="http://www.w3.org/2000/svg" viewBox="0 0 565.75 539.07">
  <defs>
    <style>
      .cls-1 {
        fill: #0d5fde;
      }

      .cls-2 {
        fill: #f8ddc6;
      }

      .cls-3 {
        fill: #f1aa73;
      }

      .cls-4 {
        fill: #1a68e0;
      }

      .cls-5 {
        fill: #f7d7be;
      }

      .cls-6 {
        fill: #116ef8;
      }

      .cls-7 {
        fill: #fbbd8b;
      }
    </style>
  </defs>
  <g id="Layer_1-2" data-name="Layer_1">
    <g>
      <path class="cls-7" d="M551.68,338.96c-1.66,4.34-3.32,8.69-4.99,13.03-2.22-.36-4.44-1.03-6.67-1.03-127.64-.07-255.28-.08-382.93-.09-.23-.01-.46.02-.69.1.05-40.05.1-80.1.17-120.16,0-2.15.21-4.3.33-6.44,3.96-3.78,8.13-7.35,11.83-11.36,12.18-13.21,24.23-26.53,36.26-39.88,11.69-12.98,23.46-25.89,34.88-39.1,11.92-13.79,23.54-27.84,35.06-41.96,1.6-1.97,2.63-5.01,2.65-7.56.22-19.66.07-39.33.14-58.99.04-13.05,7.54-23.71,18.96-25.14,6.96-.87,14.27,0,21.31.95,19.68,2.67,36.62,11.52,51.05,24.89,8.67,8.02,15.35,17.6,20.65,28.36,5.24,10.64,7.94,21.68,9,33.31.27,1.02.53,2.04.8,3.05.33,11.3.94,22.61.82,33.91-.04,3.62-2.02,7.22-3.08,10.84-3.89,13.35-7.81,26.7-11.63,40.08-1.16,4.07-2.03,8.22-3.22,13.08,2.72,0,4.68,0,6.63,0,39.16,0,78.33.09,117.49-.04,19.04-.06,35,6.08,47.25,21.2,9.94,12.27,13.19,26.43,11.6,41.56-1.66,15.83-9.03,28.96-21.56,38.02,2.7,6.98,5.29,13.65,7.88,20.32.36.68.72,1.35,1.07,2.02.06.62.13,1.23.19,1.85.28,1.72.57,3.43.85,5.14,0,4.01,0,8.02,0,12.03-.28,1.05-.55,2.1-.83,3.16-.08.95-.16,1.89-.24,2.84-.35.68-.69,1.35-1.04,2.03Z"/>
      <path class="cls-3" d="M157.1,350.87c127.64.02,255.28.03,382.93.09,2.22,0,4.44.67,6.67,1.03-4.3,5.16-8.34,10.57-13.01,15.37-2.23,2.3-1.9,4.18-.62,6.11,10.2,15.39,11.13,31.91,5.5,48.89-3.09,9.31-8.3,17.61-16.24,23.76-2.39,1.85-2.93,3.29-1.26,6.16,6.16,10.62,9.67,21.93,8.64,34.49-1.28,15.67-8.03,28.54-19.65,38.71-11.15,9.76-24.61,13.51-39.35,13.49-60.81-.09-121.62.4-182.42-.35-16.18-.2-32.55-3.01-48.41-6.51-13.9-3.08-27.24-8.7-40.76-13.41-14.05-4.9-28.01-10.05-42.01-15.09-.1-1.15-.28-2.31-.28-3.46-.01-48.61-.01-97.22,0-145.83,0-1.16.18-2.31.27-3.47Z"/>
      <path class="cls-1" d="M157.1,350.87c-.09,1.16-.27,2.31-.27,3.47-.01,48.61-.01,97.22,0,145.83,0,1.16.18,2.31.28,3.46,0,7.93,0,15.85,0,24.01-2.15.16-3.44.33-4.73.33-49.43.01-98.85.01-148.28,0-.83,0-1.66-.11-2.48-.18-.32-.07-.64-.14-.95-.21-.22-1.26-.64-2.52-.64-3.78-.03-56.3-.03-112.59-.01-168.89,0-1.32.24-2.63.36-3.95,52.01,0,104.02,0,156.03,0,.22-.07.45-.11.69-.1Z"/>
      <path class="cls-6" d="M156.42,350.97c-52.01,0-104.02,0-156.03,0-.13-1.65-.37-3.3-.37-4.94-.02-54.28-.02-108.55,0-162.83,0-1.63.14-3.25.24-5.48h5.2c48.45,0,96.9.06,145.35-.1,4.56-.01,5.95,1.14,5.88,5.81-.21,13.64.12,27.28.24,40.93-.11,2.15-.33,4.3-.33,6.45-.07,40.05-.12,80.1-.17,120.16Z"/>
      <path class="cls-2" d="M553.8,318.92c-.29-1.71-.57-3.43-.85-5.14.29,1.71.57,3.43.85,5.14Z"/>
      <path class="cls-5" d="M399.51,90.92c-.27-1.02-.53-2.04-.8-3.05.27,1.02.53,2.04.8,3.05Z"/>
      <path class="cls-2" d="M552.96,334.1c.28-1.05.55-2.1.83-3.16-.28,1.05-.55,2.1-.83,3.16Z"/>
      <path class="cls-2" d="M552.76,311.92c-.36-.67-.72-1.35-1.07-2.02.36.67.72,1.35,1.07,2.02Z"/>
      <path class="cls-2" d="M551.68,338.96c.35-.68.69-1.35,1.04-2.03-.35.68-.69,1.35-1.04,2.03Z"/>
      <path class="cls-4" d="M.67,527.6c.32.07.64.14.95.21-.32-.07-.64-.14-.95-.21Z"/>
    </g>
  </g>
</svg>