<?xml version="1.0" encoding="UTF-8"?>
<svg id="Layer_2" xmlns="http://www.w3.org/2000/svg" viewBox="0 0 620.47 373.49">
  <defs>
    <style>
      .cls-1 {
        fill: #c64362;
      }

      .cls-2 {
        fill: #e65b76;
      }

      .cls-3 {
        fill: #629ce9;
      }

      .cls-4 {
        fill: #eda165;
      }

      .cls-5 {
        fill: #e1a271;
      }

      .cls-6 {
        fill: #f5c298;
      }

      .cls-7 {
        fill: #ce7f4b;
      }

      .cls-8 {
        fill: #e7ebf1;
      }

      .cls-9 {
        fill: #eda164;
      }

      .cls-10 {
        fill: #eaeaee;
      }

      .cls-11 {
        fill: #3e81cf;
      }
    </style>
  </defs>
  <g id="Layer_1-2" data-name="Layer_1">
    <g>
      <path class="cls-6" d="M151.26,247.12c-7.36-.71-14.73-1.43-22.09-2.12-4.8-.45-9.6-.83-14.4-1.25.46-6.34.92-12.69,1.38-19.03,0,0-.06.04-.06.04.33-.76.67-1.51,1-2.27,1.97-15.74,3.94-31.48,5.91-47.23,2.55-20.36,5.08-40.72,7.64-61.08,2.26-17.96,4.56-35.91,6.84-53.86,9.68.74,19.37,1.3,29.02,2.3,4.99.52,7.88-.98,9.96-5.77,2.98-6.84,6.86-13.29,10.28-19.95,5.83-11.34,17.25-17.06,31.12-13.03,15.43,4.48,30.95,8.62,46.45,12.86,1.97.54,4.01.84,6.01,1.25-2.08,3.3-4.25,6.54-6.21,9.91-8.97,15.34-17.9,30.71-26.82,46.09-11.28,19.42-22.62,38.8-33.76,58.29-4.74,8.29-1.73,17.58,7,21.69,18.82,8.88,45.3,6.39,61.4-10.36,9.8-10.19,18.03-21.9,26.81-33.05,2.8-3.55,5.21-5.28,8.82-.96,1.53,1.83,3.68,3.15,5.61,4.63,12.52,9.65,26.03,16.85,42.33,17.42,1.73.06,3.75.9,5.09,2.03,11.13,9.41,22.13,18.98,33.17,28.49,14.72,12.67,29.46,25.33,44.19,38,2.47,2.25,4.83,4.62,7.43,6.71,5.76,4.64,11.63,9.13,17.45,13.68.74,1.06,1.47,2.12,2.21,3.18.11,2.1.26,4.2.31,6.3.06,2.56.42,5.18-.01,7.66-1.48,8.46-6.99,14.33-13.55,19.16-6.94,5.11-8.66,4.66-14.93-.86-6.87-6.05-13.8-12.05-21.05-17.62-5.13-3.95-10.43-2.95-13.75,1.73-2.66,3.75-1.44,9.36,2.85,12.99,1.99,1.69,3.98,3.4,6.05,4.99,2.58,1.97,2.28,4.13.4,6.22-5.01,5.55-10.02,11.12-15.25,16.47-3.21,3.28-6.36,3.49-10.13-.12-6.47-6.18-13.38-11.94-20.38-17.53-4.23-3.37-8.89-2.77-12.05.76-3.01,3.36-3.13,9.48-.19,13,1.84,2.19,5.37,4.4,5.24,6.42-.15,2.37-3.45,4.54-5.35,6.83-.47.57-.73,1.33-1.23,1.87-6.73,7.4-12.35,16.49-23.45,17.86-4.71.58-9.6-.31-14.41-.53-.36-2.38-.76-4.76-1.08-7.15-1.63-12.12-14.35-20.97-26.17-18-3.75.94-7.34,2.51-11.01,3.79,0,0-.03-.03-.03-.03.05-1.31-.11-2.66.17-3.93,3.45-16.01-11.95-28.08-22.97-26.2-6.1,1.04-11.81,4.4-17.36,6.58.96-9.84-.97-19.66-12.14-25.07-10.92-5.29-20.44-2.12-29.51,6.57-.17-2.97-.29-4.59-.35-6.21-.31-8.59-4.42-15.19-11.66-19.27-7.44-4.2-15.39-4.43-22.84.5-2.79,1.84-5.3,4.12-7.94,6.19Z"/>
      <path class="cls-9" d="M437.94,220.18c-14.73-12.67-29.47-25.33-44.19-38-11.05-9.51-22.04-19.08-33.17-28.49-1.33-1.13-3.35-1.97-5.09-2.03-16.29-.57-29.8-7.77-42.33-17.42-1.92-1.48-4.08-2.8-5.61-4.63-3.61-4.32-6.02-2.59-8.82.96-8.78,11.15-17.01,22.86-26.81,33.05-16.11,16.75-42.58,19.24-61.4,10.36-8.73-4.12-11.73-13.4-7-21.69,11.14-19.5,22.48-38.87,33.76-58.29,8.93-15.37,17.85-30.74,26.82-46.09,1.97-3.36,4.14-6.61,6.21-9.91,9.3-11.21,22.34-12.5,35.55-13.61,20.11-1.7,40.24-3.32,60.3-5.58,17.06-1.93,33.3-2.26,48.46,8.3,10.72,7.46,23.24,12.32,33.97,19.76,10.1,7.01,20.3,7.41,31.41,4.91.55-.12,1.11-.2,1.66-.29,5.94,48.35,11.87,96.7,17.81,145.05-6.46.75-12.9,1.89-19.38,2.18-12.16.55-23.63,2.35-32.34,12.1-3.01,3.36-6.54,6.26-9.83,9.37Z"/>
      <path class="cls-2" d="M137.49,60.33c-2.28,17.95-4.58,35.91-6.84,53.86-2.56,20.36-5.1,40.72-7.64,61.08-1.97,15.74-3.94,31.48-5.91,47.23-.33.76-.67,1.51-1,2.27,0,0,.06-.04.06-.04-.85.31-1.97.38-2.5.98-10.08,11.26-22.71,13.35-37.01,11.25-17.61-2.59-35.35-4.27-52.98-6.75-6.9-.97-13.64-3.03-20.46-4.59,3.93-32.53,7.81-65.08,11.8-97.6,4.72-38.47,9.55-76.93,14.28-115.4C30.64,1.64,33.44-.72,44.23.59c21.56,2.62,43.13,5.23,64.68,7.97,20.25,2.58,32.71,19.21,29.82,39.48-.58,4.07-.84,8.19-1.24,12.28ZM74.48,212.57c.11-9.81-7.42-17.62-17.2-17.85-9.56-.22-17.65,7.68-17.74,17.33-.1,9.93,7.86,17.92,17.79,17.88,9.25-.04,17.05-7.94,17.15-17.36Z"/>
      <path class="cls-3" d="M499.5,196.53c-5.94-48.35-11.87-96.7-17.81-145.05-1.85-11.59-.35-22.36,7.6-31.61,5.65-6.58,12.9-10.16,21.36-11.24,22.82-2.92,45.66-5.72,68.5-8.51,6.52-.8,10.55,2.58,11.56,10.07,1.71,12.61,3.15,25.26,4.7,37.89,4.43,36.02,8.89,72.03,13.28,108.05,2.83,23.21,5.54,46.44,8.31,69.66-6.82,1.51-13.57,3.48-20.47,4.44-17.47,2.43-35,4.47-52.52,6.55-8.67,1.03-17.63,2.32-25.53-2.44-5.48-3.3-10.18-7.89-15.22-11.9-1.26-8.63-2.51-17.26-3.77-25.89ZM579.75,212.21c-.03-9.6-7.95-17.57-17.46-17.56-9.63,0-17.41,7.79-17.46,17.48-.06,9.66,7.79,17.87,17.1,17.87,9.89,0,17.86-7.95,17.83-17.79Z"/>
      <path class="cls-4" d="M275.9,307.99c3.67-1.28,7.26-2.85,11.01-3.79,11.83-2.97,24.54,5.88,26.17,18,.32,2.39.72,4.77,1.08,7.15-3,5.24-5.72,10.67-9.06,15.69-4.61,6.92-9.69,13.54-14.57,20.28-5.09,3.98-9.94,8.12-17.08,8.17-15.47.12-26.05-12.2-23.14-27.36.24-1.24.48-2.47.91-4.72-10.12,6.13-19.71,7.17-28.78.16-8.98-6.94-10.12-16.43-7.22-27.76-9.78,6.46-19.33,7.65-28.4.88-9.24-6.88-10.78-16.5-8-25.88-6.27.78-12.84,2.92-19.03,2.11-15.38-2.02-22.99-19.9-14.93-33.37,2.09-3.5,4.26-6.96,6.4-10.44,2.64-2.08,5.15-4.35,7.94-6.19,7.46-4.93,15.4-4.7,22.84-.5,7.24,4.09,11.35,10.68,11.66,19.27.06,1.62.18,3.24.35,6.21,9.07-8.7,18.59-11.86,29.51-6.57,11.17,5.41,13.1,15.23,12.14,25.07,5.55-2.18,11.26-5.53,17.36-6.58,11.03-1.88,26.43,10.19,22.97,26.2-.27,1.26-.12,2.61-.17,3.93-.08.17-.15.33-.23.5.09-.16.17-.31.26-.47Z"/>
      <path class="cls-5" d="M290.53,365.32c4.88-6.75,9.95-13.36,14.57-20.28,3.34-5.02,6.06-10.44,9.06-15.69,4.81.22,9.7,1.11,14.41.53,11.1-1.37,16.71-10.47,23.45-17.86.5-.55.75-1.3,1.23-1.87,1.9-2.29,5.2-4.45,5.35-6.83.13-2.02-3.4-4.23-5.24-6.42-2.95-3.51-2.83-9.63.19-13,3.16-3.53,7.82-4.13,12.05-.76,7.01,5.58,13.91,11.34,20.38,17.53,3.77,3.6,6.92,3.4,10.13.12,5.23-5.34,10.24-10.91,15.25-16.47,1.88-2.09,2.18-4.25-.4-6.22-2.08-1.59-4.06-3.3-6.05-4.99-4.29-3.63-5.51-9.24-2.85-12.99,3.32-4.68,8.62-5.67,13.75-1.73,7.25,5.57,14.18,11.57,21.05,17.62,6.27,5.52,7.99,5.97,14.93.86,6.56-4.83,12.06-10.71,13.55-19.16.44-2.48.07-5.1.01-7.66-.05-2.1-.2-4.2-.31-6.3,5.01,4.22,10.13,8.33,15.02,12.7,8.17,7.3,9.64,18.1,2.74,26.66-4.13,5.13-9.26,9.98-14.94,13.22-8.66,4.95-17.42,2.02-26.09-3.39-5.18,5.93-10.45,11.69-15.42,17.71-9.07,10.98-21.52,13.59-34.22,7.35-1.55-.76-4.83-.18-6.07,1.04-4.25,4.2-8.08,8.85-11.84,13.52-8.55,10.61-21.85,15.62-35.45,7.75-1.3-.75-4.64.28-5.92,1.57-4.33,4.39-8.16,9.27-12.17,13.98-9.26,10.87-18.71,13.84-30.12,9.45Z"/>
      <path class="cls-11" d="M503.27,222.42c5.05,4.01,9.75,8.6,15.22,11.9,7.9,4.76,16.86,3.47,25.53,2.44,17.52-2.08,35.05-4.12,52.52-6.55,6.89-.96,13.65-2.93,20.47-4.44,1.01,6.79,2.03,13.58,3.02,20.37,1.63,11.18-.94,14.43-12.19,15.87-21.49,2.74-42.98,5.52-64.46,8.34-18.35,2.41-35.33-10.36-37.99-28.6-.38-2.59-.94-5.14-1.41-7.72-.24-3.87-.47-7.74-.71-11.61Z"/>
      <path class="cls-1" d="M3.21,225.61c6.81,1.56,13.56,3.62,20.46,4.59,17.63,2.48,35.37,4.16,52.98,6.75,14.3,2.1,26.93.01,37.01-11.25.53-.59,1.65-.66,2.5-.98-.46,6.34-.92,12.69-1.38,19.03-7.16,20.97-19.84,28.63-42.41,25.78-20.75-2.62-41.51-5.13-62.27-7.66-7.37-.9-10.61-4.09-10.03-11.35.67-8.34,2.06-16.61,3.14-24.91Z"/>
      <path class="cls-7" d="M503.27,222.42c.24,3.87.47,7.74.71,11.61-7.84.11-15.72.73-23.52.18-7.08-.5-12.75,1.48-17.64,6.36-5.82-4.55-11.69-9.05-17.45-13.68-2.59-2.09-4.96-4.46-7.43-6.71,3.29-3.11,6.83-6,9.83-9.37,8.71-9.75,20.19-11.55,32.34-12.1,6.48-.29,12.92-1.43,19.38-2.18,1.25,8.63,2.51,17.26,3.77,25.89Z"/>
      <path class="cls-1" d="M116.09,224.76c.34-.76.67-1.51,1-2.27-.34.76-.67,1.51-1,2.27Z"/>
      <path class="cls-10" d="M74.48,212.57c-.1,9.42-7.9,17.32-17.15,17.36-9.93.04-17.89-7.95-17.79-17.88.09-9.65,8.18-17.55,17.74-17.33,9.78.22,17.31,8.04,17.2,17.85Z"/>
      <path class="cls-8" d="M579.75,212.21c.03,9.84-7.94,17.79-17.83,17.79-9.3,0-17.15-8.21-17.1-17.87.06-9.7,7.83-17.47,17.46-17.48,9.51,0,17.44,7.96,17.46,17.56Z"/>
      <path class="cls-6" d="M275.9,307.99c-.09.16-.17.31-.26.47.08-.17.15-.33.23-.5,0,0,.03.03.03.03Z"/>
    </g>
  </g>
</svg>