<?xml version="1.0" encoding="UTF-8"?>
<svg id="Layer_2" xmlns="http://www.w3.org/2000/svg" viewBox="0 0 782.92 782.17">
  <defs>
    <style>
      .cls-1 {
        fill: #f89b2e;
      }

      .cls-2 {
        fill: #fbbe8c;
      }

      .cls-3 {
        fill: #f9a936;
      }

      .cls-4 {
        fill: #f6878c;
      }

      .cls-5 {
        fill: #e1f3f4;
      }

      .cls-6 {
        fill: #e1f3f7;
      }

      .cls-7 {
        fill: #e1f3f6;
      }

      .cls-8 {
        fill: #fbbe8b;
      }

      .cls-9 {
        fill: #f9aa38;
      }

      .cls-10 {
        fill: #fbd2a7;
      }
    </style>
  </defs>
  <g id="Layer_1-2" data-name="Layer_1">
    <g>
      <path class="cls-3" d="M416.05,390.95c-1.99.08-3.99.23-5.98.23-52.33.01-104.66,0-157,.01-9.65,0-12.92,3.23-12.93,12.78-.01,16-.17,32,.07,48,.12,7.76-2.35,13.77-9.57,17.08-6.8,3.13-12.92,1.42-19.3-4.96-21.92-21.91-43.89-43.75-65.69-65.78-4.9-4.95-10.32-7.25-17.33-7.21-28.33.2-56.68-.39-84.99.22C19.54,391.85-.07,372.22,0,348.19.3,246.19.11,144.19.14,42.19.15,18.2,18.13.07,42.06.06,190.39.01,338.72.02,487.05.02c.99,0,1.99.12,2.98.19,1.08,1.05,1.97,2.49,3.26,3.11,16,7.6,24.96,19.64,24.78,37.88-.17,16.82,0,33.65-.04,50.48-.04,18.32-.15,36.64-.23,54.96-.63-.77-1.31-1.49-1.88-2.3-15.13-21.45-39.64-31.02-65.2-25.42-43.93,9.62-63.29,62.46-36.03,98.19,10.77,14.11,25.2,21.78,42.43,24.74-1.08,2-1.82,4.29-3.28,5.95-8.37,9.47-14.21,20.36-17.5,32.43-2.63,9.65-4.21,19.58-6.17,29.41-1.76,8.87-3.48,17.75-5.07,26.65-1.71,9.58-3.27,19.18-4.85,28.78-1.42,8.63-2.8,17.26-4.19,25.89ZM110.2,189.6c0,2.37,0,4.18,0,6,0,11.66-.06,23.32.05,34.97.05,5.19,2.75,8.83,7.58,10.65,4.49,1.7,10.01.41,12.54-3.54,1.6-2.5,2.64-5.82,2.65-8.78.18-32.81.11-65.61.11-98.42,0-.83.02-1.67-.06-2.5-.6-6.29-5.48-10.72-11.66-10.58-6.16.13-11.06,4.78-11.16,11.1-.17,10.66-.06,21.32-.07,31.97,0,1.78,0,3.56,0,5.62h-47.36c0-2.09,0-3.87,0-5.65,0-10.49.1-20.98-.06-31.47-.11-6.81-5.22-11.65-11.78-11.58-6.33.06-11.05,4.83-11.06,11.61-.06,33.81-.16,67.61.2,101.42.03,3.23,2.43,7.47,5.07,9.44,7.39,5.51,17.35-.23,17.55-9.86.24-11.65.06-23.31.09-34.97,0-1.75.18-3.51.28-5.42h47.06ZM180.85,168.13c0-8.15.18-15.47-.07-22.77-.13-3.87,1.08-5.34,5.08-5.23,8.49.24,17,.15,25.5.04,7.55-.1,12.36-4.68,12.35-11.49-.01-6.83-4.77-11.3-12.43-11.35-13.66-.09-27.33-.09-41,0-7.81.05-12.3,4.57-12.32,12.52-.07,33.15-.07,66.3,0,99.45.02,8.15,4.52,12.53,12.77,12.68,6.5.11,13,.05,19.5.03,7.5-.01,15.01.21,22.49-.16,6.93-.34,11.14-5.19,10.98-11.78-.15-6.18-4.67-10.56-11.36-10.91-2.49-.13-5-.04-7.5-.04-7.79,0-15.57,0-23.54,0v-28.08c9.25,0,18.06.13,26.86-.08,2.39-.06,5.03-.65,7.06-1.84,4.46-2.63,6.27-7.86,4.98-12.56-1.34-4.88-5.66-8.31-11.14-8.4-9.13-.14-18.26-.04-28.2-.04ZM248.35,179.18c0,16.31-.06,32.62.02,48.93.05,9.17,4.45,13.72,13.29,13.8,10.82.1,21.64.11,32.46,0,7.98-.08,12.98-4.64,12.94-11.46-.03-6.67-5.3-11.57-12.91-11.77-5.66-.15-11.33-.31-16.97.05-4.46.28-5.64-1.29-5.61-5.66.19-26.3.11-52.59.06-78.89,0-2.64-.22-5.32-.68-7.93-.92-5.19-5.24-8.72-10.49-8.86-7.46-.2-12.06,4.93-12.1,13.85-.08,15.98-.02,31.96-.02,47.94ZM332.13,179.7c0,16.16-.04,32.31.01,48.47.03,9.39,4.35,13.7,13.8,13.77,10.66.07,21.32.1,31.98-.01,8.06-.09,12.87-4.49,12.94-11.5.06-6.61-5.29-11.58-12.9-11.75-5.49-.13-10.99-.03-16.49-.03q-6.42,0-6.43-6.6c0-27.15.11-54.3-.15-81.44-.03-3.35-1.38-7.19-3.35-9.91-2.8-3.86-7.55-4.31-11.84-2.71-5.2,1.94-7.57,6.2-7.56,11.77.02,16.66,0,33.31,0,49.97Z"/>
      <path class="cls-10" d="M443.27,515.94c.93-1.36,2.42-2.62,2.7-4.1,4.74-25.67,9.35-51.36,13.95-77.06,2.35-13.16,4.63-26.34,6.89-39.52.22-1.3.13-2.64.18-3.97.36-1.7.72-3.4,1.07-5.11.25-.68.5-1.35.74-2.03,2.37-13.06,4.74-26.12,7.12-39.18,2.98-16.31,5.25-32.79,9.15-48.88,6.16-25.39,36.5-38.26,59-22.98-1,7.03-1.86,14.09-3.02,21.1-3.08,18.6-6.21,37.19-9.48,55.75-2.36,13.35-5.01,26.66-7.46,39.99-1.11,6.01-2.07,12.04-3.07,18.07-1.49,8.96-2.83,17.95-4.46,26.89-2.4,13.17-5.47,26.25-7.27,39.5-.7,5.09-2.5,6.39-6.82,5.71-6.8-1.07-12.14,4.63-12.47,10.65-.31,5.81,5.03,11.38,11.37,12.41,18.44,3,36.86,6.13,55.26,9.38,15.3,2.7,30.54,5.74,45.84,8.47,27.99,5,56.01,9.85,84.01,14.82,5.54.98,12.48-3.72,13.46-9.29,1.1-6.31-3.27-12.69-9.67-13.29-4.09-.38-4.63-2.27-3.94-5.64,1.29-6.32,2.53-12.65,3.67-18.99,3.32-18.54,6.64-37.09,9.85-55.66,1.86-10.75,3.44-21.55,5.31-32.31.56-3.24,1.67-6.39,2.53-9.59.88-.26,2.16-.24,2.59-.83,4.85-6.71,10.63-12.35,18.52-15.19,5.85-2.11,11.87-4.15,18.27-2.12-1.02,5.53-2.08,11.05-3.04,16.59-2.46,14.33-4.76,28.7-7.35,43.01-2.38,13.18-5.22,26.28-7.57,39.46-3.3,18.56-6.19,37.2-9.5,55.76-3.34,18.72-7,37.38-10.51,56.07-2.99,15.91-6.07,31.79-8.94,47.72-3.13,17.35-10.15,33.25-18.74,48.39-10.81,19.05-24.73,35.62-41.46,49.94-19.95,17.06-42.53,29.24-67.38,37.02-18.24,5.71-37.2,8-56.35,8.29-1.4.02-2.8.62-4.2.96-9.65-3.48-19.47-6.54-28.92-10.51-25.63-10.76-47.06-27.52-65.18-48.31-16.99-19.49-29.28-41.81-37.07-66.61-5.52-17.55-7.65-35.55-9.03-53.79-1.86-24.63-4.46-49.21-6.7-73.81-1.08-11.89-2.12-23.79-3.02-35.7-1.5-19.89,12.59-40.71,35.34-42.47,8.61-.67,16.67.25,23.6,5.96.32,27.94.64,55.88.95,83.81.16,14.03,7.23,24.28,18.32,31.81,5.7,3.87,12.27,6.45,18.41,9.69,9.8,5.17,20.27,9.41,29.2,15.8,23.3,16.7,34.16,41.18,27.32,71.92-1.57,7.06,2.54,14.02,9.37,15.91,4.6,1.27,12.09-3.17,13.04-8.48,1.42-7.95,3.02-16.04,2.94-24.06-.12-13.26-2.82-26.2-8.74-38.27-5.84-11.9-13.48-22.33-23.96-30.66-14.93-11.87-32.52-19-49.02-28.07-5.45-3-11.78-5.61-13.32-11.88-1.78-7.26-1.63-14.99-2.32-22.52Z"/>
      <path class="cls-1" d="M544.08,273.12c-22.5-15.28-52.84-2.4-59,22.98-3.9,16.09-6.17,32.57-9.15,48.88-2.39,13.06-4.75,26.12-7.12,39.18-.25.68-.5,1.35-.75,2.03-.36,1.7-.72,3.4-1.07,5.11-16.98-.11-33.96-.23-50.94-.34,1.39-8.63,2.77-17.27,4.19-25.89,1.58-9.6,3.14-19.21,4.85-28.78,1.59-8.9,3.3-17.78,5.07-26.65,1.95-9.83,3.54-19.76,6.17-29.41,3.29-12.06,9.13-22.96,17.5-32.43,1.46-1.66,2.21-3.95,3.28-5.95,6.62-.27,13.25-.53,19.87-.8.69-.25,1.38-.49,2.07-.74,31.87-8.52,51.02-36.06,46.81-68.87-1.09-8.47-5.29-16.54-8.06-24.8.08-18.32.19-36.64.23-54.96.04-16.83-.12-33.65.04-50.48.18-18.23-8.78-30.28-24.78-37.88-1.29-.61-2.18-2.05-3.26-3.11,13.46-.04,26.93-.42,40.39-.04,15.94.45,33.41,17.03,35.38,32.91.16,1.31.46,2.61.69,3.91-.12,1.32-.34,2.63-.34,3.95-.01,30.48.42,60.97-.08,91.45-.94,56.24,2.73,112.53-2.1,168.71-.97-1.43-2.43-2.73-2.84-4.31-2.63-10.14-7.72-18.41-17.06-23.66Z"/>
      <path class="cls-8" d="M544.08,273.12c9.34,5.26,14.43,13.52,17.06,23.66.41,1.57,1.86,2.88,2.84,4.31-.65,2.73-1.43,5.43-1.92,8.19-3.39,19.06-6.63,38.14-10.11,57.18-3.44,18.85-7.28,37.64-10.62,56.51-3.32,18.73-6.06,37.55-9.46,56.26-.77,4.24-.11,6.23,4.19,6.93,14.37,2.34,28.73,4.73,43.07,7.24,5.99,1.05,7.01.36,7.92-5.32,1.7-10.61,3.55-21.19,5.47-31.76,2.77-15.3,5.76-30.57,8.44-45.89,3.21-18.41,6.06-36.89,9.32-55.29,2.34-13.18,5.28-26.25,7.62-39.43,3.23-18.24,6.1-36.54,9.32-54.78.26-1.46,2.03-2.65,3.1-3.97,9.46,6.75,14.55,16.52,14.43,27.53-.13,11.96-2.89,23.89-4.53,35.82-.41,2.95-.94,5.88-1.41,8.81-.58,1.04-1.51,2.03-1.69,3.14-2.77,16.8-5.32,33.64-8.17,50.43-2.08,12.22-4.64,24.36-6.81,36.57-2.28,12.86-4.26,25.76-6.5,38.63-2.07,11.9-4.34,23.76-6.44,35.65-.55,3.12-.11,5.32,4.02,5.8,6.06.71,12.02,2.32,18.05,3.37,9.13,1.57,18.28,3.01,27.42,4.45,3.21.51,5.02-.82,5.43-4.19.45-3.6,1.11-7.18,1.77-10.75,2.36-12.85,4.85-25.68,7.13-38.54,3.28-18.55,6.37-37.13,9.63-55.68,1.69-9.61,3.63-19.18,5.36-28.79,3.08-17.1,6.08-34.21,9.11-51.31,10.75,6.56,16.29,16.71,16.6,28.73.25,9.59-2.04,19.26-3.35,28.87-.71,5.22-1.74,10.4-2.63,15.59-.86,3.19-1.97,6.34-2.53,9.59-1.87,10.75-3.45,21.55-5.31,32.31-3.21,18.56-6.53,37.11-9.85,55.66-1.14,6.35-2.38,12.68-3.67,18.99-.69,3.37-.14,5.26,3.94,5.64,6.4.59,10.78,6.98,9.67,13.29-.98,5.57-7.92,10.28-13.46,9.29-28-4.96-56.01-9.82-84.01-14.82-15.3-2.73-30.54-5.77-45.84-8.47-18.4-3.25-36.82-6.38-55.26-9.38-6.33-1.03-11.68-6.6-11.37-12.41.33-6.02,5.66-11.72,12.47-10.65,4.31.68,6.12-.62,6.82-5.71,1.81-13.25,4.87-26.32,7.27-39.5,1.63-8.94,2.97-17.93,4.46-26.89,1-6.03,1.96-12.06,3.07-18.07,2.45-13.34,5.11-26.64,7.46-39.99,3.27-18.57,6.4-37.16,9.48-55.75,1.16-7.01,2.02-14.06,3.02-21.1Z"/>
      <path class="cls-2" d="M512.05,776.17c1.4-.33,2.79-.94,4.2-.96,19.15-.29,38.11-2.58,56.35-8.29,24.85-7.78,47.43-19.97,67.38-37.02,16.74-14.31,30.66-30.88,41.46-49.94,8.59-15.14,15.61-31.03,18.74-48.39,2.87-15.93,5.95-31.82,8.94-47.72,3.51-18.69,7.17-37.35,10.51-56.07,3.32-18.56,6.2-37.19,9.5-55.76,2.34-13.19,5.18-26.28,7.57-39.46,2.59-14.31,4.88-28.68,7.35-43.01.95-5.54,2.02-11.06,3.04-16.59,14.54-1.27,29.52,13.13,34.07,26.89,3.37,10.21,1.19,19.99-.53,29.91-3.85,22.2-7.74,44.39-11.72,66.57-2.77,15.48-5.79,30.92-8.56,46.4-3.22,17.92-6.18,35.9-9.46,53.81-4.15,22.65-6.99,45.63-15.81,67.19-11.5,28.12-28.22,52.44-51.29,72.46-17.67,15.34-37.37,27.03-59.21,35.08-17.83,6.57-36.25,10.89-55.38,10.9-11.95,0-23.95-.26-35.85-1.33-7.18-.64-14.2-3.06-21.3-4.67Z"/>
      <path class="cls-10" d="M630.3,256.96c-1.07,1.32-2.84,2.51-3.1,3.97-3.22,18.24-6.08,36.55-9.32,54.78-2.34,13.18-5.28,26.25-7.62,39.43-3.26,18.4-6.11,36.88-9.32,55.29-2.67,15.32-5.67,30.58-8.44,45.89-1.91,10.57-3.77,21.15-5.47,31.76-.91,5.68-1.93,6.37-7.92,5.32-14.34-2.51-28.7-4.89-43.07-7.24-4.3-.7-4.96-2.69-4.19-6.93,3.4-18.71,6.15-37.54,9.46-56.26,3.34-18.87,7.18-37.65,10.62-56.51,3.47-19.04,6.71-38.13,10.11-57.18.49-2.76,1.27-5.46,1.92-8.19,4.83-56.18,1.16-112.48,2.1-168.71.51-30.47.07-60.96.08-91.45,0-1.32.22-2.63.34-3.95.49,2.13,1.39,4.27,1.4,6.4.07,74.31.06,148.62.06,222.93,0,2.26,0,4.53,0,6.79,4.73-9.98,12.01-17.04,21.61-21.92,13.32-6.77,32.01-3.39,40.73,5.77Z"/>
      <path class="cls-10" d="M697.09,317.92c-3.03,17.1-6.03,34.21-9.11,51.31-1.73,9.61-3.67,19.18-5.36,28.79-3.26,18.55-6.35,37.13-9.63,55.68-2.28,12.86-4.76,25.69-7.13,38.54-.66,3.57-1.32,7.15-1.77,10.75-.42,3.36-2.23,4.69-5.43,4.19-9.15-1.44-18.3-2.88-27.42-4.45-6.03-1.04-11.98-2.66-18.05-3.37-4.13-.48-4.57-2.68-4.02-5.8,2.1-11.89,4.37-23.75,6.44-35.65,2.24-12.86,4.22-25.77,6.5-38.63,2.16-12.21,4.72-24.35,6.81-36.57,2.86-16.79,5.41-33.63,8.17-50.43.18-1.11,1.11-2.1,1.69-3.14,1.03-.5,2.47-.73,3.03-1.55,11.82-17.55,36.14-22.8,53.8-11.5.63.4,1,1.21,1.49,1.83Z"/>
      <path class="cls-2" d="M443.27,515.94c.69,7.53.53,15.26,2.32,22.52,1.54,6.26,7.87,8.88,13.32,11.88,16.5,9.07,34.1,16.2,49.02,28.07,10.48,8.33,18.12,18.76,23.96,30.66,5.92,12.07,8.62,25.01,8.74,38.27.07,8.02-1.52,16.11-2.94,24.06-.95,5.31-8.44,9.75-13.04,8.48-6.83-1.89-10.94-8.84-9.37-15.91,6.84-30.74-4.03-55.22-27.32-71.92-8.92-6.4-19.4-10.63-29.2-15.8-6.14-3.24-12.71-5.82-18.41-9.69-11.09-7.53-18.16-17.78-18.32-31.81-.31-27.94-.63-55.87-.95-83.81,11.51,4.9,17.08,14.62,18.84,26.06,1.98,12.85,2.3,25.95,3.35,38.94Z"/>
      <path class="cls-4" d="M331.96,591.73c.53,5.7-.53,10.63-6.16,13.53-7.22,3.73-15.92-.73-16.71-8.81-1.41-14.37-2.61-28.76-3.89-43.15-1.65-18.51-3.23-37.03-4.95-55.54-.93-9.96,1.4-15.13,8.05-17.13,6.96-2.09,13.88,2.17,14.6,9.42,1.78,18,3.35,36.03,4.95,54.05,1.41,15.87,2.75,31.75,4.12,47.63Z"/>
      <path class="cls-4" d="M662.16,145.21c4.22,1.93,10.55,4.38,16.45,7.62,19.63,10.79,36.13,25.27,49.53,43.26,5.45,7.33,4.99,14.25-1.33,18.74-5.4,3.84-11.45,2.78-16.04-3.32-11.13-14.77-24.36-27.2-40.37-36.5-4.72-2.74-9.78-4.94-14.74-7.25-5.3-2.47-8.45-8.09-7.31-13.39,1.17-5.44,5.81-9.13,13.82-9.15Z"/>
      <path class="cls-4" d="M279,572.83c.29,8.93-7.1,15.24-16.27,11.21-5.65-2.48-6.92-7.7-7.39-13.15-1.37-15.68-2.6-31.38-3.96-47.06-.53-6.05,3.76-12.06,9.72-13.32,5.5-1.16,11.88,2.84,13,8.87,1.26,6.83,1.98,13.77,2.58,20.69.88,10.08,1.46,20.18,2.34,32.75Z"/>
      <path class="cls-4" d="M677.89,247.2c-2.86-1.95-6.42-3.36-8.47-5.96-6.95-8.83-14.76-16.48-24.54-22.19-7.16-4.18-8.86-11.02-4.98-17.33,3.49-5.67,10.59-6.6,17.57-2.37,12.39,7.49,22.78,17.11,31.08,28.98,2.63,3.76,2.95,7.77.69,11.71-2.3,3.99-5.72,6.43-11.35,7.18Z"/>
      <path class="cls-7" d="M476.98,241.03c-6.62.27-13.25.53-19.87.8-17.23-2.96-31.66-10.62-42.43-24.74-27.26-35.73-7.89-88.57,36.03-98.19,25.56-5.6,50.07,3.97,65.2,25.42.57.81,1.25,1.54,1.88,2.3,2.77,8.26,6.97,16.33,8.06,24.8,4.21,32.8-14.94,60.35-46.81,68.87-.69.25-1.38.49-2.07.74ZM464.67,140.28c-21.59-.06-39.47,17.42-39.57,38.67-.1,21.99,17.05,39.74,38.74,40.08,21.83.34,40.06-17.47,40.16-39.27.1-21.62-17.64-39.42-39.33-39.48Z"/>
      <path class="cls-6" d="M110.2,189.6h-47.06c-.1,1.91-.28,3.66-.28,5.42-.03,11.66.16,23.32-.09,34.97-.2,9.64-10.16,15.37-17.55,9.86-2.64-1.97-5.04-6.21-5.07-9.44-.37-33.8-.26-67.61-.2-101.42.01-6.78,4.73-11.55,11.06-11.61,6.56-.06,11.67,4.77,11.78,11.58.16,10.49.05,20.98.06,31.47,0,1.78,0,3.56,0,5.65h47.36c0-2.06,0-3.84,0-5.62,0-10.66-.1-21.32.07-31.97.1-6.32,5-10.97,11.16-11.1,6.17-.13,11.06,4.29,11.66,10.58.08.83.06,1.66.06,2.5,0,32.81.07,65.61-.11,98.42-.02,2.96-1.05,6.29-2.65,8.78-2.53,3.96-8.05,5.24-12.54,3.54-4.83-1.82-7.53-5.46-7.58-10.65-.11-11.66-.05-23.31-.05-34.97,0-1.82,0-3.63,0-6Z"/>
      <path class="cls-7" d="M180.85,168.13c9.94,0,19.07-.1,28.2.04,5.48.08,9.8,3.52,11.14,8.4,1.29,4.7-.52,9.92-4.98,12.56-2.02,1.2-4.67,1.78-7.06,1.84-8.8.21-17.61.08-26.86.08v28.08c7.97,0,15.76,0,23.54,0,2.5,0,5-.08,7.5.04,6.7.35,11.22,4.73,11.36,10.91.16,6.59-4.05,11.43-10.98,11.78-7.48.37-14.99.14-22.49.16-6.5.01-13,.08-19.5-.03-8.25-.14-12.75-4.52-12.77-12.68-.07-33.15-.07-66.3,0-99.45.02-7.95,4.51-12.47,12.32-12.52,13.66-.1,27.33-.09,41,0,7.67.05,12.42,4.52,12.43,11.35.01,6.81-4.8,11.4-12.35,11.49-8.5.11-17,.2-25.5-.04-4-.11-5.21,1.35-5.08,5.23.25,7.3.07,14.62.07,22.77Z"/>
      <path class="cls-7" d="M248.35,179.18c0-15.98-.06-31.96.02-47.94.04-8.92,4.64-14.06,12.1-13.85,5.24.14,9.56,3.68,10.49,8.86.46,2.6.67,5.28.68,7.93.05,26.3.12,52.6-.06,78.89-.03,4.37,1.15,5.94,5.61,5.66,5.64-.36,11.32-.2,16.97-.05,7.61.2,12.88,5.1,12.91,11.77.03,6.82-4.97,11.37-12.94,11.46-10.82.11-21.64.11-32.46,0-8.84-.08-13.24-4.63-13.29-13.8-.09-16.31-.02-32.62-.02-48.93Z"/>
      <path class="cls-5" d="M332.13,179.7c0-16.66.01-33.31,0-49.97,0-5.57,2.36-9.83,7.56-11.77,4.29-1.6,9.04-1.14,11.84,2.71,1.97,2.72,3.32,6.56,3.35,9.91.26,27.15.15,54.29.15,81.44q0,6.59,6.43,6.6c5.5,0,10.99-.1,16.49.03,7.61.18,12.96,5.14,12.9,11.75-.06,7-4.88,11.41-12.94,11.5-10.66.12-21.32.09-31.98.01-9.45-.06-13.77-4.37-13.8-13.77-.05-16.16-.01-32.31,0-48.47Z"/>
      <path class="cls-3" d="M468.06,386.19c.25-.68.5-1.35.75-2.03-.25.68-.5,1.35-.75,2.03Z"/>
      <path class="cls-3" d="M476.98,241.03c.69-.25,1.38-.49,2.07-.74-.69.25-1.38.49-2.07.74Z"/>
      <path class="cls-9" d="M464.67,140.28c21.69.06,39.43,17.86,39.33,39.48-.1,21.8-18.33,39.61-40.16,39.27-21.69-.34-38.84-18.09-38.74-40.08.1-21.25,17.98-38.72,39.57-38.67Z"/>
    </g>
  </g>
</svg>