<svg width="677" height="767" viewBox="0 0 677 767" fill="none" xmlns="http://www.w3.org/2000/svg">
<g clip-path="url(#clip0_29_2088)">
<path d="M-200.611 720.976C-204.886 715.969 -202.588 709.752 -202.47 704.13C-202.218 691.842 -200.793 679.502 -198.364 667.246C-197.619 663.479 -197.184 659.598 -195.145 656.051C-194.203 658.02 -192.738 657.683 -191.516 656.25C-189.792 654.224 -188.347 652.002 -186.775 649.868C-180.81 641.772 -175.659 633.268 -170.304 624.853C-164.518 615.766 -158.025 607.033 -151.943 598.093C-146.252 589.729 -140.8 581.237 -135.044 572.911C-129.528 564.928 -123.835 557.048 -118.081 549.198C-113.313 542.694 -108.505 536.201 -103.427 529.893C-98.1644 523.358 -92.3532 517.181 -87.1568 510.607C-80.7537 502.513 -72.8889 495.624 -65.1721 488.764C-55.2213 479.919 -44.2763 472.005 -32.9723 464.627C-31.8875 463.915 -30.042 463.038 -30.3373 462.048C-31.3683 458.59 -28.3147 457.764 -26.2572 456.35C-22.1933 453.551 -18.0079 450.908 -13.9237 448.129C-12.808 447.369 -11.1992 446.893 -11.1188 445.27C-12.0265 444.373 -13.0137 444.954 -13.9533 445.21C-20.8981 447.116 -27.0321 450.848 -33.3163 454.071C-39.8766 457.433 -45.4914 462.225 -51.3138 466.75C-62.8407 475.707 -73.5914 485.343 -84.1038 495.242C-93.7603 504.336 -102.493 514.114 -110.25 524.644C-116.893 533.662 -122.682 543.127 -129.314 552.16C-140.396 567.253 -150.655 582.811 -160.527 598.584C-166.633 608.342 -172.577 618.165 -178.429 628.036C-181.955 633.984 -185.501 639.898 -190.378 645.078C-194.196 644.901 -195.459 642.752 -195.115 639.515C-194.291 631.724 -193.687 623.913 -192.405 616.154C-191.676 611.742 -194.08 607.608 -192.226 603.241C-190.278 598.66 -189.889 593.858 -188.711 589.172C-188.095 586.723 -188.065 584.057 -185.521 582.292C-185.519 583.702 -185.496 585.094 -185.469 586.534C-183.571 586.297 -183.244 585.276 -182.569 584.136C-179.795 579.405 -178.71 574.113 -175.61 569.49C-173.291 566.028 -171.298 562.398 -169.116 558.861C-168.74 558.253 -168.161 557.631 -168.79 557.099C-169.627 556.386 -170.35 557.09 -170.996 557.678C-172.902 559.403 -173.336 562.173 -175.938 563.405C-175.839 562.053 -175.607 560.716 -174.627 559.592C-166.011 549.687 -160.283 538.244 -153.029 527.61C-145.071 515.947 -136.869 504.295 -126.845 494.107C-117.184 484.286 -109.325 472.976 -98.3861 464.291C-88.9117 456.767 -80.0458 448.643 -70.6678 441.021C-60.7263 432.947 -50.0116 426.093 -39.1249 419.498C-27.8648 412.677 -15.7452 407.16 -4.19175 400.767C6.50761 394.844 17.0558 388.605 26.3433 380.755C30.5081 377.235 35.2459 374.284 38.8683 370.203C40.9678 369.483 42.8952 368.553 44.0582 366.63C51.3995 364.029 57.7504 359.813 63.9952 355.412C67.4145 353.002 70.8845 350.656 74.3291 348.28C76.3713 346.871 78.1547 345.238 79.4813 343.233C81.0573 342.229 82.6993 341.273 84.2349 340.191C92.7987 334.135 102.852 329.848 109.44 321.449C114.334 317.913 118.082 313.319 122.529 309.393C126.269 306.093 128.564 301.544 133.303 299.151C135.231 298.178 136.077 296.36 136.786 294.551C138.072 293.462 137.741 292.37 137.044 291.28C136.921 291.303 136.702 291.375 136.687 291.341C136.58 291.161 136.531 290.957 136.455 290.758C137.607 288.941 136.917 287.411 135.88 285.98C133.639 282.903 131.356 279.856 129.089 276.794C124.472 271.794 122.795 265.366 120.549 259.289C119.49 256.418 117.445 253.716 117.979 250.316C118.74 250.926 118.788 252.294 120.849 252.136C118.177 248.519 119.714 244.416 119.297 240.609C118.613 234.375 121.971 231.044 127.952 229.26C134.887 227.194 139.262 224.378 140.983 216.539C143.316 205.925 147.397 195.443 149.986 184.768C150.257 183.654 150.661 182.537 151.851 182.156C154.553 181.288 154.818 180.504 152.635 178.834C151.233 177.76 152.757 176.149 153.827 176.136C158.126 176.073 159.892 172.941 162.287 170.526C160.23 177.199 157.349 183.665 155.436 190.393C154.208 194.705 153.399 199.01 152.62 203.359C150.073 217.569 148.674 231.765 153.688 245.144C156.466 252.557 158.136 260.395 162.645 267.266C165.866 272.175 168.744 277.16 172.634 281.744C180.815 291.383 179.598 307.568 171.07 318.166C166.583 323.745 162.456 329.559 158.259 335.324C156.594 337.613 155.031 339.907 152.514 341.541C150.938 342.565 149.708 344.507 150.589 345.641C151.763 347.155 153.441 345.308 154.567 344.456C169.595 333.162 179.935 319.413 183.5 301.855C185.513 291.933 183.014 282.853 180.505 273.779C178.191 265.394 173.671 257.714 171.275 249.44C168.198 238.791 162.15 228.936 163.011 217.107C163.574 209.354 164.698 201.744 167.274 194.182C168.99 189.135 170.15 183.959 171.678 178.858C174.457 169.58 179.383 161.332 185.773 153.684C192.548 145.578 198.963 137.154 206.434 129.613C215.438 120.525 226.514 113.805 238.081 107.693C252.261 100.205 267.644 97.5079 282.857 94.0004C285.359 93.4229 288.019 93.6413 291.197 93.4602C289.325 95.4131 287.583 96.8529 285.402 97.5486C278.583 99.7212 272.04 102.753 265.858 106.049C248.91 115.079 233.192 125.85 220.601 140.042C216.261 144.934 214.233 151.031 211.458 156.702C205.724 168.421 199.963 180.111 197.731 192.785C195.225 207.005 196.073 220.414 204.557 232.289C209.237 238.841 212.883 246.021 216.622 253.047C220.573 260.472 221.978 269.06 223.068 277.497C225.82 298.818 222.862 320.151 218.388 341.554C214.685 359.266 207.83 376.065 197.923 391.789C190.51 403.552 182.918 415.441 173.407 425.956C168.374 431.517 163.254 437.161 157.393 442.277C151.009 447.85 144.928 453.939 138.645 459.702C133.935 464.019 128.698 467.917 123.932 472.234C97.172 496.445 64.9748 513.703 35.2633 534.136C24.1414 541.783 13.0598 549.502 2.26195 557.547C-7.67066 564.952 -17.3958 572.635 -26.852 580.567C-35.9241 588.171 -44.7276 596.078 -53.2976 604.174C-61.7447 612.155 -70.0753 620.297 -77.8066 628.854C-81.7107 633.176 -85.0419 638.058 -88.2862 642.917C-91.2631 647.38 -95.1249 651.411 -98.8134 655.472C-107.627 665.187 -117.156 674.306 -124.919 684.884C-129.075 690.547 -134.061 695.896 -138.919 701.211C-145.096 707.973 -150.708 715.102 -156.331 722.241C-160.993 728.158 -166.057 733.822 -170.796 739.69C-177.999 748.618 -184.531 757.943 -191.094 767.263C-193.875 771.213 -195.476 775.868 -199.507 779.113C-200.285 779.739 -200.917 780.583 -202.104 780.402C-204.704 776.742 -207.305 773.077 -209.905 769.417C-208.344 766.459 -209.163 763.425 -208.851 760.426C-208.124 753.468 -207.865 746.474 -205.36 739.653C-202.913 740.651 -202.536 738.878 -201.752 737.36C-196.711 727.611 -191.137 718.082 -185.043 708.822C-175.211 693.892 -164.749 679.281 -155.156 664.239C-146.711 650.993 -139.094 637.335 -129.575 624.634C-124.716 618.15 -120.161 611.452 -114.905 605.242C-109.865 599.278 -105.517 593.029 -101.936 586.33C-101.22 584.991 -100.496 583.061 -101.72 582.201C-103.192 581.165 -104.726 582.858 -105.736 583.88C-113.51 591.777 -121.675 599.416 -128.747 607.807C-137.524 618.22 -144.446 629.767 -151.586 641.139C-159.045 653.014 -166.627 664.829 -173.847 676.812C-179.276 685.818 -185.895 694.216 -190.765 703.511C-193.857 709.413 -196.232 715.649 -200.611 721.01L-200.611 720.976ZM129.7 403.383C124.904 405.64 120.322 407.171 116.479 409.714C92.6878 425.472 67.8044 439.553 45.7423 457.919C24.971 475.212 1.81653 490.126 -21.5537 504.423C-39.1633 515.198 -57.1933 525.477 -70.8368 540.963C-74.8698 545.536 -80.2636 549.103 -83.1692 554.478C-83.7565 555.565 -85.919 556.605 -84.626 557.892C-83.2925 559.223 -81.5437 558.316 -79.9121 557.385C-70.117 551.792 -61.3191 544.884 -53.1304 537.527C-43.3738 528.759 -33.4055 520.432 -22.0531 513.519C0.580171 499.727 23.163 485.838 44.7437 470.596C64.5125 456.637 83.4508 441.637 104.004 428.662C106.957 426.798 109.884 424.885 112.715 422.86C119.82 417.785 126.234 412.173 129.705 403.379L129.7 403.383ZM3.61721 442.361C2.765 444.324 2.70299 445.386 5.39581 444.339C8.46678 443.139 10.7533 440.883 13.4953 439.255C21.6699 434.404 31.1718 432.028 38.7415 425.938C43.6685 421.971 49.1583 418.559 54.602 415.206C66.4869 407.884 77.1009 398.965 88.5201 391.054C96.6327 385.432 104.372 379.11 112.359 373.177C117.463 369.385 122.534 365.225 125.955 359.81C126.763 358.53 127.264 357.33 126.297 356.108C125.218 354.74 123.834 355.188 122.479 355.961C121.343 356.609 120.223 357.296 119.138 358.017C110.075 364.031 101.3 370.357 92.6218 376.882C74.6145 390.429 54.83 401.73 36.7461 415.281C26.6955 422.817 15.5558 429.067 5.12516 436.174C0.0787503 439.612 -4.46652 443.702 -9.23959 447.496C-4.23171 447.315 -0.635561 444.281 3.61721 442.361ZM159.401 388.375C167.319 382.985 173.248 376.604 179.304 370.394C185.93 363.6 191.392 355.981 196.808 348.39C200.786 342.813 203.002 336.649 202.988 330.09C202.987 329.232 203.3 328.022 201.935 327.85C200.793 327.707 200.08 328.542 199.575 329.417C199.23 330.021 198.987 330.669 198.724 331.303C191.86 347.859 178.331 360.223 165.986 373.321C161.688 377.878 157.857 382.811 152.909 386.87C151.49 388.035 151.305 390.027 152.502 391.27C153.784 392.6 155.104 390.955 156.285 390.336C157.574 389.664 158.746 388.793 159.406 388.37L159.401 388.375Z" fill="#F18473"/>
<path d="M560.948 888.676C557.661 886.636 553.951 888.176 550.467 888.477C541.014 889.297 531.546 890.175 522.127 891.514C515.728 892.424 509.416 894.231 502.962 894.941C491.07 896.257 479.184 898.299 467.329 899.319C456.346 900.266 445.628 902.204 434.858 904.384C434.496 904.459 434.074 904.171 433.682 904.052C434.224 902.94 436.11 902.854 436.23 900.6C422.179 902.282 408.23 903.949 392.904 905.784C404.544 899.401 401.267 889.949 401.841 882.152C402.884 867.905 404.126 853.611 404.276 839.364C404.452 822.548 407.579 805.676 407.275 788.9C407.021 774.918 408.353 760.93 408.941 746.942C409.393 736.284 408.983 725.656 409.206 715.006C409.324 709.267 410.05 703.502 410.373 697.755C411.115 684.398 411.587 671.04 412.528 657.685C413.115 649.379 413.625 641.097 413.538 632.816C413.49 627.847 413.512 622.868 413.601 617.885C413.698 612.379 413.734 606.867 414.096 601.357C414.803 590.609 415.852 579.862 416.412 569.103C417.342 551.302 419.674 533.528 424.789 515.993C429.337 500.394 438.068 486.302 447.154 472.478C450.507 467.377 455.34 462.963 460.03 458.554C466.067 452.877 471.806 446.965 478.984 442.545C485.752 438.375 493.328 435.746 500.521 432.402C511.261 427.411 522.412 426.469 533.601 425.053C544.719 423.646 555.733 423.509 566.274 426.651C574.704 429.165 583.154 431.617 591.594 434.107C595.019 435.12 597.061 437.458 598.534 440.317C596.738 441.528 596.712 443.385 596.371 445.051C595.81 447.801 594.685 450.292 592.299 452.125C589.764 454.07 590.535 455.693 591.358 458.039C593.562 464.31 599.615 467.815 603.031 473.297C605.462 477.204 605.685 481.015 606.285 485.052C606.815 488.652 606.549 492.519 609.961 495.04C610.482 500.438 609.529 505.906 609.498 511.34C609.438 522.073 610.231 532.728 610.069 543.441C609.945 551.934 610.673 560.373 609.657 568.943C608.972 574.723 610.546 580.389 610.432 586.23C610.368 589.55 610.502 592.993 610.478 596.347C610.404 609.62 609.652 622.938 609.644 636.206C609.637 651.244 610.696 666.23 610.224 681.28C609.964 689.655 609.32 698.121 608.472 706.556C607.603 715.205 608.774 723.874 608.761 732.557C608.747 743.343 609.748 754.033 608.907 764.912C608.099 775.369 608.163 785.84 608.274 796.278C608.393 807.841 608.323 819.364 607.392 831.003C606.734 839.212 607.101 847.474 606.469 855.746C606.26 858.518 605.448 860.457 602.757 862.134C593.988 867.597 585.537 873.547 576.605 878.748C571.234 881.874 565.818 884.859 560.958 888.681L560.948 888.676ZM549.182 470.937C550.31 473.493 552.468 475.924 552.138 479.408C551.488 486.24 551.083 493.073 550.504 499.905C549.997 505.89 548.984 511.895 548.9 517.853C548.704 531.959 548.59 546.065 548.736 560.159C548.895 575.517 547.376 591.003 547.561 606.362C547.8 626.564 546.438 646.825 546.336 667.03C546.279 678.151 546.355 689.243 546.752 700.337C547.069 709.331 546.054 718.536 545.555 727.638C545.078 736.284 545.264 745.025 545.451 753.709C545.774 768.826 544.246 784.093 544.447 799.229C544.66 815.117 543.531 830.992 542.377 846.896C541.516 858.739 541.047 870.575 540.135 882.418C539.926 885.122 541.105 885.778 543.422 885.437C547.856 884.788 552.162 883.43 556.517 882.364C559.616 881.605 560.684 880.244 560.907 877.768C561.336 873.092 561.948 868.398 562.025 863.74C562.222 852.276 561.618 840.832 562.319 829.366C563.407 811.643 563.311 794.006 563.608 776.333C563.882 760.123 564.737 743.888 564.593 727.681C564.387 704.308 564.395 680.923 565.167 657.488C565.511 647.076 566.579 636.577 565.963 626.277C565.134 612.267 565.421 598.239 566.004 584.164C566.41 574.379 566.092 564.628 566.876 554.816C567.928 541.645 566.813 528.589 567.004 515.452C567.196 501.937 568.062 488.397 567.347 474.917C567.047 469.209 564.452 465.433 559.494 463.17C554.561 460.922 548.692 460.943 543.366 459.566C542.185 459.259 540.805 458.999 539.89 460.404C535.75 466.78 530.476 472.564 527.104 479.322C523.505 486.535 519.702 493.66 518.48 501.603C515.434 521.365 516.175 541.056 515.158 560.767C514.283 577.792 514.719 594.796 512.854 611.86C512.629 613.928 513.542 615.713 513.505 617.671C513.176 635.528 512.868 653.386 512.391 671.248C512.042 684.427 511.138 697.622 511.508 710.772C511.721 718.418 510.994 726.209 511.125 733.758C511.276 742.369 510.29 751.036 510.91 759.688C511.761 771.647 510.199 783.908 509.698 796.04C509.291 805.937 508.981 815.829 508.533 825.726C507.998 837.639 508.135 849.546 506.621 861.468C505.704 868.686 505.674 875.837 505.833 882.993C505.927 887.216 507.227 888.086 511.981 887.797C513.409 887.713 514.89 887.237 516.206 887.22C521.029 887.15 522.159 884.785 522.584 880.837C523.648 870.987 523.458 861.193 523.921 851.374C524.302 843.232 525.954 835.141 526.723 827.039C527.925 814.379 527.486 801.748 527.546 789.11C527.595 778.411 528.634 767.654 528.923 756.933C529.315 742.421 527.855 728.058 528.482 713.499C529.078 699.744 527.911 686.033 528.686 672.284C529.682 654.619 529.728 637.036 529.852 619.43C529.93 608.251 531.002 597.015 531.222 585.822C531.38 577.592 530.207 569.392 530.834 561.179C531.758 549.035 532.687 536.911 532.663 524.796C532.658 521.199 532.714 517.559 532.463 514.028C531.517 500.793 532.314 487.602 535.926 474.475C536.738 471.522 539.111 468.452 542.574 467.318C545.746 466.279 547.43 468.663 549.187 470.942L549.182 470.937ZM530.309 458.616C525.229 457.06 518.773 458.159 513.399 460.984C501.883 467.038 492.413 475.522 484.026 484.701C474.813 494.781 469.752 507.246 465.554 519.371C460.196 534.845 460.586 550.937 460.197 566.782C459.946 577.068 460.235 587.323 459.673 597.631C459.088 608.438 458.86 619.233 458.376 630.036C457.375 652.306 456.247 674.585 455.281 696.856C454.485 715.346 453.627 733.84 453.366 752.314C453.171 766.439 452.25 780.604 451.626 794.752C451.037 808.07 450.285 821.397 449.848 834.712C449.395 848.453 448.62 862.187 447.212 875.942C446.619 881.742 446.561 887.554 445.999 893.359C445.723 896.208 446.885 897.121 449.763 896.759C453.59 896.281 457.421 895.837 461.253 895.402C467.263 894.718 468.047 893.889 468.277 888.412C468.763 877.027 469.092 865.642 469.94 854.254C470.53 846.389 470.528 838.545 471.403 830.639C472.224 823.182 472.216 815.537 472.232 808.014C472.252 799.065 472.878 790.085 472.667 781.159C472.511 774.371 473.748 767.567 473.811 760.795C473.853 756.02 473.803 751.225 473.926 746.47C474.25 734.008 474.825 721.528 475.659 709.035C476.688 693.601 477.651 678.132 477.294 662.704C477.026 651.247 477.708 639.679 478.649 628.166C479.19 621.537 478.788 615 479.075 608.409C479.536 597.892 479.906 587.374 479.974 576.879C480.053 563.737 479.106 550.589 479.796 537.489C480.748 519.451 483.455 501.219 497.103 485.801C501.952 480.326 506.745 474.778 512.736 470.24C518.224 466.082 524.007 462.308 530.309 458.62L530.309 458.616Z" fill="#6DC3BC"/>
<path d="M84.2862 859.3C82.1617 859.012 80.8841 857.711 79.7503 856.221C78.7178 854.858 77.5879 853.577 75.8171 852.946C69.1714 850.577 65.6431 845.099 61.1969 840.547C63.5709 839.993 63.6888 839.867 62.6431 839.042C59.6328 836.669 57.6974 833.561 55.7568 830.447C58.3459 826.055 63.0257 823.439 66.5182 819.803C70.4875 815.676 74.7715 811.807 78.8069 807.713C81.8476 804.623 85.5477 802.152 88.5334 798.872C95.1306 791.627 102.246 784.807 108.787 777.47C113.471 772.217 117.043 766.361 121.767 761.157C125.297 757.269 127.166 752.17 130.01 747.726C136.609 737.407 140.464 726.415 142.134 714.862C142.293 713.753 142.08 712.627 142.006 710.445C138.731 717.199 135.604 722.839 133.252 728.692C129.798 737.287 124.184 744.789 118.62 752.282C112.615 760.369 106.157 768.23 98.8512 775.398C92.7403 781.39 86.2639 787.084 79.7217 792.681C72.5289 798.836 65.1335 804.767 56.8615 809.705C51.1268 813.129 45.5111 816.244 38.5912 814.601C35.699 813.916 34.696 812.752 37.593 810.737C40.7358 808.549 40.9298 805.748 40.7272 802.765C40.3223 796.737 43.5871 791.864 46.9805 786.778C53.5308 776.964 64.2382 771.434 72.8974 763.813C80.2909 757.304 87.0709 750.201 92.9725 742.429C99.6805 733.6 106.998 725.138 113.473 716.181C120.697 706.181 127.393 695.869 134.038 685.551C135.452 683.358 137.47 681.798 139.086 679.863C143.567 674.497 142.463 668.635 142.969 662.888C143.873 652.601 145.72 642.291 143.926 632.1C142.142 621.958 137.876 613.378 130.27 605.817C122.603 598.197 114.35 591.529 103.955 587.656C88.5231 581.903 72.1278 579.708 54.9292 583.529C46.0925 585.492 37.7578 588.868 29.4109 592.603C19.9753 596.821 11.4711 602.252 2.75899 607.487C0.257376 608.991 -2.24878 610.392 -5.18912 611.025C-7.44544 611.512 -10.1541 613.577 -10.0535 609.248C-10.0332 608.352 -11.2264 608.364 -12.1397 608.471C-13.4356 608.623 -14.7472 608.863 -16.0268 608.827C-18.9376 608.738 -22.3089 608.021 -23.4606 606.071C-24.3041 604.641 -21.0437 602.39 -19.4382 600.654C-8.94323 589.32 4.57536 581.624 18.2133 574.463C31.9485 567.248 46.783 562.221 62.3226 561.488C77.4849 560.773 92.5989 561.395 106.639 566.331C111.936 568.193 116.626 571.098 120.668 574.907C123.711 577.779 127.646 579.828 130.982 582.454C135.789 586.238 140.417 590.215 145.553 594.466C146.374 588.944 144.722 584.271 144.004 579.531C141.737 564.539 138.088 549.645 141.132 534.13C143.903 520.004 146.536 505.849 151.895 492.043C155.557 482.61 160.206 473.609 166.477 465.539C171.545 459.013 176.508 452.37 181.805 445.956C187.252 439.36 192.2 432.426 197.464 425.697C201.639 420.359 206.088 415.192 210.182 409.809C224.152 391.441 237.482 372.71 247.411 352.318C250.242 346.501 251.318 340.133 252.582 333.891C255.004 321.94 256.681 309.99 255.438 298.067C254.682 290.844 252.742 283.945 250.052 277.191C245.668 266.186 239.339 256.281 232.735 246.481C230.333 242.914 230.684 242.198 235.257 240.324C235.528 240.214 235.87 240.191 236.075 240.023C243.651 233.719 251.007 236.771 258.367 238.988C262.459 240.218 266.433 241.767 270.613 242.721C284.311 245.847 298.349 245.712 312.529 242.843C315.596 242.22 318.855 241.158 321.445 239.485C329.176 234.477 338.266 231.948 345.765 226.609C354.053 220.712 361.123 213.678 367.975 206.425C375.53 198.429 383.359 190.59 393.398 185.29C403.962 179.715 415.49 177.002 427.142 174.885C435.268 173.408 443.346 172.042 451.601 172.025C465.653 171.992 479.184 174.079 490.366 181.137C501.504 188.16 510.216 197.478 514.93 209.881C517.889 217.668 520.737 225.46 522.767 233.528C523.645 237.024 523.803 240.709 523.211 244.472C522.498 249.001 522.457 253.509 521.086 258.078C518.374 267.109 514.131 275.54 508.713 283.479C505.14 288.715 502.019 294.267 497.557 299.042C497.171 298.763 496.764 298.582 496.795 298.48C498.499 292.774 495.637 288.545 492.524 284.378C484.432 273.547 478.651 261.448 472.062 249.791C465.888 238.869 457.458 229.941 445.103 224.685C431.094 218.731 416.666 217.672 401.235 223.655C387.663 228.912 374.79 235.22 363.644 244.35C359.193 247.995 354.991 251.864 350.119 255.08C347.243 256.979 347.044 268.957 349.579 270.653C354.902 274.227 355.14 274.625 350.341 279.417C341.388 288.355 332.853 297.62 323.515 306.261C314.341 314.751 305.832 323.866 297.48 333.103C290.39 340.942 282.792 348.443 276.027 356.52C269.144 364.738 260.868 372.114 256.337 381.861C258.801 378.918 262.614 377.213 264.429 373.631C265.852 370.828 268.967 369.056 271.187 366.804C274.412 363.531 277.633 360.063 281.428 357.146C285.35 354.129 288.857 350.561 292.156 346.939C294.916 343.905 298.148 341.188 301.161 338.583C309.379 331.473 316.846 323.676 325.647 317.044C336.348 308.984 346.872 300.694 357.67 292.731C359.574 291.327 361.659 290.49 364.063 290.13C370.293 289.205 375.552 286.127 380.594 282.591C382.052 281.567 383.568 280.354 385.935 280.217C384.65 283.933 379.699 283.954 378.583 287.452C383.417 284.726 388.48 282.747 393.534 280.695C397.239 279.189 400.483 277.176 404.739 276.419C408.307 275.789 411.655 272.516 415.576 271.433C419.136 270.454 423.678 268.666 425.626 272.255C428.488 277.526 434.37 281.437 434.401 287.889C434.425 293.668 432.032 299.448 428.39 304.28C425.508 308.104 423.593 312.432 420.131 315.961C418.224 317.909 416.871 320.117 413.828 320.822C411.775 321.3 411.611 323.302 411.124 324.792C409.879 328.62 407.104 330.723 403.045 331.592C399.283 332.395 396.236 334.773 392.655 336.111C380.142 340.782 367.589 345.376 355.65 351.476C343.935 357.461 333.107 364.527 322.936 372.677C315.976 378.257 309.041 383.9 302.167 389.553C295.37 395.144 289.718 401.972 283.748 408.401C279.834 412.606 276.448 417.227 272.459 421.364C267.464 426.538 263.007 432.078 258.825 437.746C251.094 448.209 243.626 458.837 236.453 469.613C230.335 478.804 225.768 488.629 221.526 498.621C216.096 511.399 210.916 524.188 207.365 537.427C204.83 546.876 204.904 556.397 204.081 565.875C202.725 581.467 201.873 597.068 201.037 612.659C200.012 631.836 199.324 651.005 198.285 670.182C197.745 680.083 195.559 689.897 193.654 699.738C191.779 709.433 189.182 718.949 185.851 728.364C180.231 744.258 173.678 759.924 164.059 774.316C157.421 784.247 149.736 793.667 141.96 803.004C136.554 809.494 130.845 815.818 124.917 821.738C117.109 829.533 110.01 838.026 100.988 844.845C96.9075 847.93 93.5764 851.896 89.9466 855.492C88.3008 857.122 86.6047 858.635 84.2657 859.32L84.2862 859.3ZM181.693 493.6C182.542 492.243 183.38 490.88 184.245 489.528C189.738 480.958 195.195 472.374 200.744 463.839C203.819 459.105 206.996 454.42 210.219 449.765C214.645 443.376 219.141 437.031 223.663 430.696C224.008 430.213 224.459 429.823 224.074 429.346C223.714 428.898 223.072 428.845 222.555 429.235C221.644 429.923 220.722 430.621 219.942 431.426C213.912 437.627 210.738 445.39 205.622 452.154C198.457 461.625 192.262 471.727 186.21 481.816C184.048 485.425 180.781 488.946 181.698 493.6L181.693 493.6Z" fill="#6DC3BC"/>
<path d="M137.947 940.359C137.522 939.789 136.912 939.495 136.146 939.631C128.577 940.971 121.008 942.33 113.44 943.674C112.756 943.68 112.068 943.696 111.38 943.706L111.34 943.425L111.186 943.691C109.267 943.147 107.324 943.087 105.247 943.415C100.813 944.118 96.3537 944.631 91.9044 945.222C91.3264 941.893 87.9542 942.262 85.5476 941.352C89.8621 932.916 97.4526 926.758 103.931 919.852C112.255 910.969 119.808 901.558 127.497 892.249C136.583 881.252 145.278 869.98 153.825 858.64C159.912 850.564 165.354 842.077 171.334 833.951C182.246 819.124 190.462 803.24 197.864 786.993C204.419 772.602 209.946 757.881 211.882 742.563C213.488 729.856 216.174 717.238 217.596 704.52C218.717 694.515 220.022 684.497 221.235 674.493C222.716 662.251 222.85 649.968 223.755 637.703C224.284 630.536 225.232 623.362 225.889 616.19C227.816 595.031 229.739 573.866 231.575 552.706C233.254 533.339 237.942 514.56 246.843 496.353C252.95 483.87 258.13 470.994 265.605 459.095C271.068 450.399 276.908 441.808 284.354 434.136C288.544 429.821 292.166 424.891 296.594 420.791C302.226 415.572 307.229 409.845 312.669 404.494C324.778 392.578 338.689 383.042 353.466 374.651C362.248 369.663 371.329 365.059 380.597 360.777C389.721 356.562 399.136 353.347 408.584 350.471C421.174 346.639 433.794 342.816 446.879 340.64C457.147 338.932 467.181 338.882 477.318 338.88C496.325 338.879 514.64 341.584 531.631 348.471C544.135 353.538 555.577 359.967 564.418 369.984C568.517 374.631 572.519 379.317 576.392 384.138C580.757 389.573 581.771 396.205 583.545 402.571C584.93 407.542 585.962 412.624 587.229 417.634C587.658 419.333 587.841 421.288 586.845 422.591C585.858 423.885 583.87 422.914 582.409 422.6C574.194 420.858 566.202 418.578 558.608 415.351C555.983 414.236 554.687 412.668 555.549 409.759C556.287 407.267 554.884 405.601 553.196 403.885C545.702 396.286 535.231 393.251 525.29 389.438C514.727 385.385 503.021 384.403 492.149 381.163C480.08 377.566 467.395 377.389 454.649 378.341C444.35 379.108 434.168 380.961 424.235 384.765C415.692 388.033 407.437 391.788 399.155 395.615C388.635 400.482 381.89 408.622 376.065 417.374C365.453 433.313 354.916 449.33 345.356 465.769C340.265 474.525 337.117 484.178 333.394 493.509C328.414 505.989 325.881 518.705 324.492 531.806C323.276 543.283 322.039 554.771 321.216 566.251C320.082 582.077 317.45 597.842 315.593 613.636C314.303 624.594 314.355 635.488 313.611 646.411C312.978 655.652 311.606 664.899 310.53 674.142C308.634 690.367 306.811 706.592 304.773 722.811C303.332 734.264 303.253 745.748 301.078 757.167C299.524 765.341 297.5 773.469 295.772 781.623C292.814 795.583 289.448 809.487 284.039 822.988C276.583 841.605 269.84 860.465 259.768 878.258C255.123 886.464 250.636 894.729 245.513 902.738C242.181 907.95 238.892 913.371 238.638 919.662C238.543 922.051 238.783 923.827 241.087 924.906C234.417 928.782 227.061 929.429 219.741 929.931C214.126 930.317 208.521 930.489 202.976 931.908C202.877 928.742 198.939 930.746 197.879 928.874C197.887 927.4 198.32 924.702 195.804 926.041C191.872 928.133 187.148 928.683 183.841 931.908C181.477 932.467 179.038 932.807 176.765 933.623C171.707 935.437 166.479 935.767 161.3 936.519C163.286 934.183 160.833 934.257 159.637 933.901C158.323 933.511 156.859 934.715 155.465 934.135C159.399 930.744 162.313 926.601 165.725 922.819C171.974 915.892 178.507 909.181 184.791 902.283C192.03 894.334 199.187 886.322 206.278 878.261C211.383 872.457 216.321 866.527 221.32 860.65C227.777 853.056 232.54 844.589 237.771 836.314C245.889 823.468 252.29 810.11 257.604 796.294C262.296 784.108 265.949 771.704 269.037 759.209C271.885 747.692 274.479 736.105 275.385 724.432C276.862 705.446 278.375 686.475 280.954 667.501C282.549 655.783 282.38 644.036 283.46 632.286C283.839 628.172 285.133 623.918 284.477 619.852C283.565 614.199 284.821 608.471 286.059 603.092C289.403 588.582 289.229 574.052 290.814 559.556C291.878 549.823 292.152 539.945 293.842 530.287C295.775 519.284 298.386 508.279 301.669 497.366C307.908 476.633 319.663 458.679 335.207 442.54C342.674 434.786 351.257 427.945 357.419 419.147C358.648 417.389 361.448 415.388 359.836 413.759C358.477 412.385 355.911 414.489 354.099 415.696C347.339 420.215 341.384 425.621 335.069 430.608C327.587 436.52 320.826 443.095 314.278 449.68C304.869 459.144 298.285 470.539 292.459 482.126C285.153 496.653 280.582 511.724 278.099 527.291C276.652 536.368 274.068 545.361 272.594 554.432C270.931 564.696 269.599 575 269.771 585.317C269.958 596.725 266.101 608.071 266.333 619.494C266.341 619.887 266.191 620.288 266.138 620.69C264.717 631.314 262.884 641.93 261.988 652.556C261.039 663.769 261.802 674.962 260.69 686.198C259.771 695.515 257.405 704.708 256.965 714.134C256.263 729.367 253.797 744.614 249.726 759.688C244.807 777.898 239.689 795.99 231.372 813.493C223.035 831.035 212.542 847.493 200.916 863.334C193.302 873.709 186.373 884.593 176.528 893.686C170.306 899.435 165.363 906.393 160.029 912.932C153.453 920.996 147.064 929.192 140.595 937.329C140.332 938.782 138.987 939.453 137.957 940.354L137.947 940.359Z" fill="#F18473"/>
<path d="M248.412 921.539C255.05 916.156 259.391 909.243 263.575 902.339C269.997 891.748 277.432 881.59 282.419 870.371C286.509 861.173 290.237 851.857 294.092 842.585C299.828 828.801 306.114 815.155 309.875 800.856C313.839 785.767 318.944 770.874 321.131 755.485C324.023 735.145 325.38 714.791 327.191 694.446C327.898 686.475 328.825 678.447 329.206 670.431C329.49 664.436 330.978 658.156 332.032 652.01C333.634 642.663 333.701 633.361 334.247 624.041C335.024 610.864 336.622 597.707 338.113 584.543C338.799 578.478 338.589 572.276 339.779 566.373C342.653 552.122 341.783 537.918 343.775 523.691C345.585 510.738 347.35 497.848 351.739 485.234C355.651 473.99 362.295 463.866 369.229 453.84C372.636 448.91 375.912 443.92 379.909 439.356C386.221 432.158 392.329 424.775 399.823 418.539C403.347 415.606 406.476 412.308 410.528 409.848C420.396 403.858 430.881 399.81 442.233 397.585C449.354 396.19 456.496 394.548 463.637 393.982C470.044 393.474 476.521 394.092 482.87 394.719C493.261 395.741 503.291 398.178 513.375 400.309C524.008 402.554 534.61 405.018 544.359 409.479C546.205 410.323 548.142 411.327 547.825 413.352C547.466 415.658 544.99 415.14 543.204 415.45C529.287 417.878 515.542 417.589 501.678 416.939C487.497 416.279 473.118 416.436 458.95 420.827C440.542 426.527 423.929 435.146 410.343 448.543C402.304 456.468 396.496 465.753 390.952 475.209C389.187 478.219 388.334 481.153 387.914 484.321C387.802 485.154 387.751 486.007 388.713 486.318C389.609 486.609 390.346 486.065 391.038 485.487C396.073 481.263 399.535 475.829 404.266 471.313C407.342 468.373 410.448 465.36 413.549 462.454C419.069 457.283 424.285 451.689 430.282 447.098C440.016 439.642 450.569 433.321 462.246 428.568C471 425.005 479.906 424.376 488.827 422.869C491.48 422.419 493.881 423.445 495.86 423.379C483.615 426.762 472.729 433.115 463.256 442.307C448.702 456.43 436.935 472.794 420.239 485.276C413.148 490.579 408.336 498.503 402.776 505.457C391.465 519.594 388.948 535.752 386.666 551.883C385.636 559.153 386.161 566.506 385.931 573.825C385.87 575.788 386.032 577.805 384.411 579.551C384.072 579.918 383.829 580.517 383.847 580.978C384.338 595.34 381.525 609.703 380.507 624.061C379.993 631.287 379.8 638.489 378.755 645.736C377.355 655.438 376 665.194 375.589 674.897C374.967 689.621 373.019 704.304 371.27 718.983C368.612 741.225 368.095 763.585 362.583 785.675C360.038 795.88 357.391 806.031 353.262 816.043C349.029 826.307 344.074 836.227 338.793 846.033C333.44 855.971 327.294 865.593 320.593 874.917C316.308 880.876 312.622 887.211 308.001 892.934C301.147 901.428 295.085 910.528 286.53 917.81C283.144 920.69 278.657 920.597 274.659 921.656C273 922.098 271.355 922.622 269.705 923.093C267.483 922.072 265.126 923.164 262.832 923.2C263.245 921.316 261.666 921.904 260.708 921.869C256.615 921.725 252.511 921.644 248.412 921.534L248.412 921.539Z" fill="#F8C76B"/>
<path d="M322.352 144.23C319.102 150.136 312.969 152.749 307.132 155.436C304.484 156.653 301.344 157.382 298.241 157.006C295.016 156.619 295.507 158.193 296.604 159.745C300.424 165.143 306.638 166.292 313.146 165.795C323.654 164.991 332.368 160.361 340.558 153.586C347.719 147.663 353.324 141.048 357.4 133.358C360.729 127.069 362.631 120.472 361.416 113.485C359.934 104.969 353.369 100.899 346.041 97.4936C338.372 93.9265 330.116 91.4905 322.091 88.6147C314.84 86.0147 307.737 83.304 300.089 81.5986C293.805 80.1965 287.534 81.0197 281.588 82.9645C271.413 86.2965 261.091 89.4143 251.439 94.1599C233.928 102.774 216.342 111.169 201.479 124.021C191.222 132.888 182.601 142.88 173.984 152.945C171.283 152.75 169.784 154.477 168.25 156.204C167.537 157.01 166.562 157.334 165.513 157.004C164.882 156.806 164.931 156.322 165.02 155.736C165.714 151.153 167.87 146.623 166.678 141.962C166.468 141.152 167.028 140.399 167.684 139.806C170.554 137.219 169.166 136.367 166.233 135.769C163.096 135.131 162.256 132.94 164.495 131.014C168.358 127.7 171.146 123.318 176.089 121.043C177.188 120.535 178.581 119.418 178.78 118.46C179.765 113.685 184.134 111.082 187.034 107.564C188.071 106.305 188.867 105.403 187.374 104.255C187.87 103.08 188.544 102.002 189.65 101.238C195.602 97.1115 200.922 92.1382 206.834 88.1377C220.57 78.8289 233.675 68.5663 249.531 62.1876C260.385 57.822 271.503 55.5521 282.79 53.9958C291.459 52.7982 300.221 52.3137 308.926 51.955C315.225 51.6943 321.608 50.8185 327.805 52.317C334.999 54.0587 341.668 56.8785 348.538 59.2776C349.734 59.6963 351.489 60.4527 352.435 59.0133C353.201 57.8347 351.831 56.6345 350.885 56.159C347.402 54.4089 344.624 51.6302 340.54 50.73C338.055 50.1829 336.099 48.8098 335.174 46.4825C338.427 46.5006 341.743 46.2282 344.922 46.6047C350.675 47.2863 356.761 43.0299 362.365 46.6097C363.132 47.0987 365.181 46.2909 366.474 45.726C369.142 44.5629 371.755 43.254 374.286 41.8379C377.959 39.7884 381.814 40.4934 384.344 42.2333C387.574 44.457 390.741 47.0343 393.002 50.4016C396.89 56.1873 401.214 61.7088 405.353 67.3408C416.712 86.7177 419.825 107.217 410.448 129.402C404.976 142.354 397.348 154.295 388.053 165.384C382.366 172.168 375.953 178.367 369.504 184.579C362.948 190.889 355.365 195.699 347.465 199.819C339.027 204.218 329.81 206.809 320.067 207.661C312.359 208.336 305.232 207.283 298.185 205.581C284.834 202.36 275.708 195.018 271.443 182.535C269.125 175.75 269.015 168.997 269.233 161.852C269.451 154.795 270.886 147.997 273.467 141.461C275.137 137.239 277.655 132.793 281.802 129.752C283.542 128.477 284.053 126.555 285.666 125.328C290.679 121.516 296.296 119.017 302.517 117.888C307.529 116.981 312.209 115.383 316.143 112.084C316.648 112.828 317.098 113.626 317.706 114.289C321.426 118.348 322.781 122.262 319.836 128.199C316.505 134.909 314.196 142.163 312.991 149.68C317.107 149.466 319.278 146.099 322.342 144.211L322.352 144.23Z" fill="#F8C76B"/>
<path d="M156.772 31.9685C163.467 27.2016 171.438 25.1711 178.834 21.8867C185.877 18.7603 193.139 16.6192 200.542 14.8764C209.435 12.7832 218.314 10.6463 227.277 8.83951C240.431 6.18829 253.627 5.2001 266.832 4.26529C278.442 3.44279 290.058 3.19721 301.46 4.73445C314.401 6.47901 327.201 8.7318 339.628 12.1945C340.956 12.5655 342.14 13.3089 343.386 13.8782C341.85 15.9542 342.205 18.0892 343.23 19.9177C345.714 24.3673 344.882 28.1488 340.382 31.5269C339.352 32.2968 338.092 33.3806 338.606 34.5808C340.936 40.0234 336.726 42.579 332.708 45.2811C327.586 45.8003 322.901 43.9127 317.884 43.9284C300.742 43.9929 283.551 44.5128 266.455 47.37C255.452 49.209 244.169 50.8769 234.965 58.5143C232.48 60.5753 228.927 61.4863 226.351 63.4789C214.025 73.0235 201.862 82.7484 189.658 92.4294C181.044 99.2604 172.881 106.559 164.064 113.205C156.988 118.542 150.712 124.892 143.707 130.258C137.747 134.82 133.854 140.708 128.723 145.731C122.366 151.949 117.262 159.324 112.296 166.631C107.494 173.691 102.784 180.879 100.222 188.728C96.2482 200.888 95.1181 213.394 93.9577 225.822C93.2854 233.032 93.2748 240.415 95.5422 247.103C99.7759 259.581 106.418 270.86 116.021 280.425C120.174 284.559 123.912 289.054 127.732 293.468C130.118 296.225 129.778 300.479 126.609 301.882C120.205 304.721 113.79 308.539 106.417 305.885C104.865 305.329 103.143 305.087 101.461 304.854C85.6574 302.682 73.7734 295.198 64.7061 283.625C57.3248 274.198 52.7591 263.634 49.2838 252.304C47.4209 246.224 46.6853 240.064 46.8212 233.971C47.0646 223.234 50.5347 212.612 53.6117 202.086C55.0931 197.013 57.3641 192.057 59.6093 187.159C63.0364 179.678 66.6163 172.252 71.6255 165.415C75.1448 160.611 78.9388 155.93 82.2088 151.028C87.0883 143.701 92.7145 136.863 98.8529 130.512C107.438 121.635 117.123 113.681 126.52 105.497C138.867 94.745 152.724 85.9167 166.615 77.1613C184.457 65.9216 203.117 56.01 222.04 46.5554C224.642 45.2513 227.119 43.6896 229.585 42.152C230.511 41.5754 231.896 40.9045 231.419 39.6656C231.032 38.6696 229.683 39.1081 228.725 39.0979C225.064 39.0582 221.736 40.6346 218.254 41.5217C205.658 44.7287 193.163 48.1059 181.676 54.4798C180.694 55.027 179.695 55.8553 178.527 55.0053C179.59 52.6842 182.053 51.7284 183.953 50.2216C185.331 49.1288 186.984 47.8631 185.786 46.1645C183.797 43.3514 185.575 42.7117 188.188 42.3239C189.484 42.1323 191.541 41.8044 190.386 40.3582C188.584 38.1036 187.504 34.2775 182.722 35.8652C181.558 36.2514 180.385 36.2885 179.615 35.3001C178.719 34.1462 179.348 33.0638 180.149 31.992C180.745 31.2051 181.417 30.4284 181.809 29.5628C182.991 26.9661 181.931 25.9858 178.932 26.2697C174.606 26.677 170.276 26.7547 168.754 31.8752C168.598 32.3931 167.728 32.9651 167.09 33.17C159.116 35.7289 151.86 39.6783 144.759 43.9533C144.672 44.0061 144.352 43.7086 143.565 43.2194C147.392 40.7635 151.056 38.4812 154.628 36.0869C156.102 35.1013 158.279 34.2166 156.766 31.9879L156.772 31.9685Z" fill="#6DC3BC"/>
<path d="M156.772 31.9685C158.279 34.1972 156.102 35.0819 154.633 36.0675C151.056 38.4618 147.397 40.7442 143.57 43.2001C144.357 43.6941 144.672 43.9867 144.764 43.9339C151.86 39.6589 159.117 35.7095 167.095 33.1507C167.739 32.9458 168.608 32.3737 168.759 31.8559C170.277 26.7353 174.611 26.6577 178.937 26.2503C181.941 25.9665 182.997 26.9467 181.814 29.5434C181.422 30.409 180.745 31.1809 180.154 31.9726C179.348 33.0395 178.72 34.1268 179.621 35.2807C180.39 36.2691 181.563 36.232 182.728 35.8458C187.514 34.2582 188.589 38.0842 190.391 40.3388C191.551 41.7899 189.489 42.1178 188.193 42.3045C185.581 42.6923 183.803 43.3272 185.791 46.1451C186.99 47.8437 185.336 49.1094 183.958 50.2022C182.058 51.709 179.6 52.6649 178.537 54.9811C177.228 55.6282 175.914 56.2754 174.6 56.9225C172.317 55.79 170.454 57.0546 168.597 58.2319C159.024 64.3111 149.47 70.4195 139.882 76.4646C138.628 77.2527 137.54 78.5701 135.2 77.5487C143.106 72.4783 151.012 67.4079 158.917 62.3326C155.355 62.0268 152.98 63.7006 150.448 65.1069C146.536 67.2812 142.722 69.9456 139.404 72.5159C135.344 75.6589 127.361 76.2883 127.967 83.6846C128.005 84.1259 127.069 84.717 126.561 85.2183C121.065 90.6706 113.758 93.5919 107.285 97.6814C103.141 100.3 98.2563 102.154 95.3889 106.172C93.0867 109.402 90.714 112.467 87.4272 114.892C86.1063 115.869 84.6778 116.947 84.9952 118.548C85.6796 121.999 83.341 124.444 81.3996 126.978C80.2593 128.47 79.0486 129.82 79.0637 131.687C77.9595 133.106 77.8206 135.161 75.6548 135.876C73.0031 134.125 71.7202 134.685 72.0491 137.877C72.141 138.775 72.3451 139.658 72.4982 140.546C72.2577 140.7 72.0173 140.849 71.7768 141.002C69.4847 141.513 67.975 142.518 68.7161 144.936L68.7263 144.927C65.6495 145.346 62.8009 145.989 59.8859 147.568C53.7746 150.879 49.4893 154.961 48.8508 161.594C48.3908 166.362 48.7532 167.212 52.366 169.419C52.1357 169.582 51.9054 169.746 51.675 169.91C49.6741 170.315 49.3866 171.574 49.6432 173.103C49.4635 173.334 49.2281 173.483 48.9321 173.55C47.5561 174.342 47.1822 175.557 47.083 176.889C42.8118 185.79 39.0701 194.811 36.2903 204.151C31.2607 221.062 26.6391 237.935 29.4237 255.199C28.7559 257.018 28.282 258.79 30.2789 260.033L30.9148 261.195C29.4638 261.744 28.4312 261.307 27.5752 260.274C26.4104 258.862 25.3857 257.014 22.8145 258.192C20.0746 259.447 17.3118 261.167 17.397 264.169C17.5209 268.479 14.4965 273.223 18.2427 277.107C18.5621 277.439 18.6449 278.142 18.53 278.626C17.1881 284.301 19.7439 289.531 19.4227 295.036C19.2422 298.143 21.6352 301.491 18.994 304.264C15.7116 307.712 14.7064 310.61 18.1398 313.911C18.6723 314.423 19.2171 315.474 18.9793 316.049C17.124 320.533 20.3208 322.368 23.2711 324.518C24.2004 325.197 24.8267 326.267 25.8989 326.918C27.4284 327.847 27.4477 328.953 25.8557 330.098C25.4905 329.751 25.1253 329.41 24.7601 329.064C24.0815 328.231 23.0735 327.964 21.9882 327.832C21.3345 327.12 20.6807 326.409 20.0269 325.697C19.308 324.782 18.2641 324.548 17.0603 324.643C15.117 322.941 13.1686 321.243 11.2253 319.54C12.2857 317.718 11.0007 317.74 9.66456 317.801C6.7784 314.197 3.43677 310.897 0.560449 307.356C-3.20713 302.72 -6.01147 297.241 -8.3467 291.755C-13.3242 280.068 -15.0391 267.571 -15.7888 254.792C-16.7205 238.969 -14.7269 223.399 -9.23656 208.004C-4.82365 195.637 -0.772453 183.22 6.67975 171.681C9.87868 166.729 12.9779 161.37 14.9416 155.758C15.3197 154.684 15.962 153.795 17.1425 153.312C18.4476 152.428 18.9642 151.218 19.0484 149.828L19.1979 149.528C19.1979 149.528 19.5448 149.506 19.5499 149.506C21.201 148.734 21.6571 147.409 21.7165 145.901C21.9418 145.723 22.1671 145.545 22.3874 145.367C23.9678 144.484 25.0195 143.311 25.0445 141.571C25.2205 141.092 25.4269 140.647 26.0948 140.651C29.3136 138.546 31.2823 135.682 32.3719 132.295C32.511 132.043 32.7259 131.904 33.0218 131.876C36.2429 129.359 39.2505 126.709 40.1038 122.72L40.0576 122.782C40.5199 122.169 40.9822 121.556 41.4394 120.943C42.3903 119.557 43.2652 118.107 45.0078 117.385C47.1595 116.462 48.5235 115.063 48.4393 112.799C48.9358 112.438 49.4273 112.082 49.9239 111.721C51.0167 111.412 51.5813 110.746 51.6125 109.709C57.1218 102.807 62.6463 95.9203 69.8359 90.3417C72.3169 88.8672 75.4224 87.881 75.3295 84.4192C76.1075 83.8757 76.8805 83.3322 77.6585 82.7887C82.1134 81.1847 85.3618 78.3426 87.5912 74.4476C89.7814 73.02 91.9665 71.5924 94.1566 70.1648C104.958 63.2344 115.76 56.304 126.562 49.3784C131.71 46.1057 136.862 42.8379 142.015 39.5652C147.647 40.8134 150.545 36.7962 153.932 33.7173C154.879 33.136 155.825 32.5546 156.777 31.9734L156.772 31.9685Z" fill="#6DC3BC"/>
<path d="M66.3119 617.876C81.5639 618.446 91.0425 630.313 93.4554 642.896C96.3688 658.101 89.5959 671.244 81.2678 684.437C71.6124 699.727 56.1258 708.328 40.5144 716.463C23.7421 725.207 7.47374 723.119 -6.74354 713.451C-19.3506 704.878 -21.024 693.161 -15.0435 678.544C-12.6399 672.663 -10.1344 666.806 -7.66974 660.949C-6.96559 660.851 -6.84703 660.619 -7.43128 660.242C-7.07106 659.648 -6.71085 659.054 -6.35579 658.469C-2.39001 655.898 0.81593 652.435 3.74091 649.067C7.2509 645.024 10.9364 641.506 15.597 638.691C20.6974 635.617 25.7323 632.431 30.6202 629.06C37.9548 624.001 46.1321 621.414 54.773 619.814C56.7584 619.447 59.2657 619.684 60.5073 617.369C61.0781 617.415 61.6489 617.457 62.2095 617.509C62.2565 618.227 62.5062 618.252 62.9277 617.634C63.8992 618.061 64.9077 618.237 65.9958 617.864C66.0204 618.034 66.0602 618.199 66.1001 618.364C66.1724 618.2 66.2447 618.036 66.317 617.866L66.3119 617.876ZM31.1906 645.657C25.3809 649.745 18.3777 653.9 15.2571 661.27C11.7335 669.584 7.29832 677.709 9.38336 686.922C12.1253 699.027 28.0642 701.676 36.794 696.93C44.7823 692.587 52.126 687.722 58.1895 681.09C63.3707 675.423 67.3808 669.477 69.8727 662.384C73.6962 651.488 63.8423 638.354 51.9439 638.011C44.3227 637.79 38.0921 641.463 31.1957 645.662L31.1906 645.657Z" fill="#F8C76B"/>
<path d="M25.8557 330.093C27.4477 328.948 27.4284 327.842 25.8989 326.913C24.8318 326.262 24.2055 325.187 23.2711 324.513C20.3207 322.368 17.1239 320.533 18.9793 316.044C19.2171 315.469 18.6774 314.419 18.1398 313.907C14.7063 310.61 15.7116 307.707 18.994 304.259C21.6352 301.487 19.2422 298.138 19.4227 295.031C19.7439 289.531 17.1881 284.296 18.53 278.621C18.6449 278.132 18.5621 277.429 18.2427 277.102C14.4914 273.218 17.5209 268.474 17.397 264.164C17.3118 261.163 20.0746 259.447 22.8145 258.188C25.3857 257.009 26.4104 258.857 27.5752 260.27C28.426 261.307 29.4637 261.744 30.9148 261.19C32.6085 264.68 33.832 268.386 35.2039 271.976C39.6262 283.553 47.8097 292.683 57.0451 300.612C64.7531 307.229 74.1412 312.449 84.7563 315.257C90.1071 316.673 95.5626 318.512 101.317 316.963C107.169 315.391 108.726 315.914 109.45 321.439C102.862 329.838 92.809 334.126 84.2453 340.181C82.7097 341.264 81.0728 342.219 79.4917 343.224C65.2682 347.488 52.3349 345.302 40.0862 339.208C34.9356 336.644 29.5585 334.457 25.8557 330.093Z" fill="#6DC3BC"/>
<path d="M187.364 104.265C188.867 105.407 188.071 106.31 187.034 107.569C184.139 111.087 179.77 113.69 178.78 118.465C178.581 119.419 177.188 120.54 176.089 121.048C171.146 123.323 168.358 127.705 164.495 131.018C162.251 132.945 163.091 135.136 166.233 135.774C169.171 136.367 170.554 137.223 167.684 139.811C167.028 140.403 166.473 141.157 166.678 141.967C167.87 146.628 165.714 151.158 165.02 155.74C164.93 156.327 164.877 156.811 165.513 157.008C166.561 157.334 167.537 157.015 168.25 156.209C169.784 154.482 171.283 152.76 173.984 152.95C172.239 154.99 171.821 157.81 169.253 159.347C165.264 162.252 162.802 165.904 162.251 170.491L162.282 170.511C159.882 172.926 158.121 176.053 153.822 176.121C152.752 176.14 151.228 177.75 152.63 178.82C154.813 180.49 154.548 181.274 151.846 182.141C150.656 182.522 150.252 183.645 149.981 184.753C147.393 195.433 143.311 205.916 140.978 216.524C139.252 224.368 134.882 227.18 127.947 229.245C121.961 231.025 118.608 234.356 119.292 240.594C119.709 244.407 118.172 248.504 120.844 252.121C118.789 252.279 118.735 250.912 117.974 250.302C116.051 246.776 116.68 242.659 115.809 238.941C113.05 227.15 113.075 215.244 115.167 203.093C117.57 189.13 122.08 175.78 130.378 163.377C134.558 157.127 139.485 151.434 144.447 145.688C149.553 139.773 154.659 133.916 160.085 128.226C162.798 125.381 166.037 123.363 168.815 120.755C174.837 115.103 180.794 109.386 187.359 104.26L187.364 104.265Z" fill="#F48574"/>
<path d="M332.703 45.2762C336.72 42.5789 340.931 40.0185 338.6 34.5759C338.087 33.3757 339.352 32.2968 340.376 31.522C344.877 28.1439 345.714 24.3624 343.225 19.9128C342.2 18.0795 341.845 15.9493 343.381 13.8733C355.059 18.1365 365.175 24.4853 375.094 31.4002C387.034 39.7274 396.022 50.0839 403.359 61.9486C404.405 63.6366 405.323 65.3433 405.358 67.3699C401.204 61.7136 396.88 56.1969 392.991 50.4064C390.726 47.0342 387.559 44.4618 384.333 42.2381C381.804 40.4933 377.943 39.7931 374.276 41.8427C371.739 43.2587 369.127 44.5676 366.464 45.7308C365.165 46.2956 363.121 47.1084 362.354 46.6145C356.745 43.0346 350.664 47.2911 344.912 46.6094C341.737 46.233 338.417 46.5054 335.164 46.4873C334.34 46.0852 333.522 45.6782 332.703 45.2762Z" fill="#6DC3BC"/>
<path d="M609.956 495.049C606.544 492.529 606.81 488.662 606.279 485.062C605.68 481.025 605.456 477.213 603.026 473.307C599.615 467.824 593.562 464.325 591.353 458.049C590.525 455.698 589.759 454.079 592.294 452.135C594.68 450.301 595.81 447.811 596.366 445.06C596.707 443.395 596.732 441.543 598.529 440.326C607.595 450.291 609.213 462.729 609.693 475.506C609.937 482.004 609.875 488.533 609.956 495.049Z" fill="#6DC3BC"/>
<path d="M322.352 144.23C319.288 146.119 317.117 149.49 313.001 149.7C314.206 142.178 316.51 134.929 319.846 128.219C322.796 122.282 321.436 118.367 317.716 114.308C317.103 113.641 316.658 112.843 316.153 112.103C318.527 110.589 319.381 112.8 320.856 113.453C327.936 116.576 331.182 121.577 330.031 128.571C329.092 134.296 327.047 139.792 322.352 144.235L322.352 144.23Z" fill="#F8C76B"/>
<path d="M60.5022 617.378C59.2605 619.694 56.7533 619.457 54.7679 619.824C46.127 621.424 37.9496 624.011 30.6151 629.07C25.7322 632.441 20.6923 635.627 15.5918 638.701C10.9262 641.516 7.2458 645.029 3.73578 649.077C0.810802 652.445 -2.39517 655.912 -6.36092 658.479C-5.78768 654.425 -2.34096 651.671 0.132579 648.8C6.81937 641.032 14.4811 633.992 23.7691 628.804C35.2308 622.401 47.1087 617.27 60.5022 617.383L60.5022 617.378Z" fill="#6DC3BC"/>
<path d="M126.562 49.3784C115.76 56.3088 104.958 63.2392 94.1566 70.1648C95.3108 67.9994 97.2617 66.5074 99.3391 65.1761C106.641 60.495 113.988 55.8675 121.295 51.1961C122.922 50.1532 124.634 49.4646 126.562 49.3784Z" fill="#6DC3BC"/>
<path d="M153.932 33.7125C150.545 36.7962 147.647 40.8135 142.015 39.5605C144.675 37.8689 147.321 36.1529 150.002 34.4954C151.209 33.7507 152.448 32.8607 153.927 33.7125L153.932 33.7125Z" fill="#6DC3BC"/>
<path d="M87.5912 74.4525C85.3669 78.3475 82.1134 81.1896 77.6584 82.7936C79.3352 78.3333 84.0842 77.0363 87.5912 74.4525Z" fill="#6DC3BC"/>
<path d="M40.1089 122.724C39.2504 126.719 36.2479 129.369 33.0268 131.881C34.0123 127.97 36.7608 125.159 40.1089 122.724Z" fill="#6DC3BC"/>
<path d="M162.251 170.487C162.807 165.899 165.265 162.247 169.253 159.342C167.466 163.326 165.065 167.007 162.251 170.487Z" fill="#F18473"/>
<path d="M32.3719 132.299C31.2823 135.687 29.3136 138.551 26.0948 140.656C27.0675 137.195 29.1632 134.415 32.3719 132.299Z" fill="#6DC3BC"/>
<path d="M75.3295 84.4192C75.4224 87.8811 72.3169 88.8673 69.8359 90.3417C70.5146 87.4756 72.8535 85.8937 75.3295 84.4192Z" fill="#6DC3BC"/>
<path d="M48.4393 112.799C48.5235 115.063 47.1595 116.462 45.0078 117.385C44.7914 115.038 46.5214 113.86 48.4393 112.799Z" fill="#6DC3BC"/>
<path d="M19.0483 149.832C18.9641 151.223 18.4475 152.432 17.1424 153.317C16.7129 151.715 17.3363 150.55 19.0483 149.832Z" fill="#6DC3BC"/>
<path d="M25.0445 141.576C25.0195 143.321 23.9626 144.493 22.3873 145.372C22.1379 143.475 23.459 142.45 25.0445 141.576Z" fill="#6DC3BC"/>
<path d="M21.7113 145.906C21.6519 147.413 21.1959 148.739 19.5447 149.51C19.3396 147.88 19.8872 146.599 21.7113 145.906Z" fill="#6DC3BC"/>
<path d="M51.6125 109.709C51.5863 110.746 51.0167 111.412 49.9239 111.721C49.9145 110.659 50.0829 109.72 51.6125 109.709Z" fill="#6DC3BC"/>
<path d="M9.66455 317.801C11.0007 317.74 12.2857 317.723 11.2252 319.54C10.7033 318.96 10.1865 318.38 9.66455 317.801Z" fill="#6DC3BC"/>
<path d="M21.9883 327.827C23.0735 327.959 24.0816 328.226 24.7601 329.059C23.1652 329.811 22.5999 328.775 21.9883 327.827Z" fill="#6DC3BC"/>
<path d="M66.3119 617.876C66.2396 618.04 66.1673 618.205 66.095 618.374C66.0551 618.209 66.0152 618.044 65.9907 617.874C66.006 617.869 66.3119 617.876 66.3119 617.876Z" fill="#6DC3BC"/>
<path d="M17.0603 324.643C18.2641 324.543 19.308 324.782 20.0269 325.697C18.6064 326.242 17.6347 325.858 17.0603 324.643Z" fill="#6DC3BC"/>
<path d="M62.9175 617.644C62.4959 618.262 62.2514 618.236 62.1993 617.519C62.4438 617.559 62.6781 617.604 62.9175 617.644Z" fill="#6DC3BC"/>
<path d="M41.4444 120.943C40.9822 121.556 40.5199 122.169 40.0627 122.782C40.1642 121.949 40.5706 121.307 41.4444 120.943Z" fill="#6DC3BC"/>
<path d="M136.455 290.748C133.405 286.392 129.118 282.645 129.089 276.784C131.356 279.846 133.639 282.894 135.88 285.97C136.923 287.401 137.608 288.932 136.455 290.748Z" fill="#6DC3BC"/>
<path d="M136.786 294.546C135.671 293.454 136.457 292.363 137.044 291.275C137.742 292.365 138.072 293.457 136.786 294.546Z" fill="#6DC3BC"/>
<path d="M88.0998 121.363C85.9765 125.447 83.3707 129.18 79.0586 131.682C79.0435 129.815 80.2543 128.46 81.3945 126.973C83.3308 124.439 85.6745 121.994 84.9901 118.543C84.6727 116.942 86.1012 115.864 87.4221 114.887C90.7089 112.462 93.0816 109.397 95.3838 106.167C98.2512 102.149 103.136 100.296 107.28 97.6765C113.753 93.5871 121.06 90.6658 126.556 85.2135C127.064 84.7121 128 84.1211 127.962 83.6797C127.356 76.2834 135.338 75.654 139.399 72.511C142.717 69.9407 146.531 67.2763 150.443 65.102C152.975 63.6957 155.35 62.0219 158.912 62.3278C151.007 67.3982 143.101 72.4686 135.195 77.5439C137.535 78.5604 138.623 77.2478 139.877 76.4598C149.471 70.4098 159.024 64.3063 168.592 58.2271C170.444 57.0497 172.307 55.7899 174.595 56.9177C160.804 64.9949 147.089 73.2083 134.452 82.8626C123.387 91.3186 112.524 100.008 102.447 109.527C98.6285 113.132 93.9172 115.898 90.1389 119.595C89.3617 119.087 88.5101 118.195 87.5467 119.062C86.5885 119.924 87.2977 120.748 88.105 121.353L88.0998 121.363Z" fill="#6DC3BC"/>
<path d="M68.7263 144.922C69.5074 147.491 66.7832 148.673 65.6418 150.378C61.3488 156.787 57.6452 163.544 52.3609 169.414C48.7481 167.208 48.3857 166.362 48.8457 161.589C49.4842 154.956 53.7695 150.869 59.8808 147.563C62.7958 145.984 65.6495 145.341 68.7212 144.922L68.7263 144.922Z" fill="#6DC3BC"/>
<path d="M75.6497 135.871C75.7041 138.014 74.2435 139.353 72.4983 140.541C72.3452 139.653 72.141 138.77 72.0441 137.872C71.71 134.681 72.998 134.121 75.6497 135.871Z" fill="#6DC3BC"/>
<path d="M71.7768 140.998C72.0606 143.132 70.3274 143.99 68.7161 144.932C67.9749 142.513 69.4897 141.508 71.7768 140.998Z" fill="#6DC3BC"/>
<path d="M29.4186 255.199C30.5528 256.626 30.9671 258.209 30.2738 260.032C28.2769 258.79 28.7457 257.018 29.4186 255.199Z" fill="#6DC3BC"/>
<path d="M51.6699 169.91C52.1706 171.556 50.7747 172.266 49.6381 173.103C49.3764 171.574 49.6689 170.315 51.6699 169.91Z" fill="#6DC3BC"/>
<path d="M48.9269 173.549C49.1431 175.01 48.52 176.117 47.0779 176.889C47.172 175.561 47.551 174.347 48.9269 173.549Z" fill="#6DC3BC"/>
<path d="M88.0999 121.363C87.2925 120.757 86.5833 119.929 87.5416 119.072C88.5049 118.204 89.3565 119.096 90.1338 119.605C89.4575 120.197 88.7761 120.78 88.0999 121.363Z" fill="#6DC3BC"/>
<path d="M38.4572 657.376C41.5224 655.391 44.8613 656.432 45.9647 659.725C47.1383 663.217 44.7282 668.435 40.7761 670.376C39.1963 671.153 37.3488 672.388 35.5351 671.224C33.5943 669.982 32.707 668.179 33.0667 665.834C33.5004 663.04 36.088 658.904 38.4573 657.371L38.4572 657.376Z" fill="#6DC3BC"/>
</g>
<defs>
<clipPath id="clip0_29_2088">
<rect width="882.353" height="966.111" fill="white" transform="translate(-205.62 0.887817) rotate(0.319056)"/>
</clipPath>
</defs>
</svg>
