<?xml version="1.0" encoding="UTF-8"?>
<svg id="Layer_2" xmlns="http://www.w3.org/2000/svg" viewBox="0 0 707.64 455.75">
  <defs>
    <style>
      .cls-1 {
        fill: #5a3e36;
      }

      .cls-2 {
        fill: #5b3f36;
      }

      .cls-3 {
        fill: #fcda72;
      }

      .cls-4 {
        fill: #fbbc4a;
      }

      .cls-5 {
        fill: #80594e;
      }
    </style>
  </defs>
  <g id="Layer_1-2" data-name="Layer_1">
    <g>
      <path class="cls-3" d="M353.42,372.68c-10.15.16-20.31.1-30.43.61-3.09.16-6.5,1.29-9.1,2.99-23.08,15.12-46.01,30.47-68.98,45.75-14.81,9.85-29.66,19.65-44.41,29.59-7.53,5.07-15.36,5.46-23.09,1.18-7.34-4.06-10.29-10.83-10.23-19.21.14-19-.01-38,.09-57,.02-3.34-.63-4.87-4.49-5.42-45.92-6.58-84.56-27.2-115.53-61.62C21.85,281.34,6.17,248.14,1.56,210.45c-6.36-52.03,6.69-99.17,39.6-140.16C67.17,37.89,100.7,16.25,140.93,5.93c13.55-3.48,27.87-5.37,41.86-5.52,55.82-.62,111.66-.28,167.49-.28,1,0,1.99.09,2.99.15.01,121.81.03,243.61.05,365.42,0,2.33.07,4.66.11,7ZM250.14,165.25c0-20.62.02-40.6,0-60.58-.02-12.69-8.97-22.11-20.87-22.09-11.82.03-20.76,9.55-20.76,22.26-.02,54.49-.02,108.97,0,163.46,0,12.25,9.06,21.75,20.65,21.81,11.97.06,20.94-9.25,20.97-21.88.04-18.5,0-36.99.03-55.49,0-1.76.16-3.51.24-5.13h41.06c0,20.43-.02,40.41,0,60.39.02,12.68,8.93,22.1,20.8,22.1,11.88,0,20.83-9.41,20.83-22.07.02-54.49.02-108.97,0-163.46,0-12.62-9.1-22.09-20.99-22-11.62.08-20.61,9.55-20.64,21.84-.04,18.5,0,36.99-.03,55.49,0,1.76-.16,3.52-.26,5.33h-41.04Z"/>
      <path class="cls-4" d="M353.42,372.68c-.04-2.33-.1-4.66-.11-7-.02-121.81-.03-243.61-.05-365.42,1.66-.08,3.32-.24,4.98-.24,54.47,0,108.94-.07,163.42.02,45.06.07,84.64,15.26,119.03,44.06,33.46,28.02,55.18,63.48,63.28,106.34,10.83,57.22-2.4,108.88-39.34,154.13-21.53,26.37-48.58,45.22-80.41,57.1-15.45,5.77-31.47,9.36-47.97,10.6-1.03.13-2.07.26-3.1.4-1.82.13-3.64.38-5.46.38-56.61.03-113.22.04-169.84.03-1.48,0-2.96-.25-4.45-.39ZM416.04,186.53c0-27.33.03-54.66-.01-81.99-.02-12.61-9.05-21.95-21.05-21.92-11.59.03-20.52,9.46-20.53,21.86-.03,54.66-.02,109.32.02,163.98,0,2.13.19,4.35.79,6.39,3.02,10.27,12.61,16.53,22.91,15.15,9.95-1.34,17.83-10.46,17.85-20.98.06-27.5.02-54.99.02-82.49ZM498.99,144.8c0-13.31.03-26.63,0-39.94-.04-12.76-8.81-22.13-20.73-22.24-11.82-.1-20.86,9.34-20.88,21.95-.04,26.96-.04,53.92,0,80.88.02,12.3,8.96,21.64,20.6,21.69,11.94.06,20.95-9.29,21-21.91.05-13.48.01-26.96.01-40.44ZM457.38,269.26c-.01,11.59,9.36,20.9,20.97,20.84,11.24-.06,20.62-9.52,20.63-20.78,0-11.33-9.27-20.72-20.55-20.81-11.65-.09-21.04,9.17-21.05,20.75Z"/>
      <path class="cls-3" d="M533.16,372.66c1.03-.13,2.07-.26,3.1-.4-1.03.13-2.07.26-3.1.4Z"/>
      <path class="cls-5" d="M250.14,165.25h41.04c.09-1.82.25-3.57.26-5.33.02-18.5-.01-36.99.03-55.49.03-12.29,9.02-21.76,20.64-21.84,11.89-.09,20.98,9.38,20.99,22,.02,54.49.02,108.97,0,163.46,0,12.66-8.95,22.08-20.83,22.07-11.87,0-20.78-9.43-20.8-22.1-.03-19.98,0-39.97,0-60.39h-41.06c-.08,1.62-.23,3.37-.24,5.13-.02,18.5.02,36.99-.03,55.49-.03,12.63-9,21.94-20.97,21.88-11.59-.06-20.65-9.55-20.65-21.81-.02-54.49-.02-108.97,0-163.46,0-12.72,8.94-22.24,20.76-22.26,11.9-.03,20.85,9.4,20.87,22.09.03,19.98,0,39.96,0,60.58Z"/>
      <path class="cls-1" d="M416.04,186.53c0,27.5.04,54.99-.02,82.49-.02,10.52-7.9,19.64-17.85,20.98-10.3,1.38-19.89-4.88-22.91-15.15-.6-2.03-.79-4.25-.79-6.39-.04-54.66-.05-109.32-.02-163.98,0-12.4,8.94-21.83,20.53-21.86,12-.03,21.04,9.31,21.05,21.92.04,27.33.01,54.66.01,81.99Z"/>
      <path class="cls-1" d="M498.99,144.8c0,13.48.04,26.96-.01,40.44-.05,12.62-9.06,21.96-21,21.91-11.64-.05-20.58-9.39-20.6-21.69-.05-26.96-.04-53.92,0-80.88.02-12.62,9.06-22.06,20.88-21.95,11.91.1,20.69,9.48,20.73,22.24.04,13.31,0,26.63,0,39.94Z"/>
      <path class="cls-2" d="M457.38,269.26c.01-11.58,9.4-20.84,21.05-20.75,11.27.09,20.55,9.49,20.55,20.81,0,11.26-9.39,20.72-20.63,20.78-11.61.06-20.98-9.25-20.97-20.84Z"/>
    </g>
  </g>
</svg>