<?xml version="1.0" encoding="UTF-8"?>
<svg id="Layer_2" xmlns="http://www.w3.org/2000/svg" viewBox="0 0 624.02 716.74">
  <defs>
    <style>
      .cls-1 {
        fill: #e5f9fe;
      }

      .cls-2 {
        fill: #daf6fd;
      }

      .cls-3 {
        fill: #88dbf7;
      }

      .cls-4 {
        fill: #3eb3f2;
      }

      .cls-5 {
        fill: #bff0fd;
      }

      .cls-6 {
        fill: #b8effd;
      }

      .cls-7 {
        fill: #e4f9fe;
      }

      .cls-8 {
        fill: #5bc4f4;
      }

      .cls-9 {
        fill: #80d7f7;
      }

      .cls-10 {
        fill: #49baf3;
      }

      .cls-11 {
        fill: #cdf3fd;
      }

      .cls-12 {
        fill: #cff4fd;
      }

      .cls-13 {
        fill: #4ebdf3;
      }

      .cls-14 {
        fill: #36adf1;
      }

      .cls-15 {
        fill: #dcf7fd;
      }

      .cls-16 {
        fill: #6dcdf5;
      }

      .cls-17 {
        fill: #42b6f2;
      }

      .cls-18 {
        fill: #7dd5f6;
      }

      .cls-19 {
        fill: #e6f9fe;
      }

      .cls-20 {
        fill: #bdf0fd;
      }

      .cls-21 {
        fill: #67caf5;
      }

      .cls-22 {
        fill: #cbf3fd;
      }

      .cls-23 {
        fill: #54c0f4;
      }

      .cls-24 {
        fill: #c7f2fd;
      }

      .cls-25 {
        fill: #b5eefd;
      }

      .cls-26 {
        fill: #74d1f5;
      }

      .cls-27 {
        fill: #c1f1fd;
      }

      .cls-28 {
        fill: #b2edfd;
      }

      .cls-29 {
        fill: #d3f4fd;
      }
    </style>
  </defs>
  <g id="Layer_1-2" data-name="Layer_1">
    <g>
      <path class="cls-14" d="M20.75,619.68c-.42-.61-.84-1.22-1.26-1.83.45-2.55.89-5.1,1.43-8.2h5.06c13.62,0,27.25-.09,40.87.07,3.06.04,6.12,1.37,9.17,1.36,3.25,0,6.65,3.05,9.79-.27.48.59.97,1.18,1.45,1.77-.1,1.66-.19,3.32-.28,4.98.21,1.36.42,2.73.64,4.09.19,2,.38,3.99.57,5.99v39.38c1.16.25,1.64.47,2.11.45,15.9-.65,31.81-1.24,47.7-2.15,1.06-.06,2.84-2.52,2.81-3.85-.1-5.95-.74-11.9-1.18-17.84-.04-1.66-.08-3.31-.13-4.97.24-9.61.48-19.21.73-28.82,1.88-.38,3.75-.76,5.63-1.14.66-.33,1.32-.66,1.99-1,1.16-.42,2.33-.85,3.5-1.27,1.32.04,2.71.36,3.96.08,10.56-2.34,21.05-3.68,31.34,1.16.25.31.5.62.75.93.09,1.37.18,2.74.27,4.12.26.65.51,1.31.77,1.96.11.67.21,1.34.32,2.01l.88,1.98c3.64,9.25,6.89,18.71,14.06,26.06.25.61.38,1.32.78,1.81,25.1,30.23,68.04,29.71,92.34-1.9,8.72-10.15,14.72-21.67,17.45-34.82.28-.38.55-.76.83-1.14.27-.67.54-1.33.81-2-.05-.68-.1-1.35-.15-2.03.21-.32.41-.64.62-.96.24-.98.47-1.96.71-2.94.12-.67.23-1.35.35-2.02,4.38-1.38,6.74,2.31,9.9,3.97.12,1.01.24,2.02.37,3.04l.85,3.95c.11.99.22,1.98.34,2.97.3,1,.61,2.01.91,3.01.28.36.55.72.83,1.08,2.49,10.7,5.97,20.93,13.8,29.11,5.55,9.58,14.41,15.07,24.34,18.82,13.09,4.94,26.79,5.29,40.3,2.51,13.87-2.86,25.11-10.27,32.79-22.51,3.76-8.64,7.52-17.27,11.28-25.91.27-.02.53-.05.8-.07,5.38-3.73,11.52-3.02,17.54-3.02s12.29-.23,18.41.09c3.68.19,7.31,1.25,10.97,1.93,1.72-.14,3.44-.28,5.16-.41,1.31-.14,2.62-.28,3.93-.42,1.64.27,3.29.53,4.93.8,1.57-.06,4.17,2.28,4.04-1.74,1-.07,1.99-.15,2.99-.22,5.33,0,10.66,0,15.99,0,2.32.21,4.64.42,6.96.64,1.33.18,2.66.36,4,.54.97.13,1.95.26,2.92.39.69.22,1.38.43,2.08.65.69-.75,1.39-1.49,2.08-2.24,13.5,0,27,.1,40.5-.07,3.53-.05,4.58,1.15,4.59,4.59.01,2.5,1.15,4.99,1.78,7.48,3.21,9.54,3.01,19.28,1.81,29.11-.77,6.24-1.26,12.52-1.89,18.77-.1.96-.31,1.91-.58,3.54-5.68-2.36-7.51,1.95-10.19,5.35-18.36,23.32-42.76,32.38-71.83,29.63-19.7-1.86-36.36-10.24-49.75-24.85-2.29-2.5-3.78-1.7-5.74.17-33.74,32.27-92.07,32.79-127.41,12.09-5.15-3.02-9.9-6.74-14.68-10.35-2.08-1.57-3.49-1.67-5.64,0-38.32,29.65-78.72,32.65-121.1,9.18-.43-.24-.91-.39-1.38-.55-.14-.05-.32.01-1.23.07.11,1.62,0,3.34.38,4.95.92,4.05-.31,5.69-4.7,5.8-13.65.36-27.29,1.15-40.94,1.68-29.46,1.14-58.93,2.21-88.39,3.35-6.62.26-13.23.71-20.56,1.11,0-2.52-.07-4.45.01-6.37.9-21.63,1.84-43.26,2.68-64.89.07-1.93-.53-3.89-.83-5.83-.78-.62-1.57-1.23-2.35-1.85-1.57-1.31-3.15-2.63-4.72-3.94-1.2-1.1-2.41-2.19-3.61-3.29-1.13-1.22-2.27-2.45-3.4-3.67-.66-.74-1.31-1.47-1.97-2.21-.64-.73-1.29-1.47-1.93-2.2-.69-.93-1.39-1.86-2.08-2.79ZM520.88,623.65c-5.75,1.39-10.81,3.99-14.92,8.34-7.16,7.58-7.3,18.33-.27,26.07,11.42,12.57,34.33,13.08,46.36,1.03,9.02-9.03,8.38-21.75-1.83-29.36-3.39-2.52-7.53-4.02-11.33-5.99-.81-.99-1.47-2.23-2.51-2.84-.34-.2-1.63,1.17-2.49,1.82-3.33-.01-6.67-.03-10-.04-.58-.6-1.16-1.21-1.74-1.81-.42.93-.84,1.86-1.26,2.78Z"/>
      <path class="cls-10" d="M607.61,487.66c.23.18.36.41.4.7,1.61,2.43,3.22,4.85,4.83,7.27.18.19.24.41.2.66,2.21,4.79,4.42,9.57,6.63,14.36.13.86.27,1.72.4,2.58.83,2.81,1.67,5.62,2.51,8.42.07.67.14,1.34.22,2.01.39,3,.78,6,1.17,8.99,0,.99,0,1.98.01,2.97-5.37-.66-10.72-1.64-16.11-1.91-6.64-.33-13.32-.3-19.96.01-3.4.16-6.76,1.26-10.13,1.94-.33.01-.66,0-.98-.01-.13-1.67-.25-3.34-.38-5-.24-.65-.47-1.3-.71-1.95-2.39-5.01-3.84-10.83-7.33-14.9-13.25-15.47-31.23-18.31-50.26-16.59-12.5,1.13-22.79,7.59-32.17,15.56-1.21-3.37-3.76-4.26-7.1-4.19-5.65.13-11.33.29-16.97-.04-5.01-.29-8.77.8-10.17,6.16-1.28-5.11-2.39-10.27-3.98-15.29-.36-1.13-2.55-2.65-3.59-2.44-13.31,2.63-26.56,5.57-39.84,8.36-2.74.57-3.31,1.87-2.79,4.58.84,4.37,1.15,8.85,1.68,13.29.2,2.48.4,4.97.6,7.45-7.23.02-14.47.04-21.7.06.82-6.41,1.56-12.83,2.5-19.23.45-3.11.42-5.44-3.52-6.23-13.68-2.73-27.32-5.69-40.98-8.52-2.45-.51-3.97.04-4.52,3.01-.93,5.02-2.39,9.94-3.63,14.91-1.65-2.77-1.63-7.03-6.39-7.01-8.28.04-16.57-.17-24.85.15-2.82.11-6.22.74-5.93,5.06-.71-.43-1.48-.78-2.13-1.29-16.22-12.85-34.59-14.83-54.27-11.12-10.16,1.92-18.33,7.48-26.54,13.12.22-3.58-2.03-3.98-4.85-3.96-8.65.07-17.31-.13-25.96.11-2.7.08-5.38,1.23-8.06,1.89-1.37-3.88-2.87-7.72-4.06-11.65-.92-3.05-2.71-3.79-5.63-3.16-12.66,2.74-25.33,5.46-38.03,8.05-3.3.67-3.95,2.22-3.05,5.3,1.48,5.11,2.63,10.31,3.92,15.47.23.68.46,1.35.69,2.03.64,4.01,1.27,8.03,1.91,12.04-.06,10.13,1.36,20.48-4.42,29.77-6.44,4.74-12.92,5.52-19.46.2-1.05-1.99-2.11-3.98-3.16-5.96-.37-.99-.74-1.98-1.12-2.97-.06-.66-.13-1.32-.19-1.98-.43-1.81-.85-3.61-1.28-5.42.02-4.12.03-8.23.05-12.35.41-2.16.81-4.31,1.22-6.47.1-1.3.2-2.61.3-3.91.34-1.67.68-3.34,1.03-5.01,1.01-4.88,1.99-9.77,3.02-14.64.58-2.73.44-4.83-3.01-5.54-13.64-2.8-27.23-5.84-40.89-8.49-1.38-.27-4.21,1.11-4.55,2.26-2.44,8.4-4.41,16.94-6.53,25.43l-.67,2.05c-.43,1.33-.86,2.65-1.29,3.98-1.93-.33-3.85-.94-5.78-.95-13.58-.08-27.16-.03-40.74-.03,1.77-9.55,2.81-19.31,5.47-28.6,3.72-12.99,8.65-25.64,13.06-38.43,1.34-.51,3.3-.62,3.92-1.59,2.18-3.44,5.34-3.43,8.77-3.43,171.58.03,343.16.01,514.74.07,5.12,0,10.25.65,15.36,1.08,2.12.18,4.22.58,6.33.88,1.76.29,3.52.58,5.28.87,1.23.51,2.45,1.02,3.68,1.54,1.38.85,2.76,1.7,4.14,2.55,1.29.8,2.58,1.59,3.87,2.39.72.53,1.44,1.07,2.16,1.6.6.42,1.2.84,1.81,1.25.74.58,1.48,1.16,2.21,1.74.93.76,1.85,1.51,2.78,2.27,1.37,1.27,2.73,2.53,4.1,3.8.33.33.65.66.98.99,1.26,1.37,2.52,2.74,3.78,4.11,0,0,.11.11.12.11.72.92,1.45,1.83,2.17,2.75,0,0-.02-.03-.02-.02.56.7,1.12,1.4,1.67,2.1Z"/>
      <path class="cls-3" d="M24.84,74.54c-.65-6.22-1.41-12.43-1.93-18.66-1.04-12.57-1.9-25.16-2.94-37.73-.27-3.24.91-4.46,4.17-4.58,15.78-.59,31.56-1.29,47.34-2.06,26.56-1.3,53.11-2.65,79.66-4.05,8.6-.45,17.19-1.11,26.12-1.7.41,4.79,3.19,4.36,6.95,3.97,21.96-2.29,43.95-4.18,65.93-6.23,2.7-.25,5.4-.63,8.42-.99-.3,2.95-.51,5.05-.8,8.02,4.99-.44,9.54-.59,14.02-1.27,12.36-1.86,24.48.18,36.7,1.61,6.33.74,12.82.83,19.18.4,14.07-.95,28.1-2.41,42.15-3.67,18.18-1.63,36.36-3.28,54.54-4.9,4.63-.41,9.29-.61,13.9-1.16,3.32-.4,5.31.84,5.32,4.12,0,4.28,2.58,4.82,5.9,4.82,5.33,0,10.67-.07,15.99.19,3.04.14,4.33-.81,5.01-3.91,1.62-7.37,1.81-7.27,9.2-6.28,30.25,4.06,60.51,8.07,90.77,12.1,12.66,1.69,25.31,3.45,37.98,5,5.01.61,3.59,4.14,3.13,6.77-1.01,5.88-2.46,11.69-3.82,17.51-1.92,8.24-3.93,16.46-5.9,24.69-4.7-5.19-10.94-3.94-16.86-4-4.96-.04-9.93-.04-14.89,0-5.29.05-10.79-.99-15.33,2.97.44-8.02.45-8.07-5.54-8.82-11.67-1.46-23.38-2.67-35.01-4.43-2.77-.42-3.99.35-5.14,2.37-1.43-.36-2.85-1.04-4.27-1.05-17.56-.07-35.12-.12-52.68.08-1.43.02-2.83,1.87-4.25,2.87-1.81.02-3.62-.03-5.43.06-5.2.28-10.4.61-15.6.92-2.01-1.66-3.95-4.64-6.03-4.74-6.56-.32-13.17.43-19.76.77-1.72-.35-3.47-1.08-5.16-.97-9.23.59-18.46,1.33-27.67,2.15-5.74.51-11.46,1.26-17.19,1.9-1.81-.69-3.62-1.97-5.44-1.99-13.66-.17-27.32-.15-40.98,0-1.27.01-2.53,1.34-3.79,2.05-16.03-2.05-31.87-2.32-46.98,4.73.55-1.68,1.11-3.36,1.84-5.6-1.95-.11-3.53-.27-5.12-.27-9.45-.02-18.9-.04-28.35,0-5.61.02-11.69-1.38-15.4,4.81-.11.19-.62.13-.95.18-.12-1.58-.25-3.17-.43-5.53-14.23,1.29-27.89,2.54-41.56,3.78-.68.23-1.36.47-2.04.7-2.99.12-5.98.23-8.96.35-2,.58-4,1.17-5.99,1.75.45-1.84.91-3.67,1.6-6.45-7.1.49-13.81.95-20.52,1.41-2.73-.29-5.48-.98-8.19-.81-12.87.77-25.72,2-38.6,2.63-10.19.5-10.2.22-10.36,10.18-.88-1.51-2.83-3.39-2.46-4.47,1.66-4.82-1.74-5.35-4.58-5.41-11.41-.24-22.83-.13-34.25-.1-2.67,0-3.45,1.08-3.3,4.06.19,3.94-.84,7.94-1.35,11.91Z"/>
      <path class="cls-21" d="M556.98,251.83c-.1.92-.2,1.84-.3,2.75-.34.97-.68,1.94-1.01,2.91-.1.7-.19,1.4-.29,2.09-.45,1.11-.91,2.21-1.37,3.32-.04.56-.09,1.12-.13,1.68-.32.69-.64,1.38-.96,2.06,0,0,.02-.02.02-.02-.99.72-1.99,1.45-2.98,2.17-.02,11.26-.05,22.53-.07,33.79-4.99-.67-9.97-1.76-14.98-1.91-10-.3-20.03-.09-30.04-.1-.33-5-.67-10-1-15v-6c-.41-.97-.83-1.95-1.24-2.92-9.24.11-18.49.22-27.73.33-6.66.23-13.33.46-19.99.69-20.34,1.76-40.67,3.51-61.01,5.27-.67.23-1.35.46-2.02.7-1,.11-1.99.22-2.99.33-4.43-.36-3.92,2.89-4.13,5.63-2.61,0-5.27.31-7.83-.08-5.16-.78-6.84,1.47-6.16,6.25-.93-1.15-1.96-2.24-2.77-3.47-10.4-15.78-37.41-24.06-55.37-12.04-2.38,1.6-4.6,3.44-7.39,5.55-.29-3.18-.51-5.55-.77-8.42-10.57.5-20.66.99-30.75,1.46-6.63.31-13.26.56-19.89.89-4.05.2-6.81,1.24-6.14,6.48.82,6.4.8,12.9,1.15,19.36-2.5-1.97-4.9-5.46-7.51-5.61-5.9-.35-13.38-3.39-16.59,5.37-.06.17-.6.17-.92.25-2.33-5.49-5-10.86-6.87-16.51-1.5-4.54-4.39-6.03-8.74-6.48-17.77-1.85-35.53-3.82-53.28-5.86-3.61-.41-5.88.45-7.26,4.14-2.37,6.32-5.21,12.48-7.85,18.7-2.45-3.78-6.03-4.23-10.22-4.08-8.09.28-16.19.06-24.29.09-5.39.02-11.38-1.34-13.84,5.77-.05.14-.62.09-.94.13,3.02-9.12,6.05-18.24,9.07-27.36.4-1.22.8-2.44,1.41-4.35-5.08,0-9.65-.28-14.17.05-18.88,1.35-37.74,2.83-56.6,4.42-3.27.28-3.62-1.25-3.51-3.78.41-9.96.76-19.93,1.13-29.9,3.68-7.58,10.63-5.99,16.95-5.99,167.9-.02,335.8-.01,503.7-.01,1.33,0,2.67-.04,4,.01,5.39.22,7.08,2.33,6.29,7.66-.2,1.38-.15,2.8-.22,4.19-.11.72-.23,1.43-.34,2.15-.42,1.08-.84,2.16-1.26,3.23Z"/>
      <path class="cls-16" d="M558.59,246.45c.07-1.4.01-2.82.22-4.19.79-5.33-.9-7.45-6.29-7.66-1.33-.05-2.66-.01-4-.01-167.9,0-335.8,0-503.7.01-6.32,0-13.28-1.59-16.95,5.99.07-5.33.15-10.66.22-15.99.58-1.53,1.65-3.06,1.67-4.61.15-11.47.09-22.94.09-34.41,15.01.97,30.19-2.19,45.06,1.98.09.98.18,1.97.28,2.95-.1,8.95.03,17.91-.36,26.85-.3,6.73.86,7.87,7.56,7.15,10.8-1.17,21.65-1.96,32.48-2.92,2.01-.28,4.02-.56,6.03-.83,2-.06,4.01-.11,6.01-.17,3.21-2.27,2.95-4.63.17-7.06-.03-5.32-.05-10.63-.08-15.95,6.98,0,13.96-.02,20.94-.03.07,1.34.14,2.67.2,4.01,0,.67-.01,1.34-.02,2.01-.08,4.33-.16,8.67-.23,13-1.81,2.61-1.06,3.93,2.05,4.02,2.63.07,5.25.11,7.88.17,1.68.28,3.36.55,5.04.83,5.1.51,10.19,1.14,15.29,1.5,9.01.63,18.03,1.1,27.44,1.66v-9.21c-.55-5-1.09-9.99-1.64-14.99.05-3.66.09-7.31.14-10.97l20.87,1.96c1.67,2.33,3.34,4.66,5.01,6.98,8.67,13.69,20.32,23.02,36.87,25.18,1.01.31,2.02.62,3.02.93,6.01,0,12.02,0,18.04,0,1.01-.31,2.02-.62,3.02-.93,14.07-2.63,25.04-10.21,33.93-21.15,1.85-2.32,4.13-4.43,5.46-7.02,4.05-7.89,7.73-15.97,11.55-23.98.36-.99.71-1.99,1.07-2.98.24-.68.49-1.36.73-2.04l2.22-7.98c1.06-1.78,2.11-3.56,3.17-5.34-.05-.47-.1-.95-.15-1.42,6.37.9,12.73,1.81,19.1,2.71.6,2.03,1.21,4.05,1.81,6.07.28.69.56,1.37.85,2.06l.23-.08c0,1,.01,2,.02,2.99.3.68.61,1.35.91,2.03,3.05,9.99,6.1,19.98,9.15,29.97,2.8,7.63,5.39,15.35,8.57,22.82.65,1.54,3.49,3.06,5.32,3.04,13.8-.1,27.59-.48,41.38-1.08,1.77-.08,4.58-1.61,4.99-3.03,1.89-6.48,3.1-13.16,4.56-19.77.76-2.65,1.51-5.3,2.27-7.95.3-.67.6-1.34.9-2.02.08-.99.15-1.98.23-2.96,1.25-.35,2.49-.71,3.74-1.06.31,1.01.61,2.02.92,3.03.3.67.61,1.34.91,2.01.47,1.65.94,3.3,1.41,4.95,2.95,8.38,5.72,16.83,9,25.08.55,1.4,3.25,2.77,4.94,2.76,10.59-.07,21.19-.5,31.78-.91,3.96-.15,7.96-.29,11.83-1.01,1.52-.28,3.53-1.9,3.96-3.32,1.96-6.46,3.44-13.06,5.09-19.61.42-1.65.84-3.31,1.27-4.96,2.38-1.33,4.76-3.8,7.15-3.81,13.89-.06,27.79.46,41.69.79-1.59,5.86-3.35,11.68-4.72,17.59-2.3,9.98-4.26,20.04-6.55,30.02-.65,2.83-1.96,5.52-2.97,8.27Z"/>
      <path class="cls-13" d="M568.88,459.62c-2.11-.3-4.21-.7-6.33-.88-5.12-.43-10.24-1.07-15.36-1.08-171.58-.06-343.16-.04-514.74-.07-3.42,0-6.59-.01-8.77,3.43-.61.97-2.57,1.08-3.92,1.59,1.89-5.65,3.8-11.29,5.65-16.95.87-2.66,2.45-3.55,5.29-2.97,9.09,1.85,18.22,3.47,27.32,5.24,7.41,1.44,7.4,1.49,7.72-6.31.7-6.01,1.39-12.01,2.09-18.02,2.61-.33,5.22-.93,7.83-.95,12.45-.11,24.89-.06,37.34-.06-.09,3.35-.17,6.69-.26,10.04-1.69,2.17-1.25,3.79,1.24,4.9,12.59,2.1,25.19,4.2,37.78,6.3l2.07.81c.98.07,1.95.14,2.93.22,1.5.47,3.01.95,4.51,1.42.2-.89.39-1.78.59-2.66.11-2.3.21-4.6.32-6.91.23-1.03.47-2.06.7-3.09.32-2.34.64-4.67.96-7.01,3.78-1.43,3.28-3.57.99-6,.06-1,.12-1.99.17-2.99,8.86,0,17.73,0,26.59,0l.18,3.01c-1.05,2.2-2.29,4.43.92,5.97l.37,14.74c.28,1.65.56,3.31.84,4.96,1.34-.47,2.68-.94,4.02-1.4,1.31-.09,2.61-.18,3.92-.28.69-.27,1.38-.54,2.07-.82,9.97-1.74,19.95-3.48,29.92-5.23.68-.21,1.36-.42,2.04-.63.66-.16,1.31-.32,1.97-.48,3.06.34,4.02-1.29,3.94-4.06-.09-3.24-.07-6.47-.1-9.71l-.66-4.11-.61-12.96c-.25-1.65-.49-3.31-.74-4.96.09-1.02.18-2.05.27-3.07,3.96,0,7.92,0,11.89,0,.17.67.34,1.34.5,2.01.02,1.97.04,3.95.06,5.92-.07,4.57-.17,9.15-.19,13.72-.03,8.23,0,16.46,0,25.01,1.75.13,3.2.24,4.65.34,1.69-.23,3.38-.47,5.07-.7,3.64-.12,7.28-.24,10.92-.36,1.96,1.52,3.78,2.11,5.06-.79,6.33-.36,12.66-.72,18.99-1.07,1.33-.21,2.66-.42,4-.63,5.8-.09,3.42-4.57,4.01-7.46.32-4.86.78-9.71.94-14.57.21-6.35.99-7.04,6.93-5.41.08.57.16,1.15.24,1.72.55.76,1.11,1.53,1.66,2.29.39.74.77,1.47,1.16,2.2,4.47,8.35,8.57,17.01,16.19,23.05,1.59,1.26,5.07,2.32,6.35,1.47,12.31-8.18,24.33-16.79,36.43-25.29,2.5-1.75,2.25-3.43.38-5.77-3.31-4.14-6.2-8.62-9.26-12.96.7-2.4,1.41-4.8,2.38-8.11,7.86.43,16.27.9,24.67,1.36.27,1.69.53,3.37.8,5.06.22.66.43,1.33.65,1.99.2.99.41,1.97.61,2.96-.05.67-.1,1.34-.15,2.01.28.67.57,1.34.85,2.02.74,2.33,1.48,4.65,2.22,6.98,6.18,21.42,20.42,32.5,42.56,32.87,16.6.28,32.74-2.93,47.6-10.34,6.82-3.4,12.58-8.95,18.82-13.53.55-.31,1.57-.59,1.59-.94.4-5.18,3.87-5.32,7.83-5.09,12.5.73,25.17-1.69,37.51,2.04.51.36,1.03.73,1.54,1.09.56,1.87,1.11,3.74,1.67,5.62,1.29,3.43,2.58,6.86,3.87,10.3-1.68,2-3.36,4-5.04,6l-3.07,2.83c-1.35,1.06-2.71,2.11-4.06,3.17-.09,1.01-.44,2.83-.24,2.9,1.53.48,3.16.61,4.76.85.87.08,1.74.17,2.61.25.75.28,1.5.56,2.26.84,2.22.6,4.44,1.19,6.66,1.79.8.39,1.59.79,2.39,1.18.56.14,1.11.28,1.67.42,0,.59.02,1.18.03,1.77Z"/>
      <path class="cls-8" d="M504.88,300.59c10.01,0,20.03-.21,30.04.1,5.01.15,9.99,1.24,14.98,1.91.02,24.67.04,49.34.06,74.01-2.16,0-4.37-.26-6.47.12-1.24.23-2.3,1.47-3.44,2.26.01.4.03.8.04,1.2.26,1.48.52,2.95.78,4.43-2.6-.34-5.19-.93-7.8-.96-10.08-.11-20.18-.27-30.25.09-3.02.11-5.98,1.87-8.97,2.87-1.29-2.97-2.92-3.61-6.14-2.05-8.3,4.02-16.76,7.73-25.28,11.25-8.89,3.67-11.91,2.73-17.28-4.5-.1-3.71-.2-7.42-.3-11.13.68-.18,1.35-.36,2.03-.54,6.77-.7,13.55-1.29,20.28-2.2,1.03-.14,2.64-1.69,2.65-2.6.04-3.09-.53-6.18-.86-9.27-.03-2.5-.03-5-.09-7.5q-.3-12.49-12.86-12.49c-13.26,0-13.15,0-12.35-13.22.19-3.14,1.29-4.2,4.22-3.75.4.27.8.78,1.21.78,13.19.04,26.38.05,39.57,0,.41,0,.81-.5,1.22-.77,2.34-.08,4.69-.15,7.03-.23h6.92v-27.8c.35,0,.7,0,1.06,0Z"/>
      <path class="cls-4" d="M577.78,535.67c3.38-.68,6.73-1.78,10.13-1.94,6.64-.31,13.32-.35,19.96-.01,5.39.27,10.74,1.25,16.11,1.91.01,3.66.02,7.32.04,10.97-.8,4.98-1.59,9.97-2.39,14.95-.14.67-.27,1.34-.4,2.01-.4,1.11-.8,2.21-1.2,3.32.01.34-.12.61-.4.8-.59,1.29-1.18,2.58-1.78,3.88-4.13,8.19-8.36,16.33-12.32,24.59-1.29,2.7-2.54,5.71-2.67,8.63-.36,7.61-.09,15.25-.07,22.88-.63-2.49-1.77-4.98-1.78-7.48-.01-3.45-1.06-4.64-4.59-4.59-13.5.17-27,.07-40.5.07-.05-7.3-.16-14.6-.1-21.91.02-2.69-.9-3.86-3.69-4.07-1.45-.11-2.82-1.31-4.22-2.02,0,0,0,0,0,0,.77-.63,1.54-1.25,2.31-1.88,5.97-6.35,11.93-12.7,17.9-19.05,1.32-2.22,2.64-4.44,3.96-6.66.86-1.48,1.71-2.96,2.57-4.44.8-2.66,1.6-5.32,2.4-7.98l.78-4.04c0-2.64,0-5.29-.01-7.93Z"/>
      <path class="cls-4" d="M1.24,529.66c13.58,0,27.16-.05,40.74.03,1.93.01,3.85.62,5.78.95-.13,2.99-.27,5.98-.41,8.97-.33,1.68-.66,3.36-.99,5.04-.1,3.37-.19,6.74-.29,10.11.36,2.96.73,5.93,1.09,8.89-.68,6.93,2.44,12.74,5.36,18.65,4.74,9.61,11.14,17.65,20.83,22.64,4.08,2.1,8.29,3.93,12.44,5.89-3.14,3.31-6.54.26-9.79.27-3.06,0-6.11-1.33-9.17-1.36-13.62-.16-27.24-.07-40.87-.07h-5.06c-.54,3.09-.98,5.64-1.43,8.2-7.96-9.37-12.15-20.59-15.53-32.16-.96-3.29-1.27-6.76-1.87-10.15-.23-.97-.46-1.94-.69-2.91-.15-1.68-.29-3.36-.44-5.04.94-2.8,2.4-5.67-.96-7.95,0-6,0-11.99,0-17.99,3.34-2.31,1.92-5.16.92-7.96l.31-4.03Z"/>
      <path class="cls-8" d="M90.54,301.5c.33-.04.9,0,.94-.13,2.46-7.11,8.45-5.75,13.84-5.77,8.1-.02,16.2.19,24.29-.09,4.18-.15,7.77.31,10.22,4.08-1.71,5.91-3.42,11.81-5.13,17.72-.96,1.6-2.4,3.08-2.8,4.81-2.8,12.14-5.38,24.32-8.03,36.49-.24.67-.47,1.34-.71,2.01-.16.65-.33,1.3-.49,1.95-.31.99-.63,1.98-.94,2.98-.09,1-.19,2-.28,3.01l-1.43,3.33c-.16,2.22-.32,4.44-.47,6.67-.56.35-1.13.7-1.69,1.05h-44.28c-.59,1.04-1.42,2.51-2.25,3.98,1.21-7.49,2.01-15.07,3.7-22.44,3.73-16.24,7.9-32.37,11.89-48.55.28-.68.56-1.36.84-2.04.17-.98.34-1.96.51-2.94.46-.83.93-1.66,1.39-2.49.3-1.21.6-2.42.9-3.62Z"/>
      <path class="cls-18" d="M24.84,74.54c.51-3.97,1.54-7.97,1.35-11.91-.15-2.98.63-4.06,3.3-4.06,11.42-.03,22.84-.14,34.25.1,2.84.06,6.24.59,4.58,5.41-.37,1.08,1.58,2.96,2.46,4.47.05,3.59.11,7.18.16,10.77.49,3.08.99,6.16,1.48,9.23.13,1.66.27,3.33.4,4.99,0,3.67,0,7.34,0,11,.25,1.67.5,3.34.75,5.01.14,3.32.29,6.64.43,9.96.04,5.99.08,11.98.12,17.96-.09.35-.19.71-.28,1.06-3.83-4.88-9.23-4.03-14.42-4-4.65.02-9.3-.03-13.96.01-6.32.07-13.17-1.67-17.63,4.99-.34-8-.68-16-1.03-24-.03-1.02-.06-2.03-.09-3.05-.28-6.33-.56-12.66-.83-18.99-.25-2.66-.5-5.32-.74-7.98-.1-3.67-.2-7.33-.3-11Z"/>
      <path class="cls-18" d="M554.76,65.52c4.53-3.95,10.04-2.92,15.33-2.97,4.96-.05,9.93-.04,14.89,0,5.92.05,12.16-1.2,16.86,4-.1.99-.21,1.98-.31,2.98-.26.65-.53,1.31-.79,1.96-4.4,20.45-8.8,40.89-13.22,61.34-.13.62-.6,1.17-.9,1.75-10.72-.34-21.44-.76-32.16-.99-5.15-.11-10.66-1.26-14.59,3.74-.28.36-1.26.17-1.92.24.67-4,1.35-7.99,2.03-11.99.62-2.35,1.24-4.69,1.86-7.04.3-.67.6-1.33.9-2,1.67-7.67,3.35-15.34,5.02-23,.38-1.99.77-3.98,1.15-5.98.29-.67.57-1.35.86-2.02,1.13-4.99,2.25-9.98,3.38-14.97.27-.66.54-1.33.81-1.99.27-1.02.54-2.03.81-3.05Z"/>
      <path class="cls-26" d="M537.94,137.57c.66-.07,1.64.12,1.92-.24,3.93-5,9.44-3.85,14.59-3.74,10.72.23,21.44.65,32.16.99-.64,2.99-1.28,5.98-1.91,8.97-.28.67-.56,1.33-.84,2-.12,1-.25,2-.37,2.99-.23.66-.47,1.32-.7,1.98-3.32,13.35-6.64,26.69-9.96,40.04-13.9-.33-27.79-.85-41.69-.79-2.39,0-4.77,2.48-7.15,3.81,2.57-10.35,5.13-20.69,7.7-31.04.52-2.25,1.01-4.5,1.58-6.74,1.54-6.08,3.12-12.16,4.68-18.24Z"/>
      <path class="cls-26" d="M27.84,139.56c4.46-6.66,11.31-4.93,17.63-4.99,4.65-.05,9.3,0,13.96-.01,5.19-.03,10.6-.87,14.42,4,.32,1,.65,2,.97,3.01.08,5.66.17,11.32.25,16.98-.06,9.67-.12,19.35-.17,29.02-14.86-4.17-30.05-1.01-45.06-1.98,0-9.16.07-18.31-.09-27.47-.03-1.53-1.13-3.03-1.74-4.55-.06-4.67-.11-9.33-.17-14Z"/>
      <path class="cls-23" d="M71.31,383.59c.83-1.47,1.66-2.94,2.25-3.98h44.28c.32.33.64.66.96.99-.1,1.31-.21,2.62-.31,3.94-.27,1.01-.53,2.02-.8,3.03-.66,5.34-1.33,10.67-1.99,16.01-.3,1.68-.59,3.35-.89,5.03-.09,2.31-.19,4.63-.28,6.94l-1.46,6.35c.03.24,0,.47-.05.7-12.45,0-24.89-.04-37.34.06-2.61.02-5.22.62-7.83.95-.3,0-.6,0-.9,0,.07-1.98.14-3.97.2-5.95.35-2.98.69-5.96,1.04-8.94.16-1.69.33-3.39.49-5.08.32-2.12.63-4.24.95-6.36.16-1.89.32-3.79.48-5.68.28-1.32.56-2.63.85-3.95.12-1.36.24-2.72.36-4.08Z"/>
      <path class="cls-23" d="M493.85,386.61c2.99-1,5.95-2.76,8.97-2.87,10.07-.36,20.16-.21,30.25-.09,2.6.03,5.2.63,7.8.96.56.35,1.12.7,1.68,1.06.17.87.34,1.73.51,2.6.87,2.12,1.74,4.25,2.61,6.37.11.57.23,1.15.34,1.72,1.23,3.09,2.45,6.19,3.68,9.28.11.58.22,1.15.33,1.73,1.27,4.42,2.55,8.84,3.82,13.25-12.34-3.73-25.01-1.3-37.51-2.04-3.96-.23-7.43-.09-7.83,5.09-.03.35-1.04.63-1.59.94-1-2.34-2-4.67-3-7.01-1.06-3.33-2.11-6.66-3.17-9.99-.32-.65-.64-1.31-.97-1.96-.32-1.64-.64-3.28-.96-4.91-1.21-2.71-2.43-5.43-3.64-8.14-.44-2-.88-3.99-1.32-5.99Z"/>
      <path class="cls-18" d="M28.01,153.56c.61,1.52,1.71,3.02,1.74,4.55.17,9.15.09,18.31.09,27.47,0,11.47.06,22.94-.09,34.41-.02,1.54-1.09,3.07-1.67,4.61-.02-23.68-.05-47.36-.07-71.03Z"/>
      <path class="cls-26" d="M66.93,423.62c.3-.01.6-.01.9,0-.7,6.01-1.39,12.01-2.09,18.02.39-6.01.79-12.01,1.18-18.02Z"/>
      <path class="cls-8" d="M621.63,561.56c.8-4.98,1.59-9.97,2.39-14.95-.8,4.98-1.59,9.97-2.39,14.95Z"/>
      <path class="cls-8" d="M619.67,510.66c-2.21-4.78-4.42-9.57-6.63-14.36,2.21,4.78,4.42,9.57,6.63,14.36Z"/>
      <path class="cls-16" d="M553.84,420.63c-1.27-4.42-2.55-8.83-3.82-13.25,1.79,4.78,3.58,9.56,5.37,14.34-.52-.36-1.03-.73-1.55-1.09Z"/>
      <path class="cls-16" d="M540.05,378.98c1.14-.79,2.19-2.04,3.44-2.26,2.09-.38,4.3-.12,6.47-.12-.88.8-1.68,2.15-2.65,2.29-2.38.33-4.83.1-7.26.1Z"/>
      <path class="cls-16" d="M560.92,437.63c-1.29-3.43-2.58-6.86-3.87-10.3,1.29,3.43,2.58,6.86,3.87,10.3Z"/>
      <path class="cls-8" d="M623.97,532.66c-.39-3-.78-6-1.17-8.99.39,3,.78,6,1.17,8.99Z"/>
      <path class="cls-26" d="M68.18,408.73c-.35,2.98-.7,5.96-1.04,8.94.35-2.98.69-5.96,1.04-8.94Z"/>
      <path class="cls-3" d="M25.14,85.54c.25,2.66.5,5.32.74,7.98-.25-2.66-.5-5.32-.74-7.98Z"/>
      <path class="cls-10" d="M0,559.64c3.36,2.28,1.89,5.15.96,7.95-.32-2.65-.64-5.3-.96-7.95Z"/>
      <path class="cls-10" d="M.92,533.68c1.01,2.81,2.42,5.66-.92,7.96.31-2.65.61-5.31.92-7.96Z"/>
      <path class="cls-16" d="M549.69,405.65c-1.23-3.09-2.45-6.19-3.68-9.28,1.23,3.09,2.45,6.19,3.68,9.28Z"/>
      <path class="cls-8" d="M622.58,521.66c-.84-2.81-1.67-5.61-2.51-8.42.84,2.81,1.67,5.62,2.51,8.42Z"/>
      <path class="cls-8" d="M612.84,495.64c-1.61-2.42-3.22-4.85-4.83-7.27,1.61,2.42,3.22,4.85,4.83,7.27Z"/>
      <path class="cls-26" d="M69.62,397.29c-.32,2.12-.63,4.24-.95,6.36.32-2.12.63-4.24.95-6.36Z"/>
      <path class="cls-16" d="M553.27,453.37c-1.6-.24-3.24-.37-4.76-.85-.2-.06.15-1.89.24-2.9,1.51,1.25,3.02,2.5,4.52,3.75Z"/>
      <path class="cls-16" d="M545.67,394.64c-.87-2.12-1.74-4.25-2.61-6.37.87,2.12,1.74,4.25,2.61,6.37Z"/>
      <path class="cls-8" d="M603.67,482.72c-1.26-1.37-2.52-2.74-3.78-4.11,1.26,1.37,2.52,2.74,3.78,4.11Z"/>
      <path class="cls-8" d="M598.91,477.62c-1.36-1.27-2.73-2.53-4.1-3.8,1.36,1.27,2.73,2.53,4.1,3.8Z"/>
      <path class="cls-8" d="M568.88,459.62c0-.59-.02-1.18-.03-1.77,1.77.88,3.54,1.76,5.31,2.63-1.76-.29-3.52-.58-5.28-.87Z"/>
      <path class="cls-16" d="M542.55,385.67c-.56-.35-1.12-.7-1.68-1.06-.26-1.48-.52-2.95-.78-4.43.82,1.83,1.64,3.66,2.46,5.48Z"/>
      <path class="cls-4" d="M30.14,630.56c1.2,1.1,2.41,2.19,3.61,3.29-1.2-1.1-2.41-2.19-3.61-3.29Z"/>
      <path class="cls-8" d="M581.99,464.58c-1.38-.85-2.76-1.7-4.14-2.55,1.38.85,2.76,1.7,4.14,2.55Z"/>
      <path class="cls-8" d="M70.95,387.66c-.28,1.32-.56,2.63-.85,3.95.28-1.32.56-2.63.85-3.95Z"/>
      <path class="cls-16" d="M552.81,446.46c1.02-.94,2.05-1.89,3.07-2.83-1.02.94-2.05,1.89-3.07,2.83Z"/>
      <path class="cls-16" d="M549.96,268.8c.99-.72,1.99-1.45,2.98-2.17-.99.72-1.99,1.45-2.98,2.17Z"/>
      <path class="cls-8" d="M617.85,571.56c.59-1.29,1.19-2.58,1.78-3.88-.59,1.29-1.19,2.58-1.78,3.88Z"/>
      <path class="cls-8" d="M620.03,566.89c.4-1.11.8-2.21,1.2-3.32-.4,1.11-.8,2.21-1.2,3.32Z"/>
      <path class="cls-3" d="M26.72,112.51c.03,1.02.06,2.03.09,3.05-.03-1.02-.06-2.03-.09-3.05Z"/>
      <path class="cls-16" d="M556.98,251.83c.42-1.08.84-2.16,1.26-3.23-.42,1.08-.84,2.16-1.26,3.23Z"/>
      <path class="cls-10" d="M1.4,572.63c.23.97.46,1.94.69,2.91-.23-.97-.46-1.94-.69-2.91Z"/>
      <path class="cls-16" d="M554.01,262.9c.46-1.11.91-2.21,1.37-3.32-.46,1.11-.91,2.21-1.37,3.32Z"/>
      <path class="cls-16" d="M555.67,257.49c.34-.97.68-1.94,1.01-2.91-.34.97-.68,1.94-1.01,2.91Z"/>
      <path class="cls-4" d="M20.75,619.68c.69.93,1.39,1.86,2.08,2.79-.69-.93-1.39-1.86-2.08-2.79Z"/>
      <path class="cls-8" d="M605.95,485.59c-.72-.92-1.45-1.83-2.17-2.75.72.92,1.45,1.83,2.17,2.75Z"/>
      <path class="cls-16" d="M552.92,266.65c.32-.69.64-1.38.96-2.06-.32.69-.64,1.38-.96,2.06Z"/>
      <path class="cls-18" d="M582.79,150.52c.23-.66.47-1.32.7-1.98-.23.66-.47,1.32-.7,1.98Z"/>
      <path class="cls-21" d="M89.64,305.12c-.46.83-.93,1.66-1.39,2.49.46-.83.93-1.66,1.39-2.49Z"/>
      <path class="cls-21" d="M87.74,310.56c-.28.68-.56,1.36-.84,2.04.28-.68.56-1.36.84-2.04Z"/>
      <path class="cls-18" d="M583.86,145.55c.28-.67.56-1.33.84-2-.28.67-.56,1.33-.84,2Z"/>
      <path class="cls-8" d="M607.61,487.66c-.56-.7-1.12-1.4-1.67-2.1.56.7,1.12,1.4,1.67,2.1Z"/>
      <path class="cls-8" d="M592.03,471.56c-.74-.58-1.48-1.16-2.21-1.74.74.58,1.48,1.16,2.21,1.74Z"/>
      <path class="cls-8" d="M588.01,468.57c-.72-.53-1.44-1.07-2.16-1.6.72.53,1.44,1.07,2.16,1.6Z"/>
      <path class="cls-16" d="M567.19,457.44c-.8-.39-1.59-.79-2.39-1.18.8.4,1.59.79,2.39,1.18Z"/>
      <path class="cls-16" d="M558.14,454.46c-.75-.28-1.5-.56-2.26-.84.75.28,1.5.56,2.26.84Z"/>
      <path class="cls-3" d="M600.74,71.49c.26-.65.53-1.31.79-1.96-.27.65-.53,1.31-.79,1.96Z"/>
      <path class="cls-4" d="M24.77,624.68c.66.74,1.31,1.47,1.97,2.21-.66-.74-1.31-1.47-1.97-2.21Z"/>
      <path class="cls-4" d="M38.48,637.79c.78.62,1.57,1.23,2.35,1.85-.78-.62-1.57-1.23-2.35-1.85Z"/>
      <path class="cls-22" d="M85.81,610.82c-4.15-1.95-8.37-3.79-12.44-5.89-9.69-4.99-16.09-13.04-20.83-22.64-2.92-5.92-6.04-11.72-5.37-18.65.57,1.04,1.51,2.04,1.65,3.14.58,4.33,2.54,6.08,7.23,5.98,14.42-.31,28.86,0,43.29-.25,1.85-.03,3.66-1.86,5.49-2.86,6.54,5.32,13.02,4.54,19.47-.2,2.26.4,4.51,1.12,6.77,1.13,14.95.11,29.91.06,44.86.07-.93,8.74-4.77,16.3-10.41,22.72-4.21,4.8-9.41,8.74-14.18,13.06-1.16.42-2.33.85-3.49,1.27-.66.33-1.32.66-1.99,1-1.88.38-3.75.76-5.63,1.14-.8,1.27-1.6,2.53-2.4,3.8-16.33,0-32.66,0-48.99,0-.53-.35-1.05-.71-1.58-1.06-.48-.59-.97-1.18-1.45-1.77Z"/>
      <path class="cls-20" d="M187.65,612.73c-.09-1.37-.18-2.74-.27-4.12,14.36.01,28.73.17,43.09-.09,2.49-.05,4.95-1.87,7.42-2.87,1.75,4.62,2.99,9.51,5.34,13.79,4.54,8.24,11.12,8.36,15.99.39,2.3-3.77,3.67-8.12,5.46-12.2,4.14.68,8.26,1.83,12.41,1.94,12.38.31,24.78.2,37.16.25-2.73,13.16-8.73,24.67-17.45,34.82-31.04.03-62.08.06-93.12.09-7.17-7.34-10.42-16.81-14.06-26.06-.29-.66-.58-1.32-.88-1.98-.11-.67-.21-1.34-.32-2.01-.25-.65-.51-1.31-.77-1.96Z"/>
      <path class="cls-20" d="M344.41,645.85c-7.82-8.17-11.31-18.4-13.8-29.11,40.8-.02,81.6-.04,122.39-.06.04.69.07,1.38.11,2.07-3.76,8.64-7.52,17.27-11.28,25.91-8.89.67-17.79,1.88-26.68,1.9-23.58.04-47.17-.44-70.75-.71Z"/>
      <path class="cls-24" d="M453.01,616.68c-40.8.02-81.59.04-122.39.06-.28-.36-.55-.72-.83-1.08-.3-1-.61-2.01-.91-3.01-.11-.99-.22-1.98-.33-2.97-.28-1.32-.57-2.63-.86-3.95-.12-1.01-.24-2.02-.36-3.04-.02-2.01-.03-4.03-.06-6.04,17.85,0,35.71,0,53.57,0,.37.33.74.66,1.12.98.09.63.18,1.25.27,1.88.45.81.91,1.61,1.36,2.42,1.64,4.21,3.95,7.48,9.04,8.01,4.75.49,8.25-1.51,10.37-5.28,1.64-2.91,2.17-6.45,3.19-9.71l.77-2.31c.08-1.56.16-3.12.24-4.69.57-2.77,1.15-5.54,1.72-8.32,16.2-.03,32.39-.06,48.59-.1.04,5.25.08,10.5.12,15.75-.41,1.81-.82,3.63-1.23,5.44-.12,1.66-.24,3.31-.36,4.97-.29,1.34-.59,2.68-.88,4.01-.35,2-.71,4.01-1.06,6.01-.36.32-.72.64-1.08.95Z"/>
      <path class="cls-4" d="M457.62,595.29c-.04-5.25-.08-10.5-.11-15.75,0,0,.47.15.47.15,2.8-2.97,2.74-10.35-.11-13.04-.17-1.32-.34-2.64-.51-3.96.16-.35.33-.69.49-1.04,6.33.15,12.72-.51,18.6,3.06,1.16.71,3.56-.6,5.38-.98.68.13,1.36.26,2.04.38.84.45,1.69.9,2.53,1.35,1.16.1,2.31.19,3.47.29.68.27,1.35.55,2.03.82.66.11,1.31.23,1.97.34l2,.73c2.67.69,5.33,1.38,8,2.07.99.34,1.97.68,2.96,1.02.32-.1.64-.13.97-.11.37-.99.73-1.98,1.1-2.96.25-1.37.5-2.73.75-4.1,5.81-.86,11.61-1.73,17.06-2.54,1.05,2.7,1.63,4.17,2.2,5.64-2.32,5.56-5.34,10.51-11.26,12.91l-2.81,1.95c-1.98,1.16-3.96,2.32-5.94,3.48-.93.36-1.87.73-2.8,1.09-.73.22-1.46.44-2.2.66-4.57-.34-4.03,2.89-3.91,5.71.35,7.94.77,15.87,1.17,23.8-.11.46-.22.92-.33,1.39-3.65-.67-7.29-1.73-10.97-1.93-6.12-.32-12.27-.09-18.41-.09s-12.16-.71-17.54,3.02c.06-.98.11-1.97.17-2.95.35-2,.71-4.01,1.06-6.01.29-1.34.59-2.68.89-4.01.12-1.66.24-3.31.36-4.97.41-1.81.82-3.63,1.23-5.44Z"/>
      <path class="cls-25" d="M523.88,622.68c3.33.01,6.67.03,10,.04,1.66.34,3.33.68,4.99,1.02,3.8,1.97,7.95,3.47,11.33,5.99,10.22,7.61,10.86,20.33,1.83,29.36-12.03,12.05-34.93,11.53-46.36-1.03-7.03-7.73-6.89-18.49.27-26.07,4.11-4.35,9.17-6.95,14.92-8.34,1-.33,2-.65,3-.98Z"/>
      <path class="cls-11" d="M314.25,609.81c-12.39-.05-24.78.06-37.16-.25-4.15-.1-8.27-1.26-12.41-1.94.47-3.32.94-6.64,1.4-9.96.24-1.35.48-2.69.71-4.04,0-5.66.02-11.31.03-16.97.01-2.01.02-4.01.03-6.02,2.62.33,5.24.94,7.86.96,11.5.11,23-.1,34.49.12,4.21.08,7.51-.51,8.73-5.12.31,1.73.95,3.47.88,5.19-.37,8.98-.92,17.95-1.4,26.93-.12.67-.23,1.35-.35,2.02-.24.98-.47,1.96-.71,2.94-.21.32-.41.64-.61.96-.28.67-.57,1.35-.85,2.02.06.67.12,1.34.18,2.01-.28.38-.55.76-.83,1.14Z"/>
      <path class="cls-11" d="M237.89,605.65c-2.47,1-4.93,2.82-7.42,2.87-14.36.26-28.72.11-43.09.09-.25-.31-.5-.62-.75-.93-.3-3.33-.61-6.65-.92-9.98-.22-1.02-.43-2.04-.65-3.06.21-8.35.42-16.71.63-25.06,2.42,1.02,4.82,2.86,7.27,2.93,10.82.32,21.66.23,32.49.09,3.79-.05,7.57-.63,11.36-.97.04,1.68.08,3.37.12,5.05-.03,6.99-.06,13.98-.1,20.96.22,1.34.45,2.68.67,4.02.12,1.33.24,2.65.36,3.98Z"/>
      <path class="cls-17" d="M185.72,597.7c.31,3.33.61,6.65.92,9.98-10.28-4.84-20.78-3.5-31.34-1.16-1.25.28-2.63-.04-3.96-.08,4.76-4.32,9.96-8.26,14.17-13.06,5.64-6.42,9.48-13.99,10.41-22.72.76-4.32,1.52-8.65,2.27-12.97,2.39-3.27,2.34-12.02-.08-15.09-.23-1-.45-2-.68-2.99-.57-5.31-1.14-10.62-1.71-15.92-.21-.68-.43-1.37-.64-2.05-.71-3.34-1.42-6.68-2.12-10.01,2.69-.66,5.36-1.81,8.06-1.89,8.65-.25,17.3-.05,25.96-.11,2.82-.02,5.07.38,4.85,3.96-1.7,1.79-3.65,3.4-5.05,5.4-3.82,5.46-7.41,11.07-11.09,16.63-1.13,1.53-2.77,2.91-3.28,4.63-1.79,5.96-3.19,12.04-4.73,18.07l-.95,2.4-1.04,8.89c-.21,8.35-.42,16.71-.63,25.06.21,1.02.43,2.04.65,3.06Z"/>
      <path class="cls-28" d="M344.41,645.85c23.58.27,47.17.75,70.75.71,8.89-.02,17.79-1.23,26.68-1.9-7.67,12.25-18.92,19.66-32.79,22.51-13.52,2.78-27.21,2.44-40.3-2.51-9.93-3.75-18.78-9.24-24.34-18.82Z"/>
      <path class="cls-28" d="M203.68,644.73c31.04-.03,62.08-.06,93.12-.09-24.3,31.61-67.23,32.13-92.34,1.9-.4-.48-.53-1.2-.78-1.81Z"/>
      <path class="cls-20" d="M88.84,613.65c16.33,0,32.66,0,48.99,0,0,6.96-.08,13.92.09,20.87.03,1.4,1.03,2.77,1.59,4.15.04,1.66.08,3.31.13,4.97-13.25,0-26.51.02-39.76.02-10.01,0-9.92,0-10.1-9.86-.04-2.06-1.03-4.1-1.58-6.15-.19-2-.38-3.99-.57-5.99.09-1.34.18-2.68.27-4.02.32-1.33.64-2.66.96-3.99Z"/>
      <path class="cls-17" d="M317.41,598.72c.49-8.98,1.03-17.95,1.4-26.93.07-1.71-.57-3.46-.88-5.19-1.09-7.19-1.78-14.49-3.44-21.55-.91-3.86-3.49-7.32-5.31-10.96-4.8-7.08-9.6-14.16-14.4-21.24-.3-4.32,3.11-4.95,5.93-5.06,8.27-.31,16.56-.11,24.85-.15,4.76-.02,4.73,4.24,6.39,7.01-.74,4.66-1.48,9.32-2.22,13.99-.26,1.01-.52,2.02-.78,3.03.07.99.15,1.99.22,2.98-.13,1.64-.26,3.28-.39,4.92-.36,3.26-.71,6.52-1.06,9.78-.34,2.79-.68,5.58-1.02,8.37.02.63.05,1.27.07,1.9-.06,1.04-.13,2.09-.19,3.13-.13,3.63-.25,7.25-.38,10.88.04,4.68.08,9.36.12,14.04.15,1.02.29,2.03.44,3.05.17,1.98.35,3.96.52,5.94.02,2.01.04,4.03.05,6.04-3.17-1.67-5.52-5.35-9.9-3.97Z"/>
      <path class="cls-27" d="M501.16,616.28c-.39-7.93-.81-15.87-1.17-23.8-.13-2.82-.66-6.05,3.91-5.71-3.11,5.47-2.88,5.87,3.48,5.88,9,.01,18,.03,27,0,4.6-.02,9.73,1.28,12.1-4.66.1-.26.92-.22,1.41-.32,1.4.71,2.77,1.91,4.22,2.02,2.79.21,3.72,1.38,3.69,4.07-.07,7.3.05,14.6.1,21.91-.69.75-1.39,1.49-2.08,2.23-.69-.22-1.38-.43-2.08-.65-.97-.13-1.95-.26-2.92-.39-1.33-.18-2.66-.36-4-.54-2.32-.21-4.64-.42-6.96-.64-5.33,0-10.66,0-15.99,0-1,.07-1.99.15-2.99.22-1,0-2.01,0-3.01,0-1.99.31-3.97.62-5.96.93-1.31.14-2.62.28-3.93.41-1.61-.32-3.22-.65-4.83-.97Z"/>
      <path class="cls-28" d="M88.18,627.65c.55,2.05,1.54,4.09,1.58,6.15.18,9.86.09,9.86,10.1,9.86,13.25,0,26.51-.01,39.76-.02.44,5.95,1.08,11.89,1.18,17.84.02,1.32-1.76,3.78-2.81,3.85-15.89.91-31.8,1.5-47.7,2.15-.47.02-.96-.19-2.11-.45v-39.38Z"/>
      <path class="cls-28" d="M139.5,638.67c-.55-1.38-1.55-2.76-1.59-4.15-.17-6.95-.08-13.91-.09-20.87.8-1.27,1.6-2.53,2.4-3.8-.24,9.61-.48,19.21-.72,28.82Z"/>
      <path class="cls-8" d="M521.88,615.68c5.33,0,10.66,0,15.99,0-5.33,0-10.66,0-15.99,0Z"/>
      <path class="cls-4" d="M538.87,623.74c-1.66-.34-3.33-.68-4.99-1.02.86-.65,2.14-2.03,2.49-1.82,1.03.62,1.7,1.85,2.51,2.84Z"/>
      <path class="cls-8" d="M509.92,616.84c1.99-.31,3.97-.62,5.96-.93-.34.58-.69,1.16-1.03,1.74-1.64-.27-3.29-.53-4.93-.8Z"/>
      <path class="cls-28" d="M88.84,613.65c-.32,1.33-.64,2.66-.96,3.99-.3-.05-.6-.07-.9-.07.09-1.66.19-3.32.28-4.98.53.35,1.05.71,1.58,1.06Z"/>
      <path class="cls-4" d="M514.85,617.64c.34-.58.69-1.16,1.03-1.74,1,0,2.01,0,3.01,0,.13,4.02-2.47,1.68-4.04,1.74Z"/>
      <path class="cls-8" d="M501.16,616.28c1.61.32,3.22.64,4.83.97-1.72.14-3.44.28-5.16.42.11-.46.22-.92.33-1.39Z"/>
      <path class="cls-8" d="M544.84,616.31c1.33.18,2.66.36,4,.54-1.33-.18-2.66-.36-4-.54Z"/>
      <path class="cls-17" d="M327.68,605.73c.29,1.32.57,2.63.86,3.95-.29-1.32-.57-2.63-.86-3.95Z"/>
      <path class="cls-4" d="M86.97,617.57c.3,0,.6.03.9.07-.09,1.34-.18,2.68-.27,4.02-.21-1.36-.43-2.73-.64-4.09Z"/>
      <path class="cls-4" d="M523.88,622.68c-1,.33-2,.65-3,.98.42-.93.84-1.86,1.26-2.78.58.6,1.16,1.21,1.74,1.81Z"/>
      <path class="cls-17" d="M316.36,603.68c.24-.98.47-1.96.71-2.94-.23.98-.47,1.96-.71,2.94Z"/>
      <path class="cls-17" d="M328.87,612.65c.3,1,.61,2.01.91,3.01-.3-1-.61-2.01-.91-3.01Z"/>
      <path class="cls-8" d="M454.08,615.72c-.06.98-.11,1.97-.17,2.95-.27.02-.53.05-.8.07-.04-.69-.07-1.38-.11-2.07.36-.32.72-.64,1.08-.95Z"/>
      <path class="cls-20" d="M314.9,606.66c.28-.67.57-1.35.85-2.02.05.68.1,1.35.15,2.03-.33-.02-.67-.02-1,0Z"/>
      <path class="cls-17" d="M314.9,606.66c.33-.01.67,0,1,0-.27.67-.54,1.33-.81,2-.06-.67-.12-1.34-.18-2.01Z"/>
      <path class="cls-17" d="M145.86,608.71c.66-.33,1.32-.66,1.99-1-.66.33-1.32.66-1.99,1Z"/>
      <path class="cls-17" d="M187.65,612.73c.26.65.51,1.31.77,1.96-.26-.65-.51-1.31-.77-1.96Z"/>
      <path class="cls-17" d="M188.74,616.69c.29.66.59,1.32.88,1.98-.29-.66-.59-1.32-.88-1.98Z"/>
      <path class="cls-8" d="M551.75,617.25c.69.21,1.38.43,2.08.65-.69-.21-1.38-.43-2.08-.65Z"/>
      <path class="cls-1" d="M294.78,512.85c4.8,7.08,9.6,14.16,14.4,21.24-2.7,1.18-5.4,3.37-8.11,3.39-30.42.24-60.85.24-91.28.06-4.7-.03-9.39-1.27-14.09-1.95,3.68-5.55,7.27-11.17,11.09-16.63,1.4-2,3.35-3.61,5.05-5.4,8.22-5.64,16.39-11.2,26.54-13.12,19.68-3.71,38.05-1.74,54.27,11.12.65.51,1.42.86,2.13,1.29Z"/>
      <path class="cls-1" d="M576.42,530.66c.13,1.67.25,3.34.38,5-32.27,0-64.53.05-96.8-.15-2.43-.02-4.85-1.9-7.27-2.91,1.05-1.99,2.11-3.97,3.16-5.96.6-.83,1.2-1.66,1.8-2.49,1.11-2.04,2.22-4.08,3.32-6.13.68-.79,1.36-1.58,2.04-2.38.97-.95,1.93-1.9,2.9-2.86,9.38-7.97,19.67-14.44,32.17-15.57,19.03-1.72,37.01,1.13,50.26,16.59,3.49,4.07,4.94,9.88,7.33,14.9.24.65.47,1.3.7,1.95Z"/>
      <path class="cls-2" d="M472.73,532.6c2.42,1.01,4.84,2.9,7.28,2.91,32.26.2,64.53.15,96.8.15.33.02.66.02.98.01,0,2.64,0,5.29.01,7.93-.26,1.35-.52,2.7-.78,4.04-.8,2.66-1.6,5.32-2.4,7.98-.85,1.48-1.71,2.96-2.57,4.44-1.32,2.22-2.64,4.44-3.96,6.66-11.87,0-23.74,0-35.48,0-.36-2.14-.62-3.63-.87-5.11.15-1.65.3-3.31.45-4.96.43-.34.86-.68,1.29-1.02-.43-.34-.87-.67-1.3-1.01-1.66-6.64-6.56-9.24-12.79-6.27-6.24,2.97-9,8.53-9.74,15.2-.25,1.37-.5,2.73-.75,4.1-.37.99-.73,1.98-1.1,2.96-.33-.02-.65.01-.97.11-.99-.34-1.97-.68-2.96-1.02-2.67-.69-5.33-1.38-8-2.07-.67-.24-1.33-.49-2-.73-.66-.11-1.31-.23-1.97-.34-.68-.27-1.35-.55-2.03-.82-1.16-.1-2.31-.19-3.47-.29-.84-.45-1.68-.9-2.53-1.36-.68-.13-1.36-.26-2.04-.38-4.21-1.33-8.47-2.53-12.59-4.09-1.26-.48-2.99-1.89-3.05-2.97-.56-8.72,1.81-16.74,6.54-24.08Z"/>
      <path class="cls-7" d="M403.2,523.21c-.53-4.43-.84-8.91-1.68-13.28-.52-2.71.05-4.01,2.79-4.58,13.28-2.78,26.53-5.73,39.84-8.36,1.04-.21,3.24,1.31,3.59,2.44,1.58,5.01,2.69,10.18,3.98,15.29.72,5.97,1.44,11.95,2.16,17.92.22,1,.45,2.01.67,3.01.18.66.37,1.33.55,1.99-.06,1.33-.12,2.66-.18,3.99-2.1.34-4.2.96-6.3.97-13.95.09-27.91.05-41.86.06l-1.24-6.9c-.77-4.18-1.54-8.36-2.31-12.54Z"/>
      <path class="cls-1" d="M47.35,539.6c.14-2.99.27-5.98.41-8.97.43-1.33.86-2.65,1.29-3.98.22-.68.45-1.37.67-2.05,2.12-8.49,4.09-17.03,6.53-25.43.33-1.15,3.17-2.53,4.55-2.26,13.66,2.66,27.25,5.69,40.89,8.49,3.45.71,3.59,2.81,3.01,5.54-1.03,4.88-2.02,9.76-3.02,14.64-.34,1.67-.68,3.34-1.03,5.01-.1,1.3-.2,2.61-.3,3.91-.53,1.7-1.07,3.41-1.6,5.11-17.13,0-34.27-.01-51.4-.02Z"/>
      <path class="cls-4" d="M405.52,535.75c.41,2.3.83,4.6,1.24,6.9-.06,1.02-.11,2.03-.17,3.05.11.98.22,1.97.33,2.95.09,2.55.18,5.1.27,7.66,0,10.55,0,21.1.01,31.65-.08,1.56-.16,3.12-.25,4.69-.26.77-.52,1.54-.77,2.31-1.02,3.26-1.55,6.8-3.19,9.71-2.12,3.77-5.62,5.77-10.37,5.28-5.09-.53-7.39-3.8-9.04-8.01-.45-.81-.91-1.61-1.37-2.42-.09-.63-.18-1.25-.27-1.88-.26-.7-.51-1.4-.77-2.11-.23-2.18-.45-4.36-.68-6.54-.39-1.83-.79-3.66-1.18-5.48-.2-4.62-.4-9.24-.61-13.87.21-4.95.42-9.9.63-14.86.4-2.83.79-5.65,1.19-8.48-.03-2.26-.06-4.52-.09-6.78,0,0,.45.14.45.14,3.37-1.52,2.1-3.78.97-6.02-.08-1.03-.17-2.06-.25-3.09.16.07.32.12.48.16,7.23-.02,14.47-.04,21.7-.06.57,1.7,1.14,3.39,1.72,5.09Z"/>
      <path class="cls-1" d="M328.78,539.57c.13-1.64.26-3.28.38-4.92.25-1,.49-1.99.74-2.99-.06-1.01-.12-2.02-.18-3.02.74-4.66,1.48-9.32,2.22-13.99,1.24-4.96,2.71-9.88,3.64-14.91.55-2.97,2.07-3.52,4.52-3.01,13.66,2.84,27.3,5.79,40.98,8.52,3.94.79,3.97,3.12,3.52,6.23-.93,6.4-1.68,12.82-2.5,19.23-.17-.04-.33-.09-.48-.16-.24,1.03-.49,2.07-.73,3.1,0,2,0,4,.01,6,0,0-.45-.14-.45-.14-17.23.02-34.45.04-51.68.05Z"/>
      <path class="cls-1" d="M175.73,523.68c.57,5.31,1.14,10.62,1.71,15.92-16.24.03-32.49.05-48.74.08-.64-4.01-1.27-8.03-1.91-12.04-.23-.68-.46-1.35-.69-2.03-1.29-5.16-2.44-10.36-3.92-15.47-.89-3.08-.24-4.63,3.05-5.3,12.7-2.59,25.36-5.31,38.03-8.05,2.93-.63,4.72.11,5.63,3.16,1.19,3.93,2.69,7.77,4.06,11.65.71,3.34,1.42,6.68,2.12,10.01.21.68.43,1.37.64,2.05Z"/>
      <path class="cls-2" d="M47.35,539.6c17.13,0,34.27.01,51.4.02.13.45.25.91.37,1.36-.02,4.12-.03,8.23-.05,12.35.43,1.81.85,3.61,1.28,5.41.06.66.13,1.32.19,1.98.37.99.74,1.98,1.12,2.97,1.05,1.99,2.11,3.98,3.16,5.96-1.83,1-3.64,2.82-5.49,2.86-14.43.24-28.86-.07-43.29.25-4.69.1-6.65-1.65-7.23-5.98-.15-1.1-1.08-2.1-1.65-3.14-.36-2.96-.73-5.93-1.09-8.89.1-3.37.19-6.74.29-10.11.33-1.68.66-3.36.99-5.04Z"/>
      <path class="cls-2" d="M128.71,539.69c16.25-.03,32.49-.05,48.74-.08.23,1,.45,1.99.68,2.99.03,5.03.05,10.06.08,15.09-.76,4.32-1.52,8.65-2.27,12.97-14.95,0-29.91.04-44.86-.07-2.26-.02-4.51-.74-6.77-1.13,5.77-9.29,4.35-19.64,4.41-29.77Z"/>
      <path class="cls-17" d="M453.88,532.64c-.72-5.97-1.44-11.95-2.16-17.92,1.39-5.36,5.15-6.45,10.17-6.16,5.64.33,11.31.17,16.97.04,3.33-.08,5.89.82,7.1,4.19-.97.95-1.93,1.91-2.9,2.86-.68.79-1.36,1.58-2.04,2.38-1.11,2.04-2.22,4.08-3.32,6.13-.6.83-1.2,1.66-1.8,2.49-1.05,1.99-2.11,3.97-3.16,5.96-4.73,7.33-7.1,15.36-6.54,24.07.07,1.08,1.8,2.5,3.05,2.97,4.12,1.56,8.38,2.75,12.59,4.09-1.83.38-4.22,1.69-5.38.98-5.88-3.58-12.27-2.92-18.6-3.06-.29-.35-.57-.7-.86-1.05-.37-6.32-.75-12.64-1.12-18.96-.26-1.33-.52-2.67-.77-4-.18-.66-.37-1.33-.55-1.99-.22-1-.45-2.01-.67-3.01Z"/>
      <path class="cls-16" d="M405.52,535.75c-.57-1.7-1.14-3.39-1.72-5.09-.2-2.48-.4-4.96-.6-7.45.77,4.18,1.55,8.36,2.32,12.54Z"/>
      <path class="cls-28" d="M99.13,540.98c-.12-.45-.25-.91-.37-1.36.53-1.7,1.07-3.41,1.6-5.11-.41,2.16-.82,4.31-1.22,6.47Z"/>
      <path class="cls-28" d="M100.36,558.74c-.43-1.8-.86-3.61-1.28-5.41.43,1.8.86,3.61,1.28,5.41Z"/>
      <path class="cls-28" d="M100.65,530.6c.34-1.67.69-3.34,1.03-5.01-.34,1.67-.69,3.34-1.03,5.01Z"/>
      <path class="cls-28" d="M101.67,563.7c-.37-.99-.74-1.98-1.12-2.97.37.99.74,1.98,1.12,2.97Z"/>
      <path class="cls-2" d="M576.42,530.66c-.23-.65-.47-1.3-.7-1.95.23.65.47,1.3.7,1.95Z"/>
      <path class="cls-2" d="M126.11,525.63c.23.68.46,1.35.69,2.03-.23-.68-.46-1.35-.69-2.03Z"/>
      <path class="cls-2" d="M49.72,524.59c-.22.68-.45,1.37-.67,2.05.22-.68.45-1.37.67-2.05Z"/>
      <path class="cls-19" d="M253.84,61.42c15.11-7.05,30.95-6.79,46.98-4.73,1.67.63,3.35,1.26,5.02,1.89.67.32,1.34.63,2.02.95,1.25.38,2.49.76,3.74,1.14.76.61,1.51,1.22,2.27,1.82,1.9,1.31,3.88,2.52,5.69,3.95,9.03,7.14,16.71,15.3,19.75,26.86-2.58,1.08-5.15,3.09-7.73,3.11-33.13.21-66.25.21-99.38,0-2.58-.02-5.15-2.01-7.73-3.08,1.21-2.59,2.42-5.18,3.63-7.77l1.76-2.03c2.58-3.44,4.69-7.42,7.86-10.2,5.01-4.4,10.72-7.99,16.14-11.92Z"/>
      <path class="cls-19" d="M351.03,56.63c5.73-.64,11.45-1.39,17.19-1.9,9.22-.82,18.44-1.55,27.67-2.15,1.69-.11,3.44.63,5.16.97.31,2.99.61,5.99.92,8.98.3,1.34.59,2.67.89,4.01.63,5.68,1.27,11.36,1.9,17.04.28.66.56,1.32.85,1.98.11,1.65.23,3.3.34,4.94-.77,6.16-5.01,6.25-9.9,6.11-9.25-.26-18.53.11-27.78-.17-3.83-.12-7.62-1.24-11.43-1.91-1.93-12.64-3.87-25.29-5.8-37.93Z"/>
      <path class="cls-19" d="M72.82,93.55c-.13-1.66-.27-3.33-.4-4.99-.49-3.08-.99-6.16-1.48-9.23-.05-3.59-.11-7.18-.16-10.77.16-9.97.18-9.69,10.36-10.18,12.88-.63,25.73-1.85,38.6-2.63,2.7-.16,5.46.52,8.19.81-.03,1.66-.07,3.33-.1,4.99-.2,1-.39,2.01-.59,3.01-.2,4.65-.41,9.31-.61,13.96-3.38,3.08-1.92,6.57-.84,10.03.07,2,.13,4.01.2,6.01-.1.33-.19.65-.29.98-1.99,0-4,.12-5.98,0-15.62-.95-31.42,2.19-46.91-1.98Z"/>
      <path class="cls-9" d="M351.03,56.63c1.93,12.64,3.87,25.29,5.8,37.93,1.99,10.67,3.99,21.34,5.98,32.01.16,1.3.24,2.61.49,3.89,1.54,8.02,3.11,16.04,4.67,24.06-6.37-.9-12.73-1.81-19.1-2.71.05.47.1.95.15,1.42-1.06,1.78-2.11,3.56-3.17,5.34.64-9.01,1.28-18.01,1.93-27.02-.76-7.49-.96-15.1-2.47-22.44-1.12-5.45-3.94-10.54-6.01-15.8-3.04-11.56-10.72-19.72-19.75-26.86-1.81-1.43-3.79-2.64-5.69-3.95-.76-.61-1.51-1.22-2.27-1.82-1.25-.38-2.49-.76-3.74-1.14-.67-.32-1.34-.63-2.02-.95-1.67-.63-3.35-1.26-5.02-1.89,1.26-.71,2.52-2.03,3.79-2.05,13.66-.15,27.32-.17,40.98,0,1.82.02,3.63,1.3,5.44,1.99Z"/>
      <path class="cls-19" d="M163.86,58.8c13.67-1.24,27.33-2.49,41.56-3.78.19,2.36.31,3.94.43,5.53-.33,4-.66,8.01-.99,12.01-.21,1.33-.43,2.66-.64,3.99-.19,3.33-.38,6.66-.57,9.99-.26,1.67-.53,3.35-.8,5.02l-.05,1.99c-17.92,0-35.84-.02-53.76-.03-.07-2.99-.15-5.98-.22-8.97-.21-1.67-.42-3.35-.62-5.02-.19-3.66-.37-7.32-.55-10.98.06-1.67.11-3.33.17-5,1.68-1.23,3.36-2.47,5.04-3.7,2.99-.12,5.98-.23,8.97-.35.68-.23,1.36-.47,2.04-.7Z"/>
      <path class="cls-19" d="M426.85,57.53c5.2-.31,10.4-.65,15.6-.92,1.8-.1,3.62-.05,5.43-.06,9.67.33,19.34.65,29.01.98,1,.32,2.01.65,3.01.97.11,1.68.22,3.36.34,5.04.22,1,.44,2,.67,3,.29,4.02.58,8.04.87,12.06.28.99.56,1.98.83,2.97.09.99.19,1.99.28,2.98-.31.56-.94,1.15-.89,1.68.45,5.55-2.48,6.53-7.37,6.42-12.81-.29-25.62-.1-38.44-.1q-10.11,0-10.38-10.16c0-4.3-.02-8.59-.03-12.89.28-1.32.56-2.64.83-3.96.08-2.67.17-5.34.25-8.01Z"/>
      <path class="cls-19" d="M553.14,70.57c-1.13,4.99-2.25,9.98-3.38,14.97-.29.67-.57,1.35-.86,2.02-.38,1.99-.77,3.98-1.15,5.98-11.38.34-22.75.72-34.13.98-1.78.04-3.58-.4-5.35-.72-2.86-.52-3.7-2.1-3.08-5.02.41-1.95-.05-4.08-.12-6.13.61-4.69,1.22-9.39,1.83-14.08.29-1.01.58-2.01.87-3.02.43-3.63.86-7.27,1.29-10.9,1.15-2.02,2.37-2.79,5.14-2.37,11.63,1.76,23.34,2.97,35.01,4.43,5.99.75,5.99.8,5.54,8.82-.27,1.02-.54,2.03-.81,3.05-.27.66-.54,1.33-.81,1.99Z"/>
      <path class="cls-9" d="M203.65,86.54c.19-3.33.38-6.66.57-9.99.21-1.33.43-2.66.64-4,.33-4,.66-8.01.99-12.01.33-.06.84,0,.95-.18,3.71-6.19,9.8-4.78,15.4-4.81,9.45-.04,18.9-.02,28.35,0,1.58,0,3.17.16,5.12.27-.73,2.23-1.29,3.91-1.84,5.6-5.42,3.93-11.13,7.52-16.14,11.92-3.16,2.78-5.27,6.76-7.86,10.2-.59.68-1.17,1.35-1.76,2.03-1.21,2.59-2.42,5.18-3.62,7.77-.89,1.14-2.23,2.15-2.59,3.44-2.46,8.89-4.71,17.85-7.03,26.78-.24.68-.47,1.35-.71,2.03-.07,1.98-.13,3.97-.2,5.95-.09,5.68-.17,11.37-.26,17.05-.61-1.51-1.61-2.98-1.76-4.53-.51-5.24-.58-10.54-1.16-15.77-.14-1.27-1.61-2.38-2.47-3.57-.88,1.05-1.93,2-2.61,3.16-1.07,1.82-1.89,3.78-2.82,5.68-.09-4.34-.18-8.69-.26-13.03.15-6.99.31-13.98.46-20.97,3.28-2.37,1.99-5.19.8-8.01-.06-1.67-.12-3.34-.18-5.01Z"/>
      <path class="cls-9" d="M506.91,68.56c-.61,4.69-1.22,9.39-1.83,14.08-.39.66-1.04,1.3-1.13,2-1.74,13.63-3.42,27.27-5.1,40.91-.66,4.68-1.29,9.37-2.01,14.04-.34,2.21-.87,4.4-1.32,6.6-1.25-.7-1.47-1.14-1.57-1.61-1.72-8.33-3.42-16.66-5.12-24.99-.63-3.67-1.27-7.35-1.89-11.02-1.36-8-2.71-16.01-4.06-24.01-.09-.99-.19-1.99-.28-2.98-.28-.99-.56-1.98-.84-2.97-.29-4.02-.58-8.04-.87-12.06-.22-1-.44-2-.67-3-.11-1.68-.22-3.36-.34-5.04-1-.32-2.01-.65-3.01-.97-9.67-.33-19.34-.65-29.01-.98,1.42-1,2.82-2.85,4.25-2.87,17.56-.2,35.12-.16,52.68-.08,1.43,0,2.85.68,4.27,1.05-.43,3.63-.86,7.27-1.29,10.9-.29,1.01-.58,2.01-.87,3.02Z"/>
      <path class="cls-9" d="M147.65,68.55c.19,3.66.37,7.32.55,10.98.21,1.67.42,3.35.63,5.02.07,2.99.15,5.98.22,8.97.26,9.01.52,18.02.79,27.04.43,4.01-1.49,5.32-5.31,4.97-4.94-.46-9.91-.88-14.87-.85-3.2.02-4.09-1.41-4.04-4.15.03-8.33.06-16.66.09-24.99.1-.33.19-.65.28-.98,3.16-1.65,2.05-3.84.76-6.05-.04-3.33-.08-6.66-.12-9.99.2-4.65.41-9.31.61-13.96.19-1,.39-2.01.59-3.01.03-1.66.06-3.33.1-4.99,6.71-.46,13.42-.92,20.52-1.41-.69,2.78-1.14,4.62-1.6,6.45,0,.64,0,1.29,0,1.93.26,1.67.52,3.35.78,5.02Z"/>
      <path class="cls-9" d="M425.76,69.5c0,4.3.02,8.59.03,12.89-.62,1.19-1.7,2.35-1.78,3.57-.8,12.86-1.44,25.72-2.13,38.58-.88,7.7-1.76,15.39-2.64,23.09-.26.03-.53.07-.79.1-1.85-7.4-3.7-14.79-5.55-22.19-.09-1.32-.18-2.65-.27-3.97-.27-.67-.54-1.34-.81-2-1.96-9.69-3.92-19.37-5.87-29.06-.11-1.65-.23-3.3-.34-4.94-.28-.66-.57-1.32-.85-1.98-.63-5.68-1.27-11.36-1.9-17.04-.3-1.34-.59-2.67-.89-4.01-.31-2.99-.61-5.99-.92-8.98,6.59-.34,13.21-1.09,19.76-.77,2.08.1,4.03,3.08,6.03,4.74-.08,2.67-.17,5.34-.25,8.01-.28,1.32-.56,2.64-.84,3.96Z"/>
      <path class="cls-2" d="M146.87,63.53c0-.64,0-1.29,0-1.93,2-.58,4-1.17,5.99-1.75-1.68,1.24-3.36,2.47-5.04,3.7-.32,0-.64-.01-.95-.02Z"/>
      <path class="cls-2" d="M163.86,58.8c-.68.23-1.36.47-2.04.7.68-.23,1.36-.47,2.04-.7Z"/>
      <path class="cls-7" d="M248.84,305.59c-.35-6.46-.33-12.96-1.15-19.36-.67-5.24,2.09-6.28,6.14-6.48,6.63-.34,13.26-.58,19.89-.89,10.09-.47,20.18-.96,30.75-1.46.26,2.87.48,5.24.77,8.42,2.79-2.11,5.01-3.95,7.39-5.55,17.96-12.03,44.96-3.75,55.37,12.04.81,1.23,1.84,2.31,2.77,3.46,2.05,7.27,4.1,14.53,6.15,21.8.21,1.35.43,2.7.64,4.05,0,1.98,0,3.96,0,5.95-3.16.68-6.31,1.9-9.48,1.94-15.8.21-31.6.12-47.4.13-.63-1.86-1.14-3.77-1.91-5.57-2.69-6.35-9.27-7.49-13.71-2.27-1.09,1.27-1.41,3.2-2.09,4.82-12.48,0-24.96.07-37.43-.06-4.95-.05-9.9-.59-14.85-.9-.62-6.69-1.25-13.37-1.87-20.06Z"/>
      <path class="cls-1" d="M503.82,300.59v27.8c-2.74,0-4.83,0-6.92,0-1.91-4.84-4.5-2.8-7.08-.69-13.97,0-27.95-.02-41.92-.02-1.87-.36-3.73-1.03-5.6-1.04-18.2-.09-36.41-.06-54.61-.07-.28-3.99-.56-7.98-.84-11.98-.15-1.35-.31-2.69-.46-4.04-.23-3.32-.47-6.64-.7-9.96.1-1.68.19-3.35.29-5.03.98-3.86,1.96-7.73,2.93-11.59,1-.11,1.99-.22,2.99-.33.67-.23,1.35-.46,2.02-.7,20.34-1.76,40.67-3.51,61.01-5.27,6.08.28,12.15.6,18.23.76.57.02,1.17-.94,1.76-1.45,9.24-.11,18.49-.22,27.74-.33.14.96.27,1.91.41,2.87,0,2.04-.01,4.09-.02,6.13.26,4.97.53,9.95.8,14.92Z"/>
      <path class="cls-7" d="M134.7,317.31c1.71-5.91,3.42-11.81,5.13-17.72,2.64-6.22,5.48-12.38,7.85-18.7,1.38-3.69,3.66-4.55,7.26-4.14,17.75,2.04,35.51,4.01,53.28,5.86,4.35.45,7.24,1.94,8.74,6.48,1.86,5.64,4.54,11.02,6.87,16.51,1.05,3.66,2.11,7.33,3.16,10.99-.03.66-.06,1.33-.09,1.99.28.68.57,1.36.85,2.04.61,2.67,1.23,5.34,1.84,8.01-30.37,0-60.75,0-91.13-.03-5.77,0-6.36-.99-4.46-6.46.52-1.51.48-3.21.7-4.82Z"/>
      <path class="cls-8" d="M385.68,300.6c.23,3.32.47,6.64.7,9.96.15,1.35.31,2.69.46,4.04.28,3.99.56,7.98.84,11.98,0,1.97,0,3.95,0,5.9,3.22.18,5.47.31,7.43.43-.71,12.88-1.39,25.28-2.07,37.68.1,7.33.21,14.66.31,21.99-.13.67-.27,1.34-.4,2.01-8.41-.46-16.82-.93-24.67-1.36-.97,3.31-1.67,5.71-2.38,8.12-.27.1-.54.15-.82.15-2.73-5.44-5.27-10.99-8.24-16.3-2.94-5.25-3.02-9.74,2.2-13.53,13.14-11.78,17.58-27.21,18.54-44.11,0-1.98,0-3.96,0-5.95-.21-1.35-.43-2.7-.64-4.05-2.05-7.27-4.1-14.53-6.15-21.8-.68-4.78,1-7.02,6.16-6.25,2.56.39,5.22.07,7.83.08.07,1.97.14,3.95.21,5.92.23,1.69.47,3.39.7,5.08Z"/>
      <path class="cls-8" d="M226.99,316.58c-1.05-3.66-2.11-7.33-3.16-10.99.32-.08.86-.07.92-.25,3.2-8.76,10.69-5.72,16.59-5.37,2.61.15,5.01,3.64,7.51,5.61.62,6.69,1.25,13.37,1.87,20.06.15,4.65.3,9.3.45,13.95-.1,2.33-.2,4.66-.3,7,.22,3.34.44,6.68.65,10.02l.52,12.97c.02,3.34.03,6.67.05,10.01-.08,6.34-.17,12.68-.25,19.02-3.96,0-7.92,0-11.89,0-.51-4.65-1.01-9.3-1.52-13.94-.21-1.01-.42-2.02-.63-3.04-.11-2.32-.21-4.65-.31-6.97-.81-4.44-1.62-8.89-2.44-13.33-1.06-8.58-2.13-17.15-3.19-25.73-.25-.67-.51-1.34-.76-2.01-.51-1.65-1.02-3.31-1.52-4.96-.61-2.67-1.23-5.34-1.84-8.01.04-.67.09-1.35.13-2.02-.29-.67-.59-1.34-.88-2.01Z"/>
      <path class="cls-29" d="M474.9,277c-.59.51-1.19,1.47-1.76,1.45-6.08-.17-12.15-.49-18.23-.76,6.66-.23,13.33-.46,19.99-.69Z"/>
      <path class="cls-26" d="M503.82,300.59c-.27-4.97-.53-9.95-.8-14.92.28-.02.57-.04.85-.08.33,5,.67,10,1,15-.35,0-.7,0-1.06,0Z"/>
      <path class="cls-29" d="M384.98,295.52c-.07-1.97-.14-3.95-.21-5.92.21-2.73-.3-5.99,4.13-5.63-.98,3.87-1.96,7.73-2.93,11.59-.33-.02-.66-.03-.99-.05Z"/>
      <path class="cls-29" d="M503.88,285.59c-.28.04-.57.06-.85.08,0-2.04.02-4.09.02-6.13.28,0,.55.01.83.05v6Z"/>
      <path class="cls-26" d="M503.88,279.59c-.28-.04-.55-.05-.83-.05-.13-.96-.27-1.91-.41-2.87.41.97.82,1.95,1.24,2.92Z"/>
      <path class="cls-29" d="M393.9,282.95c-.67.23-1.35.46-2.02.7.67-.23,1.35-.46,2.02-.7Z"/>
      <path class="cls-12" d="M412.9,125.55c1.85,7.4,3.7,14.79,5.55,22.19.26-.03.53-.07.79-.1.88-7.7,1.76-15.39,2.64-23.09,4.76.33,9.52.92,14.28.96,14.58.13,29.16-.17,43.73.17,4.91.11,8.17-.79,8.92-6.09,1.7,8.33,3.4,16.66,5.12,24.99.1.47.32.91,1.57,1.61.45-2.2.98-4.38,1.32-6.6.72-4.67,1.35-9.36,2.01-14.04,13.71,0,27.41.02,41.12.03-.68,4-1.35,7.99-2.03,11.99-1.56,6.08-3.14,12.15-4.68,18.24-.57,2.24-1.05,4.49-1.58,6.74-3.69,1.01-7.37,2.87-11.07,2.89-44.73.2-89.46.14-134.19.12-5.37,0-10.94.88-15.58-2.99,0,0-.23.08-.23.08-.28-.69-.56-1.37-.85-2.06-.6-2.02-1.21-4.05-1.81-6.07-1.56-8.02-3.13-16.04-4.67-24.06-.24-1.28-.33-2.59-.49-3.89,4.7.66,9.37,1.68,14.09,1.91,6.63.33,13.29.1,19.94.08,5.53-.02,11.25.87,16.06-3.01Z"/>
      <path class="cls-27" d="M370.86,162.57c4.64,3.87,10.21,2.98,15.58,2.99,44.73.02,89.46.08,134.19-.12,3.69-.02,7.38-1.88,11.07-2.89-2.57,10.35-5.13,20.69-7.7,31.04-.42,1.65-.84,3.31-1.26,4.96-6.54.68-13.06,1.75-19.61,1.94-11.15.32-22.31-.06-33.46.15-5.31.1-10.18-.26-13.52-5.09-.47-1.65-.94-3.3-1.41-4.95-.3-.67-.61-1.34-.91-2.01-.31-1.01-.61-2.02-.92-3.03-.37-1.47-.75-2.95-1.12-4.42-.4,0-.8-.02-1.2-.03-.47,1.84-.95,3.67-1.42,5.51-.08.99-.15,1.98-.23,2.96-.3.67-.6,1.34-.9,2.02-.76,2.65-1.51,5.3-2.27,7.95-4.44.34-8.88.92-13.33.97-12.14.14-24.28-.02-36.41.08-5.27.05-10.55.46-15.07-3.04-3.05-9.99-6.1-19.98-9.15-29.97-.3-.68-.61-1.35-.92-2.03,0-1-.01-2-.02-2.99Z"/>
      <path class="cls-5" d="M229.94,198.54c-1.67-2.33-3.34-4.66-5.01-6.98-.55-1.69-1.06-3.39-1.65-5.06-2.1-5.98-4.23-11.96-6.34-17.94,2.4,1,4.8,2.86,7.19,2.85,14.92-.05,29.84-.52,44.77-.84,1.67,2.83,3.05,5.88,5.06,8.44,3.69,4.69,9.44,4.32,12.91-.56,1.62-2.28,3.16-4.61,4.73-6.92,2.46.35,4.92,1.03,7.37.99,14.29-.22,28.57-.62,42.86-.95-3.82,8.01-7.5,16.09-11.55,23.98-1.33,2.59-3.61,4.69-5.46,7.02-7.04.67-14.08,1.83-21.13,1.92-19.6.27-39.2.02-58.8.14-5.07.03-10.02.52-12.76-5.11-.27-.55-1.44-.66-2.18-.98Z"/>
      <path class="cls-24" d="M74.9,187.56c.06-9.67.12-19.35.17-29.02,42.53,0,85.06,0,127.59,0,.11,4,.23,8,.34,12.01-.04,3-.08,6-.12,9.01-3.16,1-6.29,2.81-9.47,2.87-14.55.31-29.1.13-43.66.13-.06-3.01-.12-6.03-.18-9.04-.41-2.78,2.31-6.67-2.76-7.79-3.66.31-7.31.62-10.97.92-1.64-.02-3.29.12-4.9-.09-4.12-.53-5.5,1.17-5.18,5.24.33,4.23.09,8.51.1,12.76-1.2,5.06-4.42,6.27-9.44,6.13-13.74-.38-27.49-.16-41.24-.18-.09-.98-.18-1.97-.28-2.95Z"/>
      <path class="cls-11" d="M341.83,171.56c-14.29.33-28.57.73-42.86.95-2.45.04-4.91-.64-7.36-.99,1.09-5.95,2.65-11.87,3.14-17.87.6-7.34.3-14.74.4-22.12,17.54,0,35.08.01,52.63.02-.64,9.01-1.28,18.01-1.93,27.02-.74,2.66-1.48,5.32-2.22,7.98-.24.68-.49,1.36-.73,2.04-.36.99-.71,1.99-1.07,2.98Z"/>
      <path class="cls-6" d="M75.17,190.51c13.75.02,27.5-.2,41.24.18,5.02.14,8.24-1.07,9.44-6.13.33,0,.65,0,.98,0,.05,4.34.09,8.68.14,13.02.03,5.32.05,10.63.08,15.95-.06,2.35-.11,4.7-.17,7.06-2,.06-4.01.11-6.01.16-2.01.28-4.02.56-6.03.83-10.83.95-21.67,1.75-32.48,2.92-6.7.72-7.86-.42-7.56-7.15.4-8.94.27-17.9.36-26.85Z"/>
      <path class="cls-25" d="M456.12,195.55c3.33,4.83,8.21,5.18,13.52,5.09,11.15-.21,22.32.17,33.46-.15,6.55-.19,13.08-1.26,19.61-1.94-1.65,6.55-3.13,13.15-5.09,19.61-.43,1.42-2.44,3.04-3.96,3.32-3.87.72-7.87.85-11.83,1.01-10.59.41-21.18.83-31.78.91-1.69.01-4.39-1.36-4.94-2.76-3.27-8.25-6.05-16.7-9-25.08Z"/>
      <path class="cls-25" d="M229.94,198.54c.75.32,1.92.43,2.18.98,2.74,5.63,7.7,5.14,12.76,5.11,19.6-.13,39.21.12,58.8-.14,7.05-.1,14.09-1.25,21.13-1.92-8.89,10.94-19.87,18.52-33.93,21.15-1.01.31-2.02.62-3.02.93-6.01,0-12.02,0-18.04,0-1.01-.31-2.02-.62-3.02-.93-16.55-2.16-28.19-11.49-36.87-25.18Z"/>
      <path class="cls-25" d="M380.94,197.56c4.52,3.51,9.8,3.09,15.07,3.04,12.14-.1,24.28.06,36.41-.08,4.45-.05,8.89-.63,13.33-.97-1.46,6.61-2.67,13.29-4.56,19.77-.41,1.42-3.23,2.95-4.99,3.03-13.78.6-27.58.98-41.38,1.08-1.82.01-4.66-1.51-5.32-3.04-3.18-7.47-5.77-15.19-8.57-22.82Z"/>
      <path class="cls-5" d="M149.75,182.56c14.55,0,29.11.18,43.66-.13,3.18-.07,6.31-1.87,9.47-2.87.32,0,.65,0,.97,0,.07,3.34.15,6.69.22,10.03-.05,3.66-.09,7.31-.14,10.97-15.78,0-31.55-.09-47.33.08-3.96.04-6.8-.79-7.66-5.06.27-4.34.54-8.68.8-13.03Z"/>
      <path class="cls-6" d="M148.95,195.58c.86,4.26,3.69,5.1,7.66,5.06,15.77-.17,31.55-.08,47.33-.08.55,5,1.09,9.99,1.64,14.99-3.94.34-7.88.95-11.83.98-15.29.12-30.59.05-45.88.05.08-4.33.16-8.67.23-13,.44-.33.89-.66,1.33-.99-.44-.34-.87-.68-1.31-1.02-.07-1.34-.14-2.67-.2-4.01.35-.66.69-1.32,1.04-1.98Z"/>
      <path class="cls-26" d="M204.07,189.59c-.07-3.34-.15-6.69-.22-10.03,1.09-3.13,2.48-6.3-.85-9.01-.11-4-.23-8-.34-12.01.06-8.33.12-16.66.18-24.99.93-1.9,1.75-3.86,2.82-5.68.68-1.16,1.73-2.11,2.61-3.16.86,1.19,2.33,2.3,2.47,3.57.58,5.23.65,10.53,1.16,15.77.15,1.55,1.15,3.02,1.76,4.53,1.09,6.66,2.18,13.31,3.26,19.97,2.12,5.98,4.24,11.95,6.34,17.94.59,1.67,1.1,3.38,1.65,5.06-6.95-.65-13.91-1.31-20.87-1.96Z"/>
      <path class="cls-26" d="M148.95,195.58c-.35.66-.69,1.32-1.04,1.98-6.98,0-13.96.02-20.94.03-.05-4.34-.09-8.68-.14-13.02.33-.89,1-1.8.94-2.67-.44-6.47.08-12.31,7.78-14.35.17-.04.2-.6.29-.91,3.66-.31,7.31-.62,10.97-.93.37,2.79-1.26,6.3,2.76,7.8.06,3.01.12,6.03.18,9.04-.27,4.34-.54,8.68-.81,13.03Z"/>
      <path class="cls-28" d="M147.86,216.58c15.29,0,30.59.07,45.88-.05,3.95-.03,7.89-.64,11.83-.98,0,2.78,0,5.55,0,9.21-9.41-.56-18.43-1.03-27.44-1.66-5.11-.36-10.2-.99-15.29-1.5-1.68-.28-3.36-.55-5.05-.83-2.63-.06-5.25-.1-7.88-.17-3.11-.09-3.86-1.4-2.05-4.02Z"/>
      <path class="cls-18" d="M449.15,186.62c.47-1.84.95-3.67,1.42-5.51.4,0,.8.02,1.2.03.37,1.47.75,2.95,1.12,4.42-1.25.35-2.49.71-3.74,1.06Z"/>
      <path class="cls-18" d="M126.88,220.59c.06-2.35.11-4.7.17-7.06,2.78,2.42,3.04,4.78-.17,7.06Z"/>
      <path class="cls-18" d="M114.84,221.59c2.01-.28,4.02-.56,6.03-.83-2.01.28-4.02.56-6.03.83Z"/>
      <path class="cls-9" d="M157.79,220.76c1.68.28,3.36.55,5.05.83-1.68-.28-3.36-.55-5.05-.83Z"/>
      <path class="cls-9" d="M287.87,224.64c1.01-.31,2.02-.62,3.02-.93-1.01.31-2.02.62-3.02.93Z"/>
      <path class="cls-9" d="M266.81,223.72c1.01.31,2.02.62,3.02.93-1.01-.31-2.02-.62-3.02-.93Z"/>
      <path class="cls-18" d="M448.02,191.6c.3-.67.6-1.34.9-2.02-.3.67-.6,1.34-.9,2.02Z"/>
      <path class="cls-28" d="M148.11,201.57c.44.34.87.68,1.31,1.02-.45.33-.89.66-1.33.99,0-.67.02-1.34.02-2.01Z"/>
      <path class="cls-9" d="M369.78,160.59c.28.69.57,1.37.85,2.06-.28-.69-.57-1.37-.85-2.06Z"/>
      <path class="cls-9" d="M370.87,165.56c.31.67.61,1.35.92,2.03-.31-.67-.61-1.35-.92-2.03Z"/>
      <path class="cls-5" d="M342.9,168.58c.24-.68.49-1.36.73-2.04-.25.68-.49,1.36-.73,2.04Z"/>
      <path class="cls-18" d="M453.8,188.59c.3.67.61,1.34.91,2.01-.3-.67-.61-1.34-.91-2.01Z"/>
      <path class="cls-24" d="M237.49,374.65c.11,2.32.21,4.65.32,6.97.21,1.01.42,2.02.63,3.04.51,4.65,1.01,9.3,1.52,13.94-.09,1.02-.18,2.05-.27,3.07-.28,1.64-.56,3.29-.84,4.93-14.17,0-28.33-.06-42.5.05-3.5.03-7,.61-10.5.94-5-.36-9.99-.72-14.99-1.08-1.47-.54-2.98-1.63-4.41-1.53-4.75.32-9.46,1.46-14.2,1.55-12.11.23-24.23.07-36.35.07-.07-1.01-.13-2.02-.2-3.02.66-5.34,1.33-10.67,1.99-16.01.27-1.01.53-2.02.8-3.03.1-1.31.21-2.62.31-3.94.25-.68.49-1.37.74-2.05.16-2.22.32-4.44.47-6.67.48-1.11.95-2.22,1.43-3.33.09-1,.19-2,.28-3.01,0,0,.47,0,.47,0h.47c1.39,3.74,4.28,4.18,7.87,4.13,13.4-.18,26.8-.08,40.21-.08-.28,3.07-.56,6.13-.85,9.37h15.9c-.39-3.48-.73-6.41-1.06-9.34,17.02-.01,34.04-.02,51.07-.04.56,1.69,1.12,3.38,1.69,5.06Z"/>
      <path class="cls-24" d="M252.09,379.59c-.02-3.34-.03-6.67-.05-10.01,6.56,4.08,13.88,3.06,21.02,3,28.66-.25,57.32-.6,85.98-.91-5.22,3.78-5.14,8.27-2.2,13.53,2.97,5.31,5.51,10.86,8.23,16.3-2.01,1.04-4.02,2.97-6.02,2.96-16.45-.07-32.89-.5-49.33-.82-1.63-6.34-3.27-12.69-4.9-19.03-.63.04-1.26.08-1.89.13v16.87c-1.53,4.19-4.95,5.02-8.86,5.01-13.89-.03-27.78-.05-41.67-.07-.02-1.97-.04-3.95-.06-5.92.48-.59,1.39-1.16,1.4-1.76.11-5.73.13-11.47,0-17.2-.02-.7-1.07-1.38-1.64-2.06Z"/>
      <path class="cls-5" d="M392.95,394.59c.13-.67.27-1.34.4-2.01,2.1.34,4.21.97,6.32.98,13.08.09,26.17.15,39.25-.06,2.09-.03,4.16-1.43,6.23-2.2,5.37,7.23,8.39,8.17,17.28,4.5,8.53-3.52,16.99-7.22,25.28-11.25,3.22-1.56,4.85-.92,6.14,2.05.44,2,.88,3.99,1.32,5.99,1.21,2.71,2.43,5.43,3.64,8.14.32,1.64.64,3.28.96,4.91.32.65.64,1.31.97,1.96,1.06,3.33,2.11,6.66,3.17,9.99-6.66.67-13.32,1.84-19.99,1.91-22.45.24-44.9.14-67.34.06-5.8-.02-12.03,1.53-16.72-3.76-.32-.36-1.28-.16-1.94-.22-.74-2.33-1.48-4.65-2.21-6.98.05-.67.09-1.34.14-2.01-.28-.67-.56-1.34-.83-2.02-.2-.99-.41-1.97-.61-2.96-.22-.66-.43-1.33-.65-1.99-.27-1.69-.53-3.37-.8-5.06Z"/>
      <path class="cls-6" d="M397.92,415.61c.66.06,1.62-.14,1.94.22,4.69,5.29,10.92,3.74,16.72,3.76,22.45.07,44.9.18,67.34-.06,6.67-.07,13.32-1.25,19.99-1.91,1,2.34,2,4.67,3,7.01-6.24,4.58-11.99,10.13-18.82,13.53-14.86,7.41-31,10.62-47.6,10.34-22.15-.38-36.38-11.45-42.56-32.87Z"/>
      <path class="cls-6" d="M252.4,406.54c13.89.02,27.78.04,41.67.07,3.91,0,7.33-.82,8.86-5.01.32,8.09.58,16.19.98,24.27.15,2.92.64,5.82.97,8.73-.59,2.89,1.8,7.37-4,7.45-1.33.21-2.66.42-4,.63-6.33.36-12.66.72-18.99,1.07-1.69.26-3.37.53-5.06.79-3.64.12-7.28.24-10.92.36-1.69.23-3.38.47-5.07.7-1.45-.11-2.89-.21-4.65-.34,0-8.55-.02-16.78,0-25.01.02-4.57.12-9.15.19-13.72Z"/>
      <path class="cls-6" d="M309.72,403.64c16.44.32,32.89.75,49.33.82,2,0,4.01-1.93,6.02-2.96.28,0,.56-.05.83-.15,3.06,4.34,5.95,8.82,9.26,12.96,1.87,2.34,2.12,4.02-.38,5.77-12.1,8.5-24.12,17.11-36.43,25.29-1.28.85-4.76-.21-6.35-1.47-7.62-6.05-11.72-14.71-16.19-23.05-.39-.73-.77-1.47-1.16-2.2-.55-.76-1.11-1.53-1.67-2.29-.08-.57-.16-1.15-.24-1.72-1.01-3.66-2.02-7.32-3.03-10.98Z"/>
      <path class="cls-6" d="M115.89,406.6c12.12,0,24.24.17,36.35-.07,4.74-.09,9.45-1.24,14.2-1.55,1.43-.1,2.94.99,4.41,1.53-3.47-.33-5.25,1.21-5.39,4.73-.08,2.13-.3,4.26-.45,6.39-.06,1-.12,1.99-.17,2.99-.33,2-.66,4-.99,6-.32,2.34-.64,4.67-.96,7.01-.23,1.03-.47,2.06-.7,3.09-.11,2.3-.21,4.6-.32,6.91-1.7.41-3.4.83-5.09,1.24-.98-.07-1.95-.14-2.93-.22-.69-.27-1.38-.54-2.07-.81-12.59-2.1-25.19-4.2-37.78-6.3-.41-1.63-.83-3.27-1.24-4.9.09-3.35.17-6.69.26-10.04.07-.23.08-.47.05-.71.49-2.12.97-4.23,1.46-6.35.09-2.31.19-4.63.28-6.94.36-.67.72-1.33,1.09-2Z"/>
      <path class="cls-6" d="M185.84,407.6c3.5-.33,6.99-.91,10.5-.94,14.17-.11,28.33-.05,42.5-.05.53.01,1.05.02,1.58.03.2,4.32.41,8.64.61,12.96-.1,1.35-.2,2.7-.3,4.04-.29,1.71-.53,3.43-.9,5.13-.62,2.91-1.32,5.8-1.99,8.7-.66.16-1.31.32-1.97.48-.68.21-1.36.42-2.04.64-9.97,1.74-19.95,3.48-29.92,5.23-.69.27-1.38.55-2.07.82-1.31.09-2.61.18-3.92.27-1.62-1.19-3.23-2.37-4.85-3.55-.12-4.91-.25-9.82-.37-14.74-.31-1.99-.62-3.98-.93-5.97-.06-1-.12-2.01-.18-3.01.36-4.66.11-8.96-5.76-10.04Z"/>
      <path class="cls-23" d="M185.84,407.6c5.87,1.08,6.13,5.38,5.76,10.04-8.87,0-17.73,0-26.6,0,.16-2.13.37-4.26.45-6.39.14-3.51,1.92-5.06,5.39-4.73,5,.36,9.99.72,14.99,1.08Z"/>
      <path class="cls-8" d="M309.72,403.64c1.01,3.66,2.02,7.32,3.03,10.98-5.94-1.63-6.72-.93-6.93,5.41-.16,4.86-.61,9.71-.94,14.57-.33-2.91-.82-5.81-.97-8.73-.41-8.09-.67-16.18-.98-24.27,0-5.62,0-11.25,0-16.87.63-.04,1.26-.08,1.89-.13,1.63,6.34,3.27,12.69,4.9,19.03Z"/>
      <path class="cls-6" d="M252.09,379.59c.57.69,1.63,1.36,1.64,2.06.13,5.73.11,11.47,0,17.2-.01.6-.91,1.17-1.4,1.76-.16-.67-.33-1.34-.5-2.01.08-6.34.17-12.68.25-19.02Z"/>
      <path class="cls-28" d="M237.85,437.48c.67-2.9,1.36-5.79,1.99-8.7.36-1.7.6-3.42.9-5.13.32.02.64.05.96.07.03,3.24,0,6.48.1,9.71.08,2.77-.88,4.4-3.94,4.06Z"/>
      <path class="cls-16" d="M193.08,441.35c1.62,1.18,3.23,2.37,4.85,3.55-1.34.47-2.68.94-4.02,1.41-.28-1.65-.56-3.31-.84-4.96Z"/>
      <path class="cls-23" d="M163.85,426.62c.33-2,.66-4,.99-6,2.28,2.43,2.79,4.57-.99,6Z"/>
      <path class="cls-16" d="M156.76,444.87c1.7-.41,3.4-.83,5.09-1.24-.2.89-.39,1.78-.59,2.66-1.5-.47-3.01-.95-4.51-1.42Z"/>
      <path class="cls-23" d="M191.78,420.64c.31,1.99.62,3.98.93,5.97-3.22-1.54-1.98-3.77-.93-5.97Z"/>
      <path class="cls-21" d="M272.83,444.55c1.69-.26,3.37-.53,5.06-.79-1.27,2.9-3.09,2.31-5.06.79Z"/>
      <path class="cls-21" d="M256.85,445.62c1.69-.24,3.38-.47,5.07-.7-1.69.24-3.38.47-5.07.7Z"/>
      <path class="cls-28" d="M240.42,406.64c-.53-.01-1.05-.02-1.58-.03.28-1.64.56-3.29.84-4.93.25,1.66.49,3.31.74,4.97Z"/>
      <path class="cls-16" d="M112.75,432.64c.41,1.63.82,3.27,1.24,4.9-2.49-1.11-2.93-2.74-1.24-4.9Z"/>
      <path class="cls-8" d="M296.88,442.69c1.33-.21,2.66-.42,4-.63-1.33.21-2.66.42-4,.63Z"/>
      <path class="cls-8" d="M241.69,423.71c-.32-.02-.64-.04-.96-.07.1-1.35.2-2.7.3-4.04.22,1.37.44,2.74.66,4.11Z"/>
      <path class="cls-16" d="M162.18,436.72c.23-1.03.47-2.06.7-3.09-.23,1.03-.47,2.06-.7,3.09Z"/>
      <path class="cls-8" d="M395.84,406.63c-.04.67-.09,1.34-.14,2.01-.28-.67-.57-1.34-.85-2.02,0,0,.49,0,.49,0h.49Z"/>
      <path class="cls-16" d="M151.76,443.84c.69.27,1.38.54,2.07.81-.69-.27-1.38-.54-2.07-.81Z"/>
      <path class="cls-8" d="M233.84,438.59c.68-.21,1.36-.42,2.04-.64-.68.21-1.36.42-2.04.64Z"/>
      <path class="cls-6" d="M395.84,406.63h-.49s-.49-.01-.49-.01c.05-.67.1-1.34.15-2.01.28.67.56,1.34.84,2.02Z"/>
      <path class="cls-8" d="M393.75,399.66c.22.66.44,1.33.65,1.99-.22-.66-.44-1.33-.65-1.99Z"/>
      <path class="cls-16" d="M201.85,444.63c.69-.27,1.38-.55,2.07-.82-.69.27-1.38.55-2.07.82Z"/>
      <path class="cls-8" d="M312.99,416.35c.56.76,1.11,1.53,1.67,2.29-.56-.76-1.11-1.53-1.67-2.29Z"/>
      <path class="cls-29" d="M393.04,370.59c.68-12.4,1.36-24.8,2.07-37.68-1.96-.11-4.21-.24-7.43-.43,0-1.96,0-3.93,0-5.9,18.2,0,36.41-.02,54.61.07,1.87,0,3.74.68,5.6,1.04.02.31.01.61-.02.92-2.92-.45-4.03.61-4.22,3.75-.8,13.23-.91,13.22,12.35,13.22q12.55,0,12.86,12.49c.06,2.5.06,5,.09,7.5-2.16,3.94-5.59,5.1-9.92,5.08-22-.1-44-.05-66-.06Z"/>
      <path class="cls-22" d="M393.04,370.59c22,0,44-.04,66,.06,4.33.02,7.76-1.14,9.92-5.08.33,3.09.9,6.18.86,9.27-.01.91-1.62,2.46-2.65,2.6-6.74.9-13.52,1.5-20.28,2.2-.68.18-1.35.36-2.03.55.1,3.71.2,7.42.3,11.13-2.07.77-4.14,2.17-6.23,2.2-13.08.2-26.17.15-39.25.06-2.11-.01-4.21-.64-6.32-.98-.1-7.33-.2-14.66-.31-21.99Z"/>
      <path class="cls-26" d="M447.88,328.61c.03-.31.04-.61.02-.92,13.97,0,27.95.02,41.92.02,0,.31.02.61.05.92-.41.27-.81.77-1.22.77-13.19.04-26.38.04-39.57,0-.4,0-.81-.51-1.21-.78Z"/>
      <path class="cls-29" d="M489.87,328.63c-.04-.3-.05-.61-.05-.92,2.59-2.11,5.17-4.15,7.08.69-2.34.08-4.69.15-7.03.23Z"/>
      <path class="cls-5" d="M444.85,380.18c.68-.18,1.35-.36,2.03-.55-.68.18-1.35.36-2.03.55Z"/>
      <path class="cls-12" d="M531.75,561.62c.25,1.48.5,2.97.87,5.11,11.74,0,23.61,0,35.48,0-5.97,6.35-11.93,12.7-17.9,19.05-.77.63-1.54,1.25-2.3,1.88,0,0,0,0,0,0-.49.1-1.31.07-1.41.32-2.37,5.94-7.5,4.64-12.1,4.66-9,.03-18,.02-27,0-6.36-.01-6.59-.41-3.48-5.88.73-.22,1.46-.44,2.19-.67.93-.36,1.87-.72,2.8-1.09,1.98-1.16,3.96-2.32,5.94-3.48.94-.65,1.87-1.3,2.81-1.95,5.93-2.41,8.95-7.35,11.26-12.91.94-1.68,1.89-3.36,2.83-5.04Z"/>
      <path class="cls-12" d="M572.05,560.08c.86-1.48,1.71-2.96,2.57-4.44-.86,1.48-1.71,2.96-2.57,4.44Z"/>
      <path class="cls-10" d="M577.02,547.65c.26-1.35.52-2.7.78-4.04-.26,1.35-.52,2.7-.78,4.04Z"/>
      <path class="cls-27" d="M547.89,587.66c.77-.63,1.53-1.25,2.3-1.88-.77.63-1.53,1.25-2.3,1.88Z"/>
      <path class="cls-10" d="M46.37,544.64c-.1,3.37-.19,6.74-.29,10.11.1-3.37.19-6.74.29-10.11Z"/>
      <path class="cls-29" d="M170.74,369.59c-13.4,0-26.81-.1-40.21.08-3.59.05-6.48-.38-7.87-4.13,0-.99,0-1.98,0-2.97.16-.65.33-1.3.49-1.95.24-.67.47-1.34.71-2.01,2.65-12.17,5.24-24.36,8.03-36.49.4-1.73,1.84-3.21,2.8-4.81-.22,1.61-.18,3.31-.7,4.82-1.9,5.47-1.31,6.46,4.46,6.46,30.38.02,60.75.02,91.13.03.51,1.65,1.01,3.31,1.52,4.96.25.67.51,1.34.76,2.01,1.06,8.58,2.13,17.15,3.19,25.73.25,2.76.5,5.51.75,8.26-17.02.01-34.04.03-51.06.04-2.17-9.64-4.34-19.29-6.52-28.93-.63,0-1.26.01-1.88.02-1.56,8.29-3.11,16.59-4.67,24.88-.24.69-.47,1.38-.71,2.06-.07.65-.15,1.29-.22,1.94Z"/>
      <path class="cls-16" d="M121.44,368.56c-.48,1.11-.95,2.22-1.43,3.33.48-1.11.95-2.22,1.43-3.33Z"/>
      <path class="cls-16" d="M122.66,362.58c0,.99,0,1.98,0,2.97,0,0-.47,0-.47,0,0,0-.47,0-.47,0,.31-.99.63-1.98.94-2.98Z"/>
      <path class="cls-24" d="M123.87,358.62c-.24.67-.47,1.34-.71,2.01.24-.67.47-1.34.71-2.01Z"/>
      <path class="cls-16" d="M119.54,378.55c-.25.68-.49,1.37-.74,2.05-.32-.33-.64-.66-.96-.99.56-.35,1.13-.7,1.69-1.05Z"/>
      <path class="cls-12" d="M202.84,133.56c-.06,8.33-.12,16.66-.18,24.99-42.53,0-85.07,0-127.59,0-.08-5.66-.17-11.32-.25-16.98-.23-1.36-.46-2.71-.69-4.07-.04-5.99-.08-11.98-.12-17.96,2.44.34,4.88.97,7.33.98,14.76.08,29.52.02,44.28.01-.05,2.74.85,4.17,4.04,4.15,4.95-.03,9.92.39,14.87.85,3.82.35,5.74-.96,5.31-4.97,4.32.67,8.66,2.05,12.94,1.87,13.27-.57,26.71,2.24,39.8-1.9.09,4.34.18,8.69.26,13.03Z"/>
      <path class="cls-15" d="M125.62,120.52c-14.76.01-29.52.07-44.28-.01-2.44-.01-4.89-.64-7.33-.98-.14-3.32-.29-6.64-.43-9.96-.25-1.67-.5-3.34-.75-5.01,0-3.67,0-7.34,0-11,15.49,4.18,31.28,1.03,46.91,1.98,1.99.12,3.99,0,5.98,0-.03,8.33-.06,16.66-.09,24.99Z"/>
      <path class="cls-3" d="M70.94,79.32c.49,3.08.99,6.16,1.48,9.23-.5-3.08-.99-6.16-1.48-9.23Z"/>
      <path class="cls-3" d="M72.83,104.56c.25,1.67.5,3.34.75,5.01-.25-1.67-.5-3.34-.75-5.01Z"/>
      <path class="cls-6" d="M74.13,137.49c.23,1.36.46,2.71.69,4.07-.32-1-.65-2-.97-3.01.09-.35.19-.71.28-1.06Z"/>
      <path class="cls-15" d="M539.97,125.58c-13.71,0-27.41-.02-41.12-.03,1.69-13.64,3.36-27.28,5.1-40.91.09-.7.74-1.34,1.13-2,.07,2.05.54,4.18.12,6.13-.62,2.92.21,4.5,3.08,5.02,1.77.32,3.57.76,5.35.72,11.38-.26,22.76-.64,34.13-.98-1.67,7.67-3.35,15.34-5.02,23-.3.67-.6,1.33-.9,2-.62,2.35-1.24,4.69-1.86,7.04Z"/>
      <path class="cls-15" d="M548.9,87.56c.29-.67.57-1.35.86-2.02-.29.67-.57,1.35-.86,2.02Z"/>
      <path class="cls-3" d="M553.14,70.57c.27-.66.54-1.33.81-1.99-.27.66-.54,1.33-.81,1.99Z"/>
      <path class="cls-12" d="M541.83,118.54c.3-.67.6-1.33.9-2-.3.67-.6,1.33-.9,2Z"/>
      <path class="cls-16" d="M114.52,415.55c-.49,2.12-.98,4.23-1.46,6.35.49-2.11.98-4.23,1.46-6.35Z"/>
      <path class="cls-16" d="M115.89,406.6c-.36.67-.72,1.33-1.09,2,.3-1.68.59-3.35.89-5.03.06,1.01.13,2.02.19,3.02Z"/>
      <path class="cls-16" d="M118.49,384.54c-.27,1.01-.53,2.02-.8,3.03.27-1.01.53-2.02.8-3.03Z"/>
      <path class="cls-8" d="M498.82,400.75c-1.22-2.71-2.43-5.43-3.64-8.14,1.22,2.71,2.43,5.43,3.64,8.14Z"/>
      <path class="cls-6" d="M500.74,407.62c-.32-.65-.64-1.31-.97-1.96.32.65.64,1.31.97,1.96Z"/>
      <path class="cls-4" d="M237.89,605.65c-.12-1.33-.24-2.65-.36-3.98-.22-1.34-.45-2.68-.67-4.02.03-6.99.06-13.98.1-20.96.24-1.69.47-3.39.71-5.08,2.12-5.72,3.48-11.89,6.54-17.05,4.52-7.61,12.95-7.02,16.89.99,2.31,4.69,3.3,10.02,4.89,15.07.28,2.01.56,4.03.84,6.04,0,5.66-.02,11.31-.03,16.97-.24,1.35-.48,2.69-.72,4.04-.47,3.32-.93,6.64-1.4,9.96-1.79,4.08-3.16,8.43-5.46,12.2-4.86,7.98-11.45,7.86-15.99-.39-2.36-4.28-3.6-9.18-5.34-13.79Z"/>
      <path class="cls-2" d="M455.87,541.64c.37,6.32.75,12.64,1.12,18.96.12.7.25,1.39.37,2.08.17,1.32.34,2.64.51,3.96.04,4.35.07,8.7.11,13.04,0,0-.47-.15-.47-.15-16.2.03-32.39.06-48.59.1-.06-6.14-.01-12.28-.25-18.42-.06-1.65-.97-3.28-1.49-4.91-.09-2.55-.18-5.1-.27-7.66-.11-.98-.22-1.97-.33-2.95.06-1.02.11-2.03.17-3.05,13.95,0,27.91.04,41.86-.06,2.1-.01,4.2-.63,6.3-.97,0,0,.48.01.48.01h.48Z"/>
      <path class="cls-22" d="M380.5,588.99c.23,2.18.45,4.36.68,6.54-.12.37-.23.75-.35,1.12-17.86,0-35.71,0-53.57,0-.17-1.98-.34-3.96-.52-5.94-.15-1.02-.29-2.03-.44-3.05-.04-4.68-.08-9.36-.12-14.04,13.06,0,26.13-.11,39.19.09,5,.08,9.76.16,13.34-4.08.2,4.62.4,9.24.6,13.87.39,1.83.79,3.66,1.18,5.48Z"/>
      <path class="cls-16" d="M407.18,556.3c.52,1.64,1.42,3.26,1.49,4.91.23,6.13.19,12.28.25,18.42-.57,2.77-1.15,5.54-1.72,8.32,0-10.55,0-21.1-.01-31.65Z"/>
      <path class="cls-8" d="M457.62,595.29c-.41,1.81-.82,3.63-1.23,5.44.41-1.81.82-3.63,1.23-5.44Z"/>
      <path class="cls-8" d="M456.03,605.7c-.3,1.34-.59,2.68-.89,4.01.3-1.34.59-2.68.89-4.01Z"/>
      <path class="cls-16" d="M380.83,596.65c.12-.37.23-.75.35-1.12.26.7.51,1.4.77,2.1-.37-.33-.74-.66-1.12-.98Z"/>
      <path class="cls-16" d="M382.21,599.51c.46.8.91,1.61,1.37,2.42-.46-.8-.91-1.61-1.37-2.42Z"/>
      <path class="cls-16" d="M406.17,594.95c.26-.77.52-1.54.77-2.31-.26.77-.52,1.54-.77,2.31Z"/>
      <path class="cls-17" d="M531.75,561.62c-.94,1.68-1.89,3.36-2.83,5.04-.57-1.47-1.15-2.94-2.2-5.64-5.45.81-11.26,1.67-17.06,2.54.75-6.67,3.5-12.22,9.74-15.2,6.23-2.97,11.13-.38,12.79,6.27,0,.68,0,1.35,0,2.03-.15,1.65-.3,3.31-.45,4.96Z"/>
      <path class="cls-17" d="M457.98,579.69c-.04-4.35-.07-8.7-.11-13.04,2.85,2.7,2.91,10.08.11,13.04Z"/>
      <path class="cls-17" d="M503.88,569.72c.99.34,1.98.68,2.96,1.02-.99-.34-1.98-.68-2.96-1.02Z"/>
      <path class="cls-17" d="M507.8,570.62c.37-.99.73-1.98,1.1-2.96-.37.99-.73,1.98-1.1,2.96Z"/>
      <path class="cls-27" d="M508.9,585.02c-.93.36-1.87.72-2.8,1.09.94-.36,1.87-.72,2.8-1.09Z"/>
      <path class="cls-17" d="M517.65,579.58c-.94.65-1.87,1.3-2.81,1.95.94-.65,1.87-1.3,2.81-1.95Z"/>
      <path class="cls-24" d="M457.36,562.68c-.12-.69-.25-1.39-.37-2.08.29.35.57.7.86,1.05-.16.35-.33.69-.49,1.04Z"/>
      <path class="cls-17" d="M483.88,564.12c.84.45,1.68.9,2.53,1.36-.84-.45-1.68-.9-2.53-1.36Z"/>
      <path class="cls-17" d="M489.87,565.76c.68.27,1.35.55,2.03.82-.68-.27-1.35-.55-2.03-.82Z"/>
      <path class="cls-17" d="M493.87,566.92c.67.24,1.33.49,2,.73l-2-.73Z"/>
      <path class="cls-2" d="M265.99,570.62c-1.59-5.04-2.58-10.38-4.89-15.07-3.94-8.01-12.38-8.6-16.89-.99-3.06,5.16-4.42,11.33-6.54,17.05-.28,0-.55.01-.83.03-3.79.34-7.57.92-11.36.97-10.83.13-21.67.23-32.49-.09-2.45-.07-4.85-1.91-7.27-2.93.35-2.96.69-5.92,1.04-8.89.32-.8.63-1.6.95-2.4,1.55-6.03,2.94-12.11,4.73-18.07.52-1.72,2.16-3.09,3.28-4.63,4.7.68,9.39,1.92,14.09,1.95,30.43.18,60.85.18,91.28-.06,2.71-.02,5.4-2.21,8.11-3.39,1.83,3.64,4.4,7.1,5.31,10.96,1.67,7.06,2.35,14.35,3.44,21.55-1.22,4.61-4.52,5.2-8.73,5.12-11.49-.22-22.99-.01-34.49-.12-2.62-.02-5.24-.62-7.86-.96-.29-.01-.58-.02-.87-.03Z"/>
      <path class="cls-20" d="M265.99,570.62c.29,0,.58.01.87.03-.01,2.01-.02,4.01-.03,6.02-.28-2.01-.56-4.03-.84-6.04Z"/>
      <path class="cls-20" d="M266.08,597.67c.24-1.35.48-2.69.72-4.04-.24,1.35-.48,2.69-.72,4.04Z"/>
      <path class="cls-20" d="M236.83,571.63c.28-.02.56-.03.83-.03-.24,1.69-.47,3.39-.71,5.08-.04-1.68-.08-3.37-.12-5.05Z"/>
      <path class="cls-20" d="M236.86,597.65c.22,1.34.45,2.68.67,4.02-.22-1.34-.45-2.68-.67-4.02Z"/>
      <path class="cls-20" d="M185.72,597.7c-.22-1.02-.43-2.04-.65-3.06.22,1.02.43,2.04.65,3.06Z"/>
      <path class="cls-8" d="M178.2,557.69c-.03-5.03-.05-10.06-.08-15.09,2.42,3.07,2.47,11.82.08,15.09Z"/>
      <path class="cls-10" d="M175.73,523.68c-.21-.68-.43-1.37-.64-2.05.21.68.43,1.37.64,2.05Z"/>
      <path class="cls-11" d="M187.69,558.29c-.32.8-.63,1.6-.95,2.4.32-.8.63-1.6.95-2.4Z"/>
      <path class="cls-2" d="M378.72,569.64c-3.58,4.23-8.34,4.15-13.34,4.08-13.06-.2-26.13-.08-39.19-.09.13-3.63.25-7.25.38-10.88.06-1.04.13-2.09.19-3.13-.02-.63-.05-1.27-.07-1.9.34-2.79.68-5.58,1.02-8.37.35-3.26.71-6.52,1.06-9.78,17.23-.02,34.45-.04,51.68-.05.03,2.26.06,4.52.09,6.78-.4,2.83-.8,5.65-1.19,8.48-.21,4.95-.42,9.9-.63,14.86Z"/>
      <path class="cls-24" d="M327.71,549.34c-.34,2.79-.68,5.58-1.02,8.37.34-2.79.68-5.58,1.02-8.37Z"/>
      <path class="cls-10" d="M329.72,528.64c.06,1.01.12,2.02.18,3.02-.32-.01-.64-.01-.96,0,.26-1.01.52-2.02.78-3.03Z"/>
      <path class="cls-2" d="M328.94,531.66c.32-.02.64-.02.96,0-.25,1-.49,1.99-.74,2.99-.07-.99-.15-1.99-.22-2.98Z"/>
      <path class="cls-24" d="M326.31,587.65c.15,1.02.3,2.03.44,3.05-.15-1.02-.3-2.03-.44-3.05Z"/>
      <path class="cls-24" d="M326.76,559.61c-.06,1.04-.12,2.09-.19,3.13.06-1.04.13-2.09.19-3.13Z"/>
      <path class="cls-2" d="M475.89,526.64c.6-.83,1.2-1.66,1.8-2.49-.6.83-1.2,1.66-1.8,2.49Z"/>
      <path class="cls-10" d="M481.01,518.02c.68-.79,1.36-1.58,2.04-2.38-.68.79-1.36,1.58-2.04,2.38Z"/>
      <path class="cls-12" d="M532.2,556.66c0-.68,0-1.35,0-2.03.43.34.87.67,1.3,1.01-.43.34-.86.68-1.29,1.02Z"/>
      <path class="cls-10" d="M455.87,541.64h-.48s-.48-.01-.48-.01c.06-1.33.12-2.66.18-3.99.26,1.33.52,2.67.78,4Z"/>
      <path class="cls-2" d="M453.88,532.64c.22,1,.45,2.01.67,3.01-.22-1-.45-2.01-.67-3.01Z"/>
      <path class="cls-16" d="M379.35,554.78c.4-2.83.8-5.65,1.19-8.48-.4,2.83-.8,5.65-1.19,8.48Z"/>
      <path class="cls-10" d="M380.9,539.66c0-2,0-4-.01-6,.33,0,.65,0,.98-.01,1.13,2.24,2.4,4.5-.97,6.02Z"/>
      <path class="cls-16" d="M380.5,588.99c-.39-1.83-.79-3.66-1.18-5.48.39,1.83.79,3.66,1.18,5.48Z"/>
      <path class="cls-2" d="M381.87,533.64c-.33.01-.65.02-.98.01.24-1.03.49-2.07.73-3.1.08,1.03.17,2.06.25,3.09Z"/>
      <path class="cls-16" d="M406.59,545.7c.11.98.22,1.97.33,2.95-.11-.98-.22-1.97-.33-2.95Z"/>
      <path class="cls-2" d="M347.78,131.54c-17.54,0-35.08-.01-52.63-.02-.09-1.66-.17-3.32-.26-4.98-.3-1-.6-2-.89-3-2.16-4.92-3.63-10.32-6.65-14.64-3.25-4.64-7.71-4.28-11.96-.41-5.62,5.11-6.99,12.13-8.57,19.06-2.95,5.15-7.95,3.99-12.52,4-13.45.03-26.9,0-40.35,0,.07-1.98.13-3.97.2-5.95.24-.68.47-1.35.71-2.03,2.32-8.93,4.57-17.89,7.03-26.78.36-1.29,1.7-2.3,2.59-3.44,2.57,1.07,5.14,3.06,7.73,3.08,33.13.21,66.25.21,99.38,0,2.58-.02,5.15-2.02,7.73-3.11,2.07,5.25,4.89,10.35,6.01,15.79,1.51,7.34,1.71,14.95,2.47,22.44Z"/>
      <path class="cls-2" d="M228.09,85.57c.59-.68,1.17-1.35,1.76-2.03-.59.68-1.17,1.35-1.76,2.03Z"/>
      <path class="cls-3" d="M305.84,58.58c.67.32,1.34.63,2.02.95-.67-.32-1.34-.63-2.02-.95Z"/>
      <path class="cls-3" d="M311.59,60.67c.76.61,1.51,1.22,2.27,1.82-.76-.61-1.51-1.22-2.27-1.82Z"/>
      <path class="cls-2" d="M412.9,125.55c-4.81,3.88-10.53,2.99-16.06,3.01-6.65.02-13.31.25-19.94-.08-4.72-.23-9.39-1.25-14.09-1.91-1.99-10.67-3.99-21.34-5.98-32.01,3.81.67,7.61,1.79,11.43,1.91,9.25.28,18.53-.1,27.78.17,4.89.14,9.13.05,9.9-6.11,1.96,9.69,3.92,19.37,5.87,29.06.27.67.54,1.34.81,2,.09,1.32.18,2.65.27,3.97Z"/>
      <path class="cls-3" d="M401.97,62.54c.3,1.34.59,2.67.89,4.01-.3-1.34-.59-2.67-.89-4.01Z"/>
      <path class="cls-2" d="M404.76,83.59c.28.66.57,1.32.85,1.98-.28-.66-.57-1.32-.85-1.98Z"/>
      <path class="cls-12" d="M126.64,78.51c.04,3.33.08,6.66.12,9.99-.32.01-.64.03-.96.04-1.08-3.46-2.54-6.95.84-10.03Z"/>
      <path class="cls-3" d="M125.8,88.54c.32-.01.64-.03.96-.04,1.29,2.21,2.39,4.4-.77,6.05-.06-2-.13-4.01-.2-6.01Z"/>
      <path class="cls-3" d="M127.84,61.55c-.2,1-.4,2.01-.59,3.01.2-1,.4-2.01.59-3.01Z"/>
      <path class="cls-2" d="M202.58,120.53c-13.09,4.14-26.53,1.33-39.8,1.9-4.28.18-8.62-1.2-12.94-1.87-.26-9.01-.53-18.02-.79-27.04,17.92,0,35.84.02,53.76.02.08,2,.15,4.01.23,6.01-.15,6.99-.31,13.98-.46,20.97Z"/>
      <path class="cls-3" d="M203.04,99.56c-.08-2-.15-4.01-.23-6.01.02-.66.03-1.32.05-1.99.32,0,.65-.01.98-.01,1.2,2.81,2.49,5.64-.8,8.01Z"/>
      <path class="cls-3" d="M146.87,63.53c.32.01.64.02.95.02-.06,1.67-.11,3.33-.17,5-.26-1.67-.52-3.35-.78-5.02Z"/>
      <path class="cls-2" d="M203.84,91.55c-.33,0-.65,0-.98.01.27-1.67.53-3.35.8-5.02.06,1.67.12,3.34.18,5.01Z"/>
      <path class="cls-2" d="M148.83,84.55c-.21-1.67-.42-3.35-.63-5.02.21,1.67.42,3.35.63,5.02Z"/>
      <path class="cls-3" d="M204.87,72.56c-.22,1.33-.43,2.66-.64,4,.22-1.33.43-2.66.64-4Z"/>
      <path class="cls-15" d="M488.83,119.58c-.75,5.31-4.01,6.21-8.92,6.09-14.57-.34-29.16-.04-43.73-.17-4.76-.04-9.52-.62-14.28-.96.69-12.86,1.33-25.73,2.13-38.58.08-1.22,1.16-2.38,1.78-3.57q.27,10.16,10.38,10.16c12.81,0,25.63-.19,38.44.1,4.89.11,7.82-.88,7.37-6.42-.04-.53.58-1.12.89-1.68,1.35,8,2.7,16.01,4.06,24.01.62,3.68,1.26,7.35,1.89,11.02Z"/>
      <path class="cls-3" d="M425.76,69.5c.28-1.32.56-2.64.84-3.96-.28,1.32-.56,2.64-.84,3.96Z"/>
      <path class="cls-15" d="M481.76,78.59c.28.99.56,1.98.84,2.97-.28-.99-.56-1.98-.84-2.97Z"/>
      <path class="cls-3" d="M476.88,57.52c1,.32,2.01.65,3.01.97-1-.32-2.01-.65-3.01-.97Z"/>
      <path class="cls-3" d="M480.23,63.53c.22,1,.44,2,.67,3-.22-1-.44-2-.67-3Z"/>
      <path class="cls-3" d="M506.91,68.56c.29-1.01.58-2.01.87-3.02-.29,1.01-.58,2.01-.87,3.02Z"/>
      <path class="cls-11" d="M213.94,131.54c13.45,0,26.9.04,40.35,0,4.57-.01,9.57,1.15,12.52-4-1.67,14.45-2,28.84,2.09,43.01-14.92.33-29.84.8-44.77.84-2.39,0-4.79-1.85-7.19-2.85-1.09-6.66-2.17-13.31-3.26-19.97.08-5.68.17-11.37.26-17.05Z"/>
      <path class="cls-11" d="M214.85,123.56c-.24.68-.47,1.35-.71,2.03.24-.68.47-1.35.71-2.03Z"/>
      <path class="cls-12" d="M412.63,121.58c-.27-.67-.54-1.34-.81-2,.27.67.54,1.34.81,2Z"/>
      <path class="cls-29" d="M359.04,371.68c-28.66.31-57.32.66-85.98.91-7.14.06-14.45,1.09-21.02-3-.17-4.32-.35-8.65-.52-12.97-.22-3.34-.44-6.68-.65-10.02.1-2.33.2-4.66.29-7,.8.51,2.03.83,2.35,1.55,1.75,4.02,4.85,4.6,8.86,4.53,13.24-.23,26.49-.11,39.74-.13.72,3.84.97,7.85,2.26,11.49,1.95,5.52,6.99,6.26,10.57,1.61,1.76-2.28,3.32-5.15,3.74-7.94,1.05-6.97,1.39-14.05,2.02-21.09,15.8-.01,31.6.08,47.4-.13,3.17-.04,6.32-1.26,9.48-1.94-.95,16.9-5.4,32.33-18.54,44.11Z"/>
      <path class="cls-2" d="M302.1,345.56c-13.25.01-26.5-.11-39.74.13-4.01.07-7.1-.51-8.86-4.53-.31-.72-1.54-1.05-2.35-1.55-.15-4.65-.3-9.3-.45-13.95,4.95.32,9.89.85,14.85.9,12.48.14,24.95.06,37.43.06-.3,6.31-.59,12.63-.89,18.94Z"/>
      <path class="cls-8" d="M302.1,345.56c.3-6.31.59-12.63.89-18.94.68-1.63,1-3.55,2.09-4.82,4.45-5.22,11.02-4.08,13.71,2.27.76,1.8,1.28,3.71,1.91,5.57-.63,7.04-.98,14.12-2.02,21.09-.42,2.79-1.98,5.66-3.74,7.94-3.58,4.65-8.62,3.91-10.57-1.61-1.29-3.64-1.54-7.65-2.26-11.49Z"/>
      <path class="cls-29" d="M376.93,317.57c.21,1.35.43,2.7.64,4.05-.21-1.35-.43-2.7-.64-4.05Z"/>
      <path class="cls-21" d="M384.98,295.52c.33.01.66.03.99.05-.09,1.68-.19,3.35-.29,5.03-.23-1.69-.47-3.39-.7-5.08Z"/>
      <path class="cls-29" d="M386.84,314.6c-.16-1.35-.31-2.69-.46-4.04.16,1.35.31,2.69.46,4.04Z"/>
      <path class="cls-21" d="M226.99,316.58c.29.67.59,1.34.88,2.01-.33-.02-.65-.02-.98-.02.03-.66.06-1.33.09-1.99Z"/>
      <path class="cls-29" d="M226.89,318.57c.33,0,.65,0,.98.02-.04.67-.09,1.35-.13,2.02-.28-.68-.57-1.36-.85-2.04Z"/>
      <path class="cls-21" d="M250.86,346.6c.22,3.34.44,6.68.65,10.02-.22-3.34-.44-6.68-.65-10.02Z"/>
      <path class="cls-28" d="M235.8,369.59c-.25-2.75-.5-5.51-.75-8.26.81,4.44,1.63,8.88,2.44,13.33-.56-1.69-1.13-3.38-1.69-5.06Z"/>
      <path class="cls-28" d="M238.44,384.66c-.21-1.01-.42-2.02-.63-3.04.21,1.01.42,2.02.63,3.04Z"/>
      <path class="cls-21" d="M231.87,335.59c-.26-.67-.51-1.34-.76-2.01.26.67.51,1.34.76,2.01Z"/>
      <path class="cls-26" d="M268.9,170.56c-4.09-14.17-3.76-28.56-2.09-43.01,1.58-6.93,2.95-13.94,8.57-19.06,4.25-3.87,8.71-4.23,11.96.41,3.02,4.32,4.5,9.71,6.65,14.64.3,1,.6,2,.89,3,.09,1.66.17,3.32.26,4.98-.09,7.38.21,14.79-.39,22.12-.49,6-2.05,11.92-3.14,17.87-1.58,2.31-3.12,4.64-4.74,6.92-3.47,4.88-9.23,5.25-12.91.56-2.01-2.56-3.4-5.61-5.06-8.44Z"/>
      <path class="cls-18" d="M135.85,166.65c-.09.31-.12.87-.29.91-7.7,2.04-8.23,7.88-7.78,14.35.06.86-.61,1.78-.94,2.67-.33,0-.65,0-.98,0,0-4.26.23-8.53-.1-12.76-.32-4.07,1.07-5.77,5.18-5.24,1.61.21,3.27.07,4.9.09Z"/>
      <path class="cls-18" d="M149.58,173.52c-4.02-1.5-2.39-5-2.76-7.8,5.07,1.13,2.34,5.02,2.76,7.8Z"/>
      <path class="cls-9" d="M203,170.55c3.32,2.72,1.94,5.88.85,9.01-.32,0-.65,0-.97,0,.04-3,.08-6.01.13-9.01Z"/>
      <path class="cls-8" d="M170.74,369.59c.07-.65.15-1.29.22-1.94.24-.69.47-1.38.71-2.06,1.56-8.29,3.11-16.59,4.67-24.88.63,0,1.26-.01,1.88-.02,2.17,9.64,4.34,19.29,6.52,28.93.33,2.93.67,5.87,1.06,9.34h-15.9c.29-3.24.57-6.3.85-9.37Z"/>
      <path class="cls-24" d="M171.67,365.59c-.24.69-.47,1.37-.71,2.06.24-.69.47-1.37.71-2.06Z"/>
      <path class="cls-11" d="M294.89,126.54c-.3-1-.6-2-.89-3,.3,1,.6,2,.89,3Z"/>
    </g>
  </g>
</svg>