<?xml version="1.0" encoding="UTF-8"?>
<svg id="Layer_2" xmlns="http://www.w3.org/2000/svg" viewBox="0 0 489.52 512">
  <defs>
    <style>
      .cls-1 {
        fill: #f0948c;
      }

      .cls-2 {
        fill: #eb7d6d;
      }

      .cls-3 {
        fill: #c3e0fd;
      }

      .cls-4 {
        fill: #f7938b;
      }

      .cls-5 {
        fill: #e31e7f;
      }

      .cls-6 {
        fill: #efeff2;
      }

      .cls-7 {
        fill: #f7958c;
      }

      .cls-8 {
        fill: #def4fb;
      }

      .cls-9 {
        fill: #05386e;
      }

      .cls-10 {
        fill: #e9806b;
      }

      .cls-11 {
        fill: #fc3982;
      }

      .cls-12 {
        fill: #def4fc;
      }

      .cls-13 {
        fill: #bc7fe0;
      }

      .cls-14 {
        fill: #f7968c;
      }

      .cls-15 {
        fill: #f7948b;
      }

      .cls-16 {
        fill: #f7958b;
      }

      .cls-17 {
        fill: #f6958b;
      }

      .cls-18 {
        fill: #0a3b6f;
      }

      .cls-19 {
        fill: #f8f9fa;
      }

      .cls-20 {
        fill: #e32581;
      }

      .cls-21 {
        fill: #fefdfd;
      }

      .cls-22 {
        fill: #f8b7ad;
      }

      .cls-23 {
        fill: #c2dffc;
      }

      .cls-24 {
        fill: #c3e1fd;
      }

      .cls-25 {
        fill: #fc3581;
      }

      .cls-26 {
        fill: #ae66d9;
      }

      .cls-27 {
        fill: #fefdfe;
      }
    </style>
  </defs>
  <g id="Layer_1-2" data-name="Layer_1">
    <g>
      <path class="cls-13" d="M458.76,385.25c-12.71,24.13-29.58,45.03-49.78,63.21-38.47,34.62-83.38,55.34-134.84,61.72-.93.12-1.74,1.19-2.6,1.82h-39c0-28.74,0-57.47,0-86.21,0-10.52,3.03-20.28,7.66-29.58.66-1.33,2.3-2.16,3.49-3.23,1.88,1.85,3.69,3.79,5.67,5.53,13.26,11.63,35.04,8.03,43.36-7.13,2.2-.06,4.4-.12,6.59-.18.38.73.66,1.53,1.14,2.19,7.38,10.03,20.11,14.35,31.84,10.83,12.42-3.72,20.75-14.5,21.1-27.74.26-9.45.15-18.91.21-28.36,3.88.87,7.75,1.78,11.64,2.61,14.75,3.14,29.5,6.26,44.25,9.39,2.38.65,4.72,1.48,7.13,1.93,16.61,3.1,31.28,9.67,42.12,23.21Z"/>
      <path class="cls-5" d="M293.12,0c3.62,0,9.41.84,12.88,1.86h.02c22.99,6.45,37.13,21.6,43.7,44.25.32.27.64.55.97.82,0,0-.06-.06-.06-.06.05,5.7.11,11.4.16,17.1-1.13-.2-2.41-.13-3.38-.64-21.37-11.11-44.5-9.47-67.41-9.18-1.16.01-3.31,2.03-3.28,3.07.27,10.05.25,20.18,1.63,30.11,1.46,10.47,6.52,19.82,12.2,28.71-16.02,21.22-37.06,32.6-63.88,33.1-9.56.18-16,7.19-16.09,16.81-.09,9.31,0,18.61-.02,27.92-.02,9.21-2.94,12.82-11.95,14.87-.13-5.94-.27-11.89-.4-17.83.07-3.32.2-6.65.21-9.97.01-6.41-1.08-7.06-7.37-4.94-7.46,2.52-11.14,8.55-14.32,15.08-.02-7.82-.35-15.64,0-23.44.53-11.92.19-24.1,2.58-35.68,5.97-28.89,22.69-50.48,48.16-65.36,1.6-.93,3.72-2.93,3.68-4.39-.35-14.93,4.39-28.07,13.16-39.93,8.97-10.09,19.61-17.48,32.95-20.61,0,0,.01,0,.02,0C280.01.92,282.68,0,285.5,0h7.61Z"/>
      <path class="cls-26" d="M243.69,392.98c-1.19,1.06-2.83,1.9-3.49,3.23-4.62,9.3-7.65,19.07-7.66,29.58,0,28.74,0,57.47,0,86.21h-15c-1.38-.66-2.71-1.74-4.16-1.93-31.58-4.28-61.41-13.73-89.02-29.82,19.45-16.62,39.12-32.99,58.24-49.99,6.61-5.88,4.63-14.85-3.22-20.31-4.32-.63-8.64-1.25-12.96-1.88,1.59-1.47,3.32-2.81,4.74-4.43,5.91-6.79,4.31-16.16-3.46-20.87-4.01-.45-8.02-.9-12.03-1.35,4.94-4.59,7.81-9.91,5.95-16.9,12.32-2.71,24.65-5.34,36.95-8.14,9.85-2.24,19.65-4.7,29.47-7.06,3.6-.5,7.2-1,10.8-1.5-.03,5.44,0,10.89-.11,16.33-.22,9.94-.36,19.84,4.99,28.81Z"/>
      <path class="cls-12" d="M238.82,347.84c-3.6.5-7.2,1-10.8,1.49-16.48-6.89-31.18-16.75-45.44-27.33,3.61-3.42,7.32-6.74,10.81-10.27,5.77-5.83,3.28-17.65-3.66-19.79-5.05-3.12-10.57-3.08-15.15.46-4.43,3.43-8.66,7.11-12.97,10.69-5.9-6.06-12.07-11.88-17.65-18.22-19.36-21.99-33.08-47.37-43.11-74.7-7.64-20.81-11.98-42.38-13.54-64.61-1.11-15.83-.89-31.49,1.12-47.16.95-7.39,2.09-14.76,3.14-22.14,18.53-16.36,40.01-27.8,62.77-36.86,28.85-11.48,58.92-17.01,89.98-17.11-8.77,11.87-13.51,25-13.16,39.93.03,1.46-2.09,3.45-3.68,4.39-25.47,14.88-42.2,36.47-48.16,65.36-2.39,11.58-2.05,23.76-2.58,35.68-.35,7.8-.02,15.63,0,23.44.26,8.24.51,16.49.77,24.73.73,14.31,8.36,24.2,20.14,31.42.61,1.5,1.52,2.96,1.8,4.52,5.7,32.61,23.81,55.74,53.52,69.91,9.91,4.73,10,4.54,9.32,15.42-4.46.98-8.88,2.16-13.38,2.89-4.91.8-8.7,2.71-10.08,7.88Z"/>
      <path class="cls-24" d="M91.56,76.24c-1.05,7.38-2.19,14.75-3.14,22.14-2.01,15.68-2.23,31.34-1.12,47.16,1.57,22.23,5.9,43.8,13.54,64.61,10.04,27.33,23.75,52.71,43.11,74.7,5.58,6.34,11.75,12.16,17.65,18.22-3.72,3.32-7.39,6.69-11.16,9.96-27.31,23.65-54.65,47.27-81.97,70.9-.89-.42-1.79-.84-2.68-1.26-3.68-6.32-3.52-8.78,1.21-14.27,3.8-4.4,7.8-8.63,11.58-13.06,5.34-6.26,6.62-13.3,3.21-20.88-4.54-10.09-13.5-11.43-20.8-3.21-7.28,8.2-14.38,16.58-21.84,24.61-7.06,7.59-8.99,16.37-7.33,26.29.38,2.28.49,4.6.72,6.9-11.45-18.32-19.77-38.12-24.59-59.02-23.19-100.7,4.31-185.17,82.36-253.05.36-.31.83-.5,1.25-.75Z"/>
      <path class="cls-22" d="M65.81,382.68c.89.42,1.79.84,2.68,1.26,4.07,4.49,9.74,4.31,14.82-.18,11.09-9.79,22.24-19.52,33.42-29.2,13.82-11.97,27.68-23.88,41.55-35.78,10.46-8.98,20.97-17.9,31.46-26.84,6.94,2.15,9.43,13.96,3.66,19.79-3.49,3.53-7.2,6.85-10.81,10.27-8.31,7.11-16.7,14.13-24.92,21.35-4.95,4.34-9.65,8.97-14.46,13.47-11.18,7.6-20.69,17.1-30.94,26.06,5.43,4.18,9.28,4.02,13.66.24,6.65-5.74,13.42-11.34,19.99-17.17,3.04-2.7,5.72-5.81,8.56-8.74,2.37,2.44,4.75,4.88,7.12,7.32,1.86,6.99-1.02,12.31-5.94,16.9-8.46,7.23-16.92,14.46-25.49,21.77,5.21,4.53,8.48,5.03,13,1.25,8.36-6.99,16.36-14.42,24.5-21.66,7.78,4.71,9.37,14.08,3.46,20.87-1.41,1.62-3.15,2.96-4.73,4.43-5.18,4.38-10.4,8.72-15.49,13.2-.89.78-2.05,2.56-1.73,3.15.6,1.12,2.08,2.16,3.37,2.44,5.34,1.13,9.09-1.96,12.81-5.18,4.6-3.99,9.33-7.83,14.01-11.73,7.85,5.46,9.83,14.43,3.22,20.31-19.11,17-38.78,33.37-58.24,49.99-18.41-10.01-34.99-22.46-49.85-37.22,2.52-7.52-.21-14.71-1.5-21.95-2.28-12.82-4.79-25.6-7.21-38.39Z"/>
      <path class="cls-17" d="M65.81,382.68c2.42,12.8,4.93,25.57,7.21,38.39,1.29,7.24,4.01,14.43,1.5,21.95-16.58-15.47-30.19-33.28-41.6-52.82-.15-.42-.29-.84-.43-1.25,0,0,.07.11.07.11-.23-2.3-.34-4.62-.72-6.9-1.66-9.92.27-18.7,7.33-26.29,7.47-8.03,14.56-16.4,21.84-24.61,7.3-8.22,16.26-6.88,20.8,3.21,3.41,7.59,2.13,14.62-3.21,20.88-3.77,4.43-7.78,8.65-11.58,13.06-4.73,5.48-4.89,7.94-1.21,14.27Z"/>
      <path class="cls-24" d="M32.48,388.96c.14.42.29.83.43,1.25-.14-.42-.29-.83-.43-1.25Z"/>
      <path class="cls-8" d="M350.79,63.97c-.05-5.7-.11-11.4-.16-17.1,13.9,8.35,28.71,15.51,41.54,25.27,51.77,39.36,83.05,91.58,94.07,155.68,5.13,29.83,4.07,59.67-1.92,89.33-.2.97-.61,1.9-.92,2.85-1.25.8-2.55,1.54-3.75,2.43-13.86,10.3-28.25,19.71-44.15,26.61-8.64,3.75-17.33,7.39-26,11.07-14.75-3.13-29.5-6.24-44.25-9.39-3.89-.83-7.76-1.74-11.64-2.61-1.09-4.57-4.19-6.91-8.62-7.77-5.82-1.13-11.64-2.24-17.47-3.36-.15-4.74-.29-9.49-.44-14.23.94-.65,1.83-1.43,2.85-1.95,30.07-15.3,47.67-39.59,52.66-72.98,15.24-8.45,22.53-21.39,21.9-38.8,0-7.36-.02-14.72-.03-22.09.05-11.64.43-23.29.09-34.92-1.1-37.17-17.94-65.28-49.44-84.8-1.52-.94-2.88-2.15-4.31-3.24Z"/>
      <path class="cls-23" d="M409.51,360.11c8.67-3.69,17.36-7.32,26-11.07,15.9-6.9,30.29-16.31,44.15-26.61,1.19-.89,2.49-1.62,3.75-2.43-4.75,23.06-12.89,44.84-24.64,65.26-10.84-13.54-25.51-20.11-42.12-23.21-2.41-.45-4.76-1.28-7.13-1.93Z"/>
      <path class="cls-8" d="M350.69,46.94c-.32-.27-.64-.55-.97-.82.32.27.64.55.97.82Z"/>
      <path class="cls-15" d="M327.08,322.75c.15,4.74.29,9.49.44,14.23-.06,6.78-.1,13.56-.18,20.34-.2,18.04-10.33,30.28-28.03,33.87-2.2.06-4.4.12-6.6.18-18.7-2.18-30.11-14.98-30.23-33.88-.05-6.81-.14-13.62-.21-20.43.68-10.87.59-10.69-9.32-15.42-29.71-14.17-47.82-37.3-53.52-69.91-.27-1.56-1.18-3.01-1.8-4.52.28-2.89.79-5.77.81-8.66.06-7.94.02-8.06-7.31-10.46-6.43-2.1-9.94-7.26-13.65-12.3-.26-8.24-.51-16.49-.77-24.73,3.19-6.53,6.86-12.56,14.32-15.08,6.29-2.12,7.38-1.47,7.37,4.94,0,3.32-.14,6.65-.21,9.97-5.89,1.52-7.54,3.5-7.69,9.24-.22,8.19.95,10.22,7.45,12.33.22-1.29.43-2.51.64-3.74,9.01-2.05,11.93-5.65,11.95-14.87.02-9.31-.07-18.62.02-27.92.09-9.61,6.53-16.63,16.09-16.81,26.82-.5,47.87-11.88,63.88-33.1,1.36,1.68,2.66,3.41,4.07,5.03,14.67,16.86,33,26.72,55.44,27.83,15.53.77,21.16,6.46,20.31,22.12-3.58-8.61-10.23-11.89-19.32-12.07-23.44-.49-42.16-10.95-57.07-28.51-2.95-3.47-4.01-3.47-6.89.02-13.52,16.36-30.95,26.07-52.1,28.36-4.39.48-5.57,1.62-5.54,5.88.17,25.81,0,51.63.16,77.45.03,4.44.65,8.97,1.64,13.31,8.3,36.25,30.45,59.72,65.83,70.91,1.63.51,3.08,1.6,4.61,2.42-11.4-.07-22.8-.13-34.12-.2-.06-.26-.05.27.18.67,11.03,19.19,42.68,19.44,53.88.36,1.01-1.71,1.21-3.9,1.79-5.86,1.22-.33,2.44-.67,3.65-1Z"/>
      <path class="cls-27" d="M299.31,391.19c17.7-3.6,27.83-15.83,28.03-33.87.08-6.78.12-13.56.18-20.34,5.82,1.12,11.65,2.23,17.47,3.36,4.43.86,7.53,3.2,8.62,7.77-.06,9.45.04,18.91-.21,28.36-.36,13.24-8.69,24.02-21.1,27.74-11.73,3.52-24.46-.8-31.84-10.83-.48-.65-.77-1.45-1.14-2.19Z"/>
      <path class="cls-21" d="M262.27,337.07c.07,6.81.16,13.62.21,20.43.13,18.9,11.54,31.7,30.23,33.88-8.32,15.16-30.09,18.76-43.35,7.13-1.98-1.74-3.78-3.68-5.67-5.53-5.35-8.97-5.2-18.87-4.99-28.81.12-5.44.08-10.89.11-16.33,1.37-5.17,5.17-7.08,10.08-7.88,4.5-.73,8.92-1.91,13.38-2.89Z"/>
      <path class="cls-25" d="M370.37,171.02c.85-15.66-4.78-21.35-20.31-22.12-22.44-1.11-40.77-10.98-55.44-27.83-1.42-1.63-2.72-3.35-4.07-5.03-5.68-8.89-10.74-18.23-12.2-28.71-1.38-9.92-1.36-20.06-1.63-30.11-.03-1.04,2.12-3.05,3.28-3.07,22.91-.29,46.03-1.94,67.41,9.18.97.51,2.25.44,3.38.64,1.43,1.09,2.79,2.3,4.31,3.24,31.5,19.52,48.34,47.64,49.44,84.8.34,11.63-.04,23.28-.09,34.92-.43-.88-.9-1.75-1.28-2.65-2.95-6.85-8.07-11.22-15.23-13.11-3.5-.92-5.82-.08-5.45,4.34.32,3.79.24,7.61.34,11.41-.05,7.05-.09,14.1-.14,21.14-6.39.75-9.4-3.45-12.01-8.22-.11-9.61-.22-19.21-.33-28.82Z"/>
      <path class="cls-2" d="M198.61,208.73c-.21,1.23-.42,2.46-.64,3.74-6.49-2.1-7.66-4.13-7.45-12.33.15-5.74,1.8-7.72,7.69-9.24.13,5.94.26,11.89.4,17.83Z"/>
      <path class="cls-3" d="M161.6,364.53c-2.37-2.44-4.75-4.88-7.12-7.32-3.76-.13-7.52-.26-11.28-.39,4.81-4.5,9.51-9.13,14.46-13.47,8.22-7.21,16.6-14.24,24.92-21.35,14.26,10.58,28.96,20.43,45.44,27.33-9.82,2.36-19.62,4.81-29.47,7.06-12.3,2.8-24.63,5.43-36.95,8.14Z"/>
      <path class="cls-7" d="M167.69,382.78c-8.15,7.24-16.14,14.67-24.5,21.66-4.52,3.78-7.79,3.28-13-1.25,8.56-7.31,17.03-14.54,25.49-21.77,4,.46,8.01.91,12.02,1.36Z"/>
      <path class="cls-7" d="M179.38,409.95c-4.68,3.9-9.41,7.74-14.01,11.73-3.71,3.22-7.46,6.31-12.81,5.18-1.29-.27-2.78-1.32-3.37-2.44-.32-.6.84-2.37,1.73-3.15,5.1-4.48,10.32-8.82,15.49-13.2,4.32.63,8.64,1.25,12.96,1.88Z"/>
      <path class="cls-14" d="M189.73,291.94c-10.49,8.94-21,17.86-31.46,26.84-13.87,11.9-27.73,23.82-41.55,35.78-11.18,9.68-22.33,19.4-33.42,29.2-5.09,4.49-10.75,4.67-14.82.18,27.33-23.63,54.66-47.26,81.97-70.9,3.77-3.26,7.44-6.63,11.16-9.96,4.31-3.57,8.54-7.26,12.97-10.69,4.57-3.54,10.1-3.58,15.15-.46Z"/>
      <path class="cls-20" d="M177.5,215.8c3.7,5.03,7.22,10.19,13.65,12.3,7.33,2.4,7.37,2.52,7.31,10.46-.02,2.89-.53,5.78-.81,8.66-11.78-7.22-19.42-17.11-20.14-31.42Z"/>
      <path class="cls-16" d="M143.2,356.82c3.76.13,7.52.26,11.28.39-2.84,2.93-5.52,6.04-8.56,8.74-6.57,5.83-13.34,11.43-19.99,17.17-4.38,3.79-8.24,3.94-13.66-.24,10.24-8.96,19.75-18.46,30.94-26.06Z"/>
      <path class="cls-22" d="M370.37,171.02c.11,9.61.22,19.21.32,28.82-.5,6.71-.87,13.7,6.3,17.17,3.79,1.83,5.81,4.13,6.53,8-.31,7.6-.62,15.21-.93,22.81-5,33.39-22.59,57.68-52.66,72.98-1.02.52-1.9,1.29-2.85,1.95-1.21.33-2.43.66-3.65,1-7.24,1.68-14.49,3.36-21.73,5.04-1.53-.82-2.98-1.9-4.61-2.42-35.37-11.19-57.53-34.65-65.83-70.91-.99-4.34-1.62-8.87-1.64-13.31-.15-25.81,0-51.63-.16-77.45-.03-4.26,1.16-5.41,5.54-5.88,21.15-2.3,38.57-12,52.1-28.36,2.88-3.48,3.94-3.49,6.89-.02,14.91,17.56,33.62,28.02,57.07,28.51,9.08.19,15.74,3.47,19.32,12.07ZM266.43,206.71c.08-7.65.13-15.29.27-22.94.07-3.67-1.05-7.15-4.69-7.84-2.67-.5-6.11.38-8.51,1.81-2.91,1.74-5.03,3.16-8.55,1.21-1.34-.74-3.91.75-5.92,1.23.64,1.99.73,5.1,2.04,5.75,3.11,1.54,6.8,1.91,10.25,2.75.09,3.69.18,7.38.27,11.07.04,2.26.08,4.53.12,6.79-.37,4.07-.45,8.02,3.93,10.28,4.91,2.54,12.5-.79,10.79-10.12ZM313.81,186.01c-.02,3.97-.04,7.95-.06,11.92,0,2.2.01,4.39.02,6.59.14,2.29-.03,4.66.5,6.87.94,3.94,3.64,6.64,7.77,6.31,3.98-.32,6.47-3.22,7.28-7.14.33-1.58.04-3.29.03-4.95v-16.43c4.05-1.72,7.59-2.72,10.49-4.69,1.13-.77,1.54-3.98.9-5.5-.44-1.04-3.93-2.06-4.9-1.39-3.69,2.54-6.39,1.04-9.51-.91-4.92-3.08-10.21-1.49-11.78,3.44-.59,1.86-.51,3.93-.74,5.9ZM278.53,225.57c0,10.53,5.64,15.85,13.7,15.43,7.46-.39,13.03-6.79,11.34-14.4-2.55-11.5-5.94-22.81-9.16-34.15-.34-1.18-2.08-2.93-2.88-2.79-1.33.24-2.95,1.56-3.52,2.84-1.2,2.71-1.82,5.69-2.63,8.57-2.51,8.94-5,17.88-6.85,24.5ZM257.49,260.18c1.77,4.22,2.91,8.85,5.41,12.57,8.28,12.29,20.85,16.43,34.95,16.54,1.73.01,4.22-2.74,4.98-4.73.54-1.43-.69-4.51-2.08-5.46-2.02-1.37-4.88-1.89-7.42-2.05-11.97-.73-20.55-7.91-22.92-19.51-.81-3.96-4.16-7.04-7.18-6.15-4.07,1.2-6.09,3.93-5.73,8.77Z"/>
      <path class="cls-4" d="M383.52,225.01c-.72-3.86-2.73-6.17-6.53-8-7.18-3.47-6.81-10.47-6.3-17.17,2.61,4.78,5.62,8.97,12.01,8.22,6.12-.37,8.63-2.9,8.84-8.93.29-8.74-1.51-11.27-8.7-12.21-.1-3.81-.02-7.63-.34-11.41-.37-4.42,1.95-5.26,5.45-4.34,7.16,1.88,12.28,6.26,15.23,13.11.39.9.85,1.77,1.28,2.65,0,7.36.02,14.72.03,22.09-3.99,9.27-9.99,15.89-20.97,15.99Z"/>
      <path class="cls-11" d="M383.52,225.01c10.97-.1,16.98-6.72,20.97-15.99.63,17.41-6.65,30.35-21.9,38.8.31-7.6.62-15.21.93-22.81Z"/>
      <path class="cls-10" d="M301.7,328.78c7.24-1.68,14.49-3.36,21.73-5.04-.58,1.96-.79,4.15-1.79,5.86-11.21,19.08-42.85,18.84-53.88-.36-.23-.4-.24-.93-.18-.67,11.32.07,22.72.13,34.12.2Z"/>
      <path class="cls-2" d="M382.84,186.92c7.19.95,8.99,3.47,8.7,12.21-.2,6.02-2.71,8.56-8.84,8.93.05-7.05.09-14.09.14-21.14Z"/>
      <path class="cls-16" d="M278.53,225.57c1.85-6.62,4.34-15.56,6.85-24.5.81-2.88,1.43-5.85,2.63-8.57.56-1.28,2.19-2.61,3.52-2.84.8-.14,2.55,1.61,2.88,2.79,3.22,11.34,6.61,22.65,9.16,34.15,1.69,7.61-3.88,14.01-11.34,14.4-8.06.42-13.7-4.9-13.7-15.43Z"/>
      <path class="cls-16" d="M257.49,260.18c-.35-4.84,1.67-7.57,5.73-8.77,3.03-.89,6.37,2.19,7.18,6.15,2.37,11.6,10.95,18.78,22.92,19.51,2.55.15,5.4.68,7.42,2.05,1.39.94,2.62,4.03,2.08,5.46-.76,1.99-3.25,4.74-4.98,4.73-14.1-.11-26.67-4.25-34.95-16.54-2.5-3.72-3.64-8.36-5.41-12.57Z"/>
      <path class="cls-18" d="M313.77,204.52c0-2.2-.01-4.39-.02-6.58,4.74,2.34,6.29,1.52,6.48-3.5.07-1.81.23-3.67-.06-5.44-.25-1.51-.76-3.8-1.73-4.15-1.24-.45-3.06.7-4.63,1.16.23-1.97.15-4.04.74-5.9,1.57-4.93,6.86-6.52,11.78-3.44,3.12,1.95,5.82,3.45,9.51.91.97-.66,4.46.35,4.9,1.39.64,1.52.23,4.74-.9,5.5-2.9,1.96-6.44,2.97-10.49,4.69,0,4.86,0,10.64,0,16.43-1.82,3.37-4.15,5.9-8.47,5.52-4.12-.37-5.79-3.27-7.11-6.6Z"/>
      <path class="cls-9" d="M251.32,188.68c-3.45-.84-7.14-1.21-10.25-2.75-1.31-.65-1.4-3.76-2.04-5.75,2.01-.47,4.58-1.97,5.92-1.23,3.52,1.94,5.64.53,8.55-1.21,2.4-1.43,5.84-2.32,8.51-1.81,3.64.69,4.76,4.16,4.69,7.84-.14,7.65-.19,15.29-.27,22.94-5.42,6.27-9.43,6.23-14.72-.16-.04-2.26-.08-4.53-.12-6.79,4.53,1.96,5.79,1.28,5.96-3.32.08-2.16.28-4.38-.08-6.48-.24-1.41-1.39-2.66-2.13-3.99-1.34.9-2.69,1.81-4.03,2.71Z"/>
      <path class="cls-1" d="M313.77,204.52c1.32,3.33,2.99,6.23,7.11,6.6,4.31.39,6.64-2.15,8.47-5.52,0,1.65.3,3.36-.03,4.95-.82,3.93-3.3,6.82-7.28,7.14-4.12.33-6.83-2.36-7.77-6.31-.53-2.2-.36-4.57-.5-6.87Z"/>
      <path class="cls-1" d="M251.71,206.55c5.29,6.39,9.29,6.43,14.72.16,1.71,9.33-5.88,12.65-10.79,10.12-4.38-2.26-4.3-6.21-3.93-10.28Z"/>
      <path class="cls-6" d="M313.81,186.01c1.57-.46,3.39-1.61,4.63-1.16.97.36,1.48,2.65,1.73,4.15.29,1.77.13,3.62.06,5.44-.19,5.01-1.74,5.83-6.48,3.5.02-3.98.04-7.95.06-11.93Z"/>
      <path class="cls-19" d="M251.32,188.68c1.34-.9,2.69-1.81,4.03-2.71.74,1.32,1.88,2.58,2.13,3.99.36,2.1.16,4.32.08,6.48-.17,4.6-1.43,5.28-5.96,3.32-.09-3.69-.18-7.38-.27-11.07Z"/>
    </g>
  </g>
</svg>