<svg width="62" height="74" viewBox="0 0 62 74" fill="none" xmlns="http://www.w3.org/2000/svg">
<path d="M31 61.8717C48.1208 61.8717 62 48.0212 62 30.9358C62 13.8504 48.1208 0 31 0C13.8792 0 0 13.8504 0 30.9358C0 48.0212 13.8792 61.8717 31 61.8717Z" fill="url(#paint0_radial_1_3)"/>
<path d="M61.9969 31.2975C57.3573 30.7102 51.104 35.603 47.3223 39.4108C42.63 44.1367 27.7479 47.8024 23.7401 36.1964C19.7323 24.5904 29.2748 21.784 29.2748 21.784C28.4262 24.2103 28.9775 27.1125 30.777 28.9546C32.5765 30.7968 35.5777 31.4026 37.8882 30.2713C39.2355 29.6099 40.2885 28.4416 41.0071 27.1249C43.3455 22.8256 41.7938 16.8418 37.6559 14.2177C33.9485 11.8656 29.0983 12.2581 24.9233 13.6273C22.2287 14.5113 19.6115 15.7909 17.5612 17.7505C16.855 18.4243 16.2232 19.1753 15.6409 19.9573C10.5398 26.8405 9.81506 36.8331 14.3246 44.115C16.3378 47.3666 19.2399 49.9968 22.3928 52.1666C28.3798 56.2866 35.4228 58.8365 42.6517 59.6154C53.8915 55.0627 61.8482 44.1181 61.9938 31.3036L61.9969 31.2975Z" fill="url(#paint1_linear_1_3)"/>
<path d="M61.9969 31.2975C57.3573 30.7102 51.104 35.603 47.3223 39.4108C42.63 44.1367 27.7479 47.8024 23.7401 36.1964C19.7323 24.5904 29.2748 21.784 29.2748 21.784C28.4262 24.2103 28.9775 27.1125 30.777 28.9546C32.5765 30.7968 35.5777 31.4026 37.8882 30.2713C39.2355 29.6099 40.2885 28.4416 41.0071 27.1249C43.3455 22.8256 41.7938 16.8418 37.6559 14.2177C33.9485 11.8656 29.0983 12.2581 24.9233 13.6273C22.2287 14.5113 19.6115 15.7909 17.5612 17.7505C16.855 18.4243 16.2232 19.1753 15.6409 19.9573C10.5398 26.8405 9.81506 36.8331 14.3246 44.115C16.3378 47.3666 19.2399 49.9968 22.3928 52.1666C28.3798 56.2866 35.4228 58.8365 42.6517 59.6154C53.8915 55.0627 61.8482 44.1181 61.9938 31.3036L61.9969 31.2975Z" fill="url(#paint2_linear_1_3)"/>
<path d="M43.9587 30.5093C25.9887 47.1966 22.8977 30.5093 22.8977 30.5093C22.8977 30.5093 22.6592 50.5563 42.5588 43.0951C53.8698 38.8545 57.8931 35.0652 61.7925 34.5057C61.9288 33.3343 62 32.1443 62 30.9358C62 28.2283 61.65 25.6011 60.9934 23.0945C55.9109 23.0296 50.0509 24.847 43.9556 30.5062L43.9587 30.5093Z" fill="url(#paint3_linear_1_3)"/>
<path d="M60.5815 39.8312C60.5815 39.8312 60.5877 39.8095 60.5908 39.8003C60.6992 39.451 60.8045 39.0986 60.9005 38.7432C60.9005 38.737 60.9005 38.7339 60.9036 38.7277C61.5881 36.2304 61.969 33.6063 62 30.8987C57.3604 30.3115 51.1071 35.2042 47.3254 39.0121C42.6331 43.7379 27.751 47.4036 23.7432 35.7977C19.7355 24.1917 29.278 21.3853 29.278 21.3853C29.2346 21.5058 29.2005 21.6294 29.1634 21.7531C30.7429 20.5693 32.496 19.9048 32.496 19.9048C32.496 19.9048 20.6491 19.401 19.5775 33.529C19.0634 40.2979 22.7986 45.6171 27.7789 49.357C30.9814 51.7617 39.6939 55.2821 48.6479 55.9744C54.2384 52.1047 58.4909 46.4486 60.5753 39.8343L60.5815 39.8312Z" fill="url(#paint4_linear_1_3)"/>
<path d="M47.3254 39.009C42.6331 43.7349 27.751 47.4005 23.7432 35.7946C23.7432 35.7946 25.3847 54.3796 58.5559 44.7239C59.3643 43.1662 60.0457 41.5311 60.5815 39.8312C60.5846 39.8219 60.5877 39.8095 60.5908 39.8003C60.6992 39.451 60.8045 39.0987 60.9005 38.7432C60.9005 38.737 60.9005 38.7339 60.9036 38.7278C61.5881 36.2304 61.969 33.6063 62 30.8988C57.3604 30.3115 51.1071 35.2042 47.3254 39.0121V39.009Z" fill="url(#paint5_linear_1_3)"/>
<defs>
<radialGradient id="paint0_radial_1_3" cx="0" cy="0" r="1" gradientUnits="userSpaceOnUse" gradientTransform="translate(31 30.9358) scale(31 30.9358)">
<stop offset="0.46" stop-color="#FFC3AA"/>
<stop offset="0.98" stop-color="#F48574"/>
</radialGradient>
<linearGradient id="paint1_linear_1_3" x1="26.6918" y1="13.7881" x2="43.8604" y2="49.9317" gradientUnits="userSpaceOnUse">
<stop stop-color="#C2FDFB"/>
<stop offset="0.19" stop-color="#27BCB8"/>
<stop offset="0.25" stop-color="#23AAA7"/>
<stop offset="0.42" stop-color="#1C7F81"/>
<stop offset="0.58" stop-color="#155E62"/>
<stop offset="0.74" stop-color="#11464C"/>
<stop offset="0.88" stop-color="#0E373F"/>
<stop offset="1" stop-color="#0E333B"/>
</linearGradient>
<linearGradient id="paint2_linear_1_3" x1="26.6918" y1="13.7881" x2="43.8604" y2="49.9317" gradientUnits="userSpaceOnUse">
<stop stop-color="#C2FDFB"/>
<stop offset="0.19" stop-color="#27BCB8"/>
<stop offset="0.25" stop-color="#23AAA7"/>
<stop offset="0.42" stop-color="#1C7F81"/>
<stop offset="0.58" stop-color="#155E62"/>
<stop offset="0.74" stop-color="#11464C"/>
<stop offset="0.88" stop-color="#0E373F"/>
<stop offset="1" stop-color="#0E333B"/>
</linearGradient>
<linearGradient id="paint3_linear_1_3" x1="22.8977" y1="33.9277" x2="62" y2="33.9277" gradientUnits="userSpaceOnUse">
<stop stop-color="#C2FDFB"/>
<stop offset="0.19" stop-color="#27BCB8"/>
<stop offset="0.25" stop-color="#23AAA7"/>
<stop offset="0.42" stop-color="#1C7F81"/>
<stop offset="0.58" stop-color="#155E62"/>
<stop offset="0.74" stop-color="#11464C"/>
<stop offset="0.88" stop-color="#0E373F"/>
<stop offset="1" stop-color="#0E333B"/>
</linearGradient>
<linearGradient id="paint4_linear_1_3" x1="19.531" y1="37.9365" x2="62" y2="37.9365" gradientUnits="userSpaceOnUse">
<stop stop-color="#0E333B"/>
<stop offset="0.06" stop-color="#14585D"/>
<stop offset="0.17" stop-color="#219F9E"/>
<stop offset="0.23" stop-color="#27BCB8"/>
<stop offset="0.25" stop-color="#43BCB6"/>
<stop offset="0.29" stop-color="#74BEB2"/>
<stop offset="0.34" stop-color="#9FBFB0"/>
<stop offset="0.39" stop-color="#C1C1AD"/>
<stop offset="0.43" stop-color="#DCC1AC"/>
<stop offset="0.48" stop-color="#EFC2AA"/>
<stop offset="0.53" stop-color="#FBC2AA"/>
<stop offset="0.58" stop-color="#FFC3AA"/>
<stop offset="0.8" stop-color="#F48574"/>
</linearGradient>
<linearGradient id="paint5_linear_1_3" x1="23.7432" y1="39.1759" x2="62" y2="39.1759" gradientUnits="userSpaceOnUse">
<stop stop-color="#0E333B"/>
<stop offset="0.12" stop-color="#0E373F"/>
<stop offset="0.26" stop-color="#11464C"/>
<stop offset="0.42" stop-color="#155E62"/>
<stop offset="0.58" stop-color="#1C7F81"/>
<stop offset="0.75" stop-color="#23AAA7"/>
<stop offset="0.81" stop-color="#27BCB8"/>
<stop offset="1" stop-color="#C2FDFB"/>
</linearGradient>
</defs>
</svg>
