<?xml version="1.0" encoding="UTF-8"?>
<svg id="Layer_2" xmlns="http://www.w3.org/2000/svg" viewBox="0 0 509.05 352.15">
  <defs>
    <style>
      .cls-1 {
        fill: #f76b72;
      }

      .cls-2 {
        fill: #39a6f8;
      }

      .cls-3 {
        fill: #faba88;
      }

      .cls-4 {
        fill: #fabd8b;
      }

      .cls-5 {
        fill: #69b6f9;
      }

      .cls-6 {
        fill: #f76c73;
      }

      .cls-7 {
        fill: #eba775;
      }

      .cls-8 {
        fill: #f66b72;
      }

      .cls-9 {
        fill: #b4daf9;
      }

      .cls-10 {
        fill: #b4d9f9;
      }

      .cls-11 {
        fill: #f6505a;
      }

      .cls-12 {
        fill: #f0aa74;
      }

      .cls-13 {
        fill: #f1ab75;
      }

      .cls-14 {
        fill: #655e68;
      }

      .cls-15 {
        fill: #b5daf9;
      }

      .cls-16 {
        fill: #f7505a;
      }

      .cls-17 {
        fill: #dfeaf8;
      }

      .cls-18 {
        fill: #fbd2a7;
      }

      .cls-19 {
        fill: #554e55;
      }
    </style>
  </defs>
  <g id="Layer_1-2" data-name="Layer_1">
    <g>
      <path class="cls-17" d="M48.9.06C80.89.04,112.89,0,144.89,0c113.15,0,226.31,0,339.46,0,12.7,0,20.93,5.29,23.93,15.49.55,1.87.74,3.91.74,5.88.03,103.18.04,206.36.02,309.53,0,12.06-9.11,21.21-21.14,21.21-145.65,0-291.3,0-436.95,0-.51-.4-.97-.97-1.55-1.19-10.44-3.88-14.5-11.57-14.49-22.47.11-101.85.06-203.71.08-305.56,0-8.6,3.2-15.48,10.92-19.91,1.17-.67,2-1.93,2.99-2.92ZM311.02,85.02c1.78.21,3.57.62,5.35.61,15.47-.14,30.94-.48,46.4-.52,29.8-.09,59.59-.02,89.39-.03,7.66,0,9.59-1.59,10.06-9.05.31-4.79.26-9.64-.03-14.44-.36-5.91-3.01-8.4-8.85-8.41-34.12-.04-68.24,0-102.36.02-12.94-.04-25.89-.16-38.83-.09-5.4.03-8.24,2.87-8.44,8.31-.19,5.3-.17,10.61,0,15.91.15,4.57,2.33,7.52,7.29,7.69ZM81.96,299.04c11.99.06,23.97.17,35.96.17,43.46.02,86.93.02,130.39-.01,8.78,0,13.56-4.84,13.69-13.59.03-2-.07-4-.11-5.99.04-71.16.1-142.33.06-213.49,0-7.77-5.39-12.91-13.55-12.92-48.48-.07-96.97-.01-145.45,0-11.99-.04-23.98-.11-35.97-.13-11.37-.01-16.03,4.65-16.03,15.98,0,68.13,0,136.25,0,204.38,0,2.16.11,4.33.17,6.49-.06,1.49-.16,2.97-.17,4.46-.03,9.87,3.79,14.38,13.7,15.06,5.73.39,11.53-.23,17.29-.4ZM409.03,126.02c17.33,0,34.65.03,51.98-.02,5.66-.01,8.92-2.92,9.02-7.78.1-4.85-3.01-7.76-8.73-8.15-1-.07-2-.02-3-.02-33.15,0-66.31,0-99.46,0-1.33,0-2.68-.1-3.99.07-3.93.53-7.81,4.61-7.74,8.02.07,3.42,4.03,7.38,7.95,7.83,1.32.15,2.66.05,4,.05,16.66,0,33.32,0,49.98,0ZM408.54,158.08c17.5,0,35,0,52.51,0,5.57,0,8.94-2.68,8.98-7.03.04-4.85-3.27-7.95-8.84-7.96-35-.04-70.01-.03-105.01,0-4.21,0-9.04,3.78-8.74,7.14.49,5.5,2.95,8.07,8.6,7.97,17.5-.29,35-.11,52.5-.11ZM408.9,275.08c-17.8,0-35.61-.05-53.41.03-5.29.02-7.51,2.29-7.49,7.1.02,4.74,2.88,7.85,7.62,7.86,35.28.05,70.55.05,105.83,0,5.44,0,8.76-3.35,8.57-8.2-.16-4.15-3.49-6.78-8.7-6.79-17.47-.02-34.94,0-52.42,0ZM408.53,191.08c17.5,0,34.99.05,52.48-.07,2.02-.01,5-.34,5.84-1.63,1.54-2.36,2.88-5.74,2.39-8.34-.79-4.12-4.64-5.04-8.67-5.03-34.49.06-68.98.03-103.47.04-6.16,0-9.09,2.59-9.1,7.92,0,5.22,2.33,7.09,9.04,7.1,17.16.02,34.32,0,51.49,0ZM408.02,224.08c17.82,0,35.65.04,53.47-.02,5.02-.02,8.37-3.01,8.52-7.24.16-4.41-3.32-7.65-8.54-7.73-6-.09-11.99-.02-17.99-.02-28.98,0-57.97.03-86.95-.03-4.29,0-7.64,1.02-8.46,5.81-.99,5.81,1.89,9.21,7.98,9.23,17.32.05,34.65.02,51.97.02ZM408.44,257.1c16.32,0,32.65,0,48.97,0,1,0,2,0,3,0,6.06-.06,9.73-3.01,9.6-7.7-.13-4.54-3.64-7.32-9.47-7.32-34.48-.02-68.96-.02-103.44,0-6.77,0-9.18,2.08-9.1,7.69.08,5.34,2.46,7.32,8.97,7.32,17.16.02,34.31,0,51.47,0ZM314.5,126.01c3.33,0,6.66.15,9.98-.04,4.54-.25,7.47-3.3,7.57-7.54.11-4.67-2.63-8.12-7.27-8.3-6.81-.26-13.64-.27-20.45,0-5.41.21-8.34,3.33-8.29,8,.05,4.64,3.03,7.51,8.49,7.83,3.31.2,6.65.04,9.98.04ZM313.94,191.08v-.02c3.98,0,7.98.27,11.93-.08,3.59-.32,6.1-2.05,6.23-6.32.14-4.5-1.78-8.03-5.96-8.36-7.91-.62-15.92-.42-23.86-.02-3.94.2-6.78,4.32-6.19,8.28.6,4.05,3.1,6.44,7.39,6.51,3.48.05,6.97.01,10.45.01ZM314.09,242.07c-3.33,0-6.67-.04-10,.01-4.65.07-8.1,3.37-8.04,7.61.06,4.07,3.29,7.27,7.9,7.36,6.99.15,14,.15,20.99,0,4.96-.1,7.17-2.66,7.11-7.65-.06-4.7-2.25-7.1-6.97-7.3-3.66-.15-7.33-.03-10.99-.04Z"/>
      <path class="cls-10" d="M48.9.06c-.99.99-1.82,2.25-2.99,2.92-7.72,4.43-10.92,11.31-10.92,19.91-.01,101.85.04,203.71-.08,305.56-.01,10.9,4.04,18.59,14.49,22.47.58.22,1.04.78,1.55,1.19-9.99,0-19.98.07-29.98.01-11.76-.07-20.96-9.2-20.96-20.88C0,228.14,0,125.03.02,21.92.02,9.32,9.52.27,22.92.07c8.66-.12,17.32-.02,25.98-.01Z"/>
      <path class="cls-8" d="M102.95,53.2c48.48-.02,96.97-.07,145.45,0,8.16.01,13.55,5.15,13.55,12.92.04,71.16-.03,142.33-.06,213.49-5.55-7.36-11.44-14.19-20.5-17.57-14-5.23-27.89-10.77-41.86-16.09-1.63-.62-3.49-.63-5.25-.93-1.97-1.11-3.85-2.44-5.93-3.29-8.3-3.38-8.31-3.33-8.32-12.23,0-2.48-.06-4.96-.09-7.44,11.32-8.9,18.87-19.89,19.33-34.82,4.25-1.38,8.5-2.77,12.75-4.15,9.8-7.78,9.28-22.65-.98-28.15-.45-.67-.91-1.35-1.36-2.02.41-2.44,1.14-4.88,1.17-7.33.13-10.32.1-20.64.04-30.96-.06-9.02-4.94-14.09-13.99-14.71-4.6-.32-7.72-2.22-8.97-7.08-2.28-8.85-6.76-12.43-16.04-12.68-8.64-.24-17.3-.02-25.95,0-7.44-.04-14.91-.58-22.3-.02-13.39,1.02-22,8.77-26.98,20.92-.23-8.45-.31-16.9-.72-25.34-.41-8.42-.44-16.61,7.01-22.53Z"/>
      <path class="cls-11" d="M102.95,53.2c-7.46,5.92-7.42,14.11-7.01,22.53.41,8.44.49,16.89.72,25.34-.28,3.63-.75,7.25-.79,10.88-.11,9.82.17,19.65-.12,29.47-.16,5.41,1.38,9.78,5.43,13.3-7.61,6.4-9.14,13.92-5.11,25.24-.02,24.06-.05,48.12-.07,72.18-6.41,2.61-12.7,5.63-19.27,7.76-11.07,3.59-19.56,10.17-25.6,20.04-.06-2.16-.17-4.33-.17-6.49,0-68.13,0-136.25,0-204.38,0-11.34,4.66-16,16.03-15.98,11.99.02,23.98.08,35.97.13Z"/>
      <path class="cls-5" d="M194.29,245.02c1.75.3,3.61.31,5.24.93,13.97,5.32,27.86,10.87,41.86,16.09,9.05,3.38,14.95,10.21,20.5,17.57.04,2,.14,4,.11,6-.14,8.76-4.91,13.59-13.69,13.59-43.46.04-86.93.03-130.39.01-11.99,0-23.97-.11-35.96-.17,3.91-4.6,7.05-10.35,11.89-13.54,9.47-6.25,19.86-11.12,29.92-16.46,4.02-2.14,8.18-4.01,12.28-6,.56.07,1.11.14,1.67.21,18.91,11.23,47.82,1.91,56.57-18.23Z"/>
      <path class="cls-6" d="M350.99,53.2c34.12-.02,68.24-.06,102.36-.02,5.84,0,8.49,2.5,8.85,8.41.29,4.8.34,9.64.03,14.44-.48,7.46-2.4,9.05-10.06,9.05-29.8.01-59.59-.06-89.39.03-15.47.05-30.94.38-46.4.52-1.78.02-3.57-.39-5.35-.61,3.38-.33,6.76-.89,10.14-.93,9.66-.13,19.32-.04,28.41-.04-.56-4.3-1.2-7.98-1.5-11.69-.53-6.59-.14-13.09,2.92-19.15Z"/>
      <path class="cls-2" d="M136.05,263.03c-4.1,1.99-8.26,3.87-12.28,6-10.06,5.34-20.45,10.21-29.92,16.46-4.84,3.19-7.98,8.95-11.89,13.54-5.77.17-11.57.8-17.29.4-9.91-.68-13.73-5.19-13.7-15.06,0-1.49.11-2.97.17-4.46,6.04-9.87,14.53-16.45,25.6-20.04,6.57-2.13,12.85-5.14,19.27-7.76,1.85-.61,3.71-1.2,5.56-1.83,5.69-1.94,11.37-3.9,17.05-5.85,3.35,8.51,10.11,13.81,17.44,18.58Z"/>
      <path class="cls-15" d="M409.03,126.02c-16.66,0-33.32,0-49.98,0-1.33,0-2.68.1-4-.05-3.91-.45-7.88-4.41-7.95-7.83-.07-3.4,3.81-7.49,7.74-8.02,1.31-.18,2.66-.07,3.99-.07,33.15,0,66.31,0,99.46,0,1,0,2-.05,3,.02,5.72.39,8.83,3.3,8.73,8.15-.1,4.86-3.36,7.77-9.02,7.78-17.33.04-34.65.02-51.98.02Z"/>
      <path class="cls-9" d="M408.54,158.08c-17.5,0-35.01-.19-52.5.11-5.66.1-8.12-2.47-8.6-7.97-.3-3.36,4.53-7.14,8.74-7.14,35-.02,70.01-.03,105.01,0,5.57,0,8.88,3.12,8.84,7.96-.04,4.35-3.41,7.03-8.98,7.03-17.5.01-35,0-52.51,0Z"/>
      <path class="cls-9" d="M408.9,275.08c17.47,0,34.94-.01,52.42,0,5.22,0,8.54,2.64,8.7,6.79.19,4.85-3.13,8.19-8.57,8.2-35.28.05-70.55.05-105.83,0-4.74,0-7.61-3.12-7.62-7.86-.02-4.81,2.19-7.08,7.49-7.1,17.8-.08,35.61-.03,53.41-.03Z"/>
      <path class="cls-10" d="M408.53,191.08c-17.16,0-34.32.01-51.49,0-6.71,0-9.05-1.87-9.04-7.1,0-5.33,2.94-7.92,9.1-7.92,34.49-.01,68.98.02,103.47-.04,4.03,0,7.88.91,8.67,5.03.5,2.59-.84,5.98-2.39,8.34-.84,1.29-3.82,1.61-5.84,1.63-17.49.12-34.99.07-52.48.07Z"/>
      <path class="cls-10" d="M408.02,224.08c-17.32,0-34.65.04-51.97-.02-6.09-.02-8.97-3.41-7.98-9.23.82-4.78,4.17-5.81,8.46-5.81,28.98.06,57.97.03,86.95.03,6,0,11.99-.07,17.99.02,5.22.08,8.7,3.32,8.54,7.73-.15,4.23-3.5,7.23-8.52,7.24-17.82.06-35.65.02-53.47.02Z"/>
      <path class="cls-10" d="M408.44,257.1c-17.16,0-34.31.01-51.47,0-6.51,0-8.89-1.98-8.97-7.32-.08-5.62,2.32-7.69,9.1-7.69,34.48-.01,68.96-.02,103.44,0,5.83,0,9.34,2.78,9.47,7.32.13,4.69-3.54,7.64-9.6,7.7-1,0-2,0-3,0-16.32,0-32.65,0-48.97,0Z"/>
      <path class="cls-16" d="M350.99,53.2c-3.06,6.06-3.45,12.56-2.92,19.15.3,3.71.94,7.39,1.5,11.69-9.09,0-18.75-.08-28.41.04-3.38.04-6.76.61-10.14.93-4.95-.17-7.14-3.12-7.29-7.69-.18-5.3-.2-10.62,0-15.91.19-5.44,3.04-8.28,8.44-8.31,12.94-.07,25.89.05,38.83.09Z"/>
      <path class="cls-15" d="M314.5,126.01c-3.33,0-6.66.16-9.98-.04-5.46-.33-8.44-3.19-8.49-7.83-.05-4.67,2.88-7.79,8.29-8,6.81-.27,13.64-.25,20.45,0,4.64.17,7.38,3.63,7.27,8.3-.1,4.23-3.03,7.28-7.57,7.54-3.32.19-6.65.04-9.98.04Z"/>
      <path class="cls-9" d="M313.94,191.08c-3.48,0-6.97.04-10.45-.01-4.29-.06-6.79-2.46-7.39-6.51-.59-3.97,2.25-8.09,6.19-8.28,7.94-.4,15.95-.6,23.86.02,4.18.33,6.09,3.86,5.96,8.36-.13,4.27-2.65,6-6.23,6.32-3.95.35-7.95.08-11.93.08v.02Z"/>
      <path class="cls-10" d="M314.09,242.07c3.67,0,7.34-.12,10.99.03,4.71.19,6.9,2.59,6.97,7.3.07,4.99-2.15,7.55-7.11,7.65-6.99.15-14,.15-20.99,0-4.61-.1-7.83-3.29-7.9-7.36-.07-4.23,3.38-7.53,8.04-7.61,3.33-.05,6.66-.01,10,0Z"/>
      <path class="cls-14" d="M145.93,80.16c8.65-.02,17.31-.24,25.95,0,9.29.26,13.77,3.83,16.04,12.68,1.25,4.86,4.37,6.76,8.97,7.08,9.05.62,13.94,5.69,13.99,14.71.07,10.32.09,20.64-.04,30.96-.03,2.45-.76,4.89-1.17,7.33-2.89,3.26-6.69,3.55-10.66,3.26-7.09-2.62-11.23-7.76-13.02-15.65-.9.5-1.05,1.2-1.42,1.76-6.69,10-16.1,14.41-28.08,14.03-6.81-.22-13.63.17-20.45.29-2.35-.16-4.69-.31-7.04-.47-3.76-4.38-7.2-8.8-7.07-15.13.2-9.98-.23-19.98.14-29.95.31-8.3,2.41-16.32,9.28-21.75,4.47-3.53,9.68-6.13,14.56-9.15Z"/>
      <path class="cls-18" d="M136.06,156.61c6.82-.12,13.64-.5,20.45-.29,11.98.38,21.39-4.03,28.08-14.03.37-.55.52-1.26,1.42-1.76,1.79,7.89,5.93,13.04,13.02,15.65.08,10.35.17,20.7.25,31.05-.46,14.93-8.01,25.92-19.33,34.82-2.58,1.13-5.09,2.47-7.76,3.32-1.94.62-4.3,1.27-6.12.73-15.69-4.7-26.21-15.17-28.72-31.2-1.96-12.52-.97-25.51-1.29-38.29Z"/>
      <path class="cls-4" d="M136.06,156.61c.32,12.78-.67,25.77,1.29,38.29,2.51,16.03,13.04,26.5,28.72,31.2,1.82.54,4.18-.11,6.12-.73,2.67-.85,5.18-2.19,7.76-3.32.03,2.48.08,4.96.09,7.44.01,8.91.03,8.85,8.32,12.23,2.08.85,3.96,2.18,5.93,3.29-8.75,20.14-37.66,29.45-56.57,18.22,3.46-1.1,6.97-2.09,10.37-3.34,4.85-1.77,7.49-5.57,7.81-10.52.38-5.94.23-11.92-.02-17.87-.05-1.17-1.35-2.94-2.44-3.29-7.01-2.25-14.12-4.18-21.2-6.21-1.51-1.53-2.94-3.16-4.55-4.58-9.11-8.02-13.61-18.14-13.87-30.21-.9-2.17-1.32-4.75-2.78-6.42-4.02-4.58-5.23-9.61-3.28-15.24,1.07-3.1,2.85-5.95,4.3-8.92,5.65-.17,11.3-.34,16.95-.51,2.35.16,4.69.31,7.04.47Z"/>
      <path class="cls-19" d="M129.02,156.14c-5.65.17-11.3.34-16.95.51-3.63-.65-7.26-1.29-10.89-1.94-4.06-3.52-5.59-7.88-5.43-13.3.29-9.82,0-19.65.12-29.47.04-3.63.51-7.26.79-10.88,4.98-12.16,13.58-19.9,26.97-20.92,7.39-.56,14.86-.03,22.3.02-4.88,3.02-10.08,5.62-14.56,9.15-6.88,5.43-8.97,13.45-9.28,21.75-.38,9.97.06,19.97-.14,29.95-.12,6.32,3.31,10.75,7.07,15.13Z"/>
      <path class="cls-13" d="M199.28,187.24c-.08-10.35-.17-20.7-.25-31.05,3.97.29,7.77,0,10.66-3.26.45.67.9,1.35,1.36,2.02-.01,6.49-.12,12.98.02,19.46.06,2.9.63,5.79.96,8.68-4.25,1.38-8.5,2.77-12.75,4.15Z"/>
      <path class="cls-3" d="M212.02,183.09c-.34-2.89-.9-5.78-.96-8.68-.14-6.48-.03-12.98-.02-19.46,10.26,5.5,10.78,20.36.98,28.14Z"/>
      <path class="cls-1" d="M113.83,187.22c.26,12.07,4.75,22.19,13.87,30.21,1.61,1.42,3.04,3.05,4.55,4.58-.07,3.95-.37,7.9-.14,11.83.2,3.39-1.27,5.13-4.21,6.32-3.16,1.28-6.2,2.85-9.29,4.3-5.68,1.95-11.36,3.91-17.05,5.85-1.85.63-3.71,1.22-5.56,1.83.02-24.06.05-48.12.07-72.18,5.43,3.63,10.61,7.86,17.76,7.27Z"/>
      <path class="cls-7" d="M113.83,187.22c-7.15.6-12.34-3.63-17.76-7.27-4.03-11.32-2.5-18.84,5.11-25.24,3.63.64,7.26,1.29,10.89,1.94-1.46,2.97-3.23,5.82-4.3,8.92-1.95,5.63-.73,10.66,3.28,15.24,1.46,1.67,1.89,4.25,2.78,6.42Z"/>
      <path class="cls-12" d="M118.61,244.46c3.09-1.44,6.13-3.02,9.29-4.3,2.95-1.19,4.41-2.94,4.21-6.32-.23-3.93.07-7.89.14-11.83,7.08,2.03,14.19,3.96,21.2,6.21,1.09.35,2.39,2.13,2.44,3.29.24,5.95.4,11.94.02,17.87-.32,4.95-2.96,8.74-7.81,10.52-3.41,1.25-6.91,2.24-10.37,3.34-.56-.07-1.12-.14-1.67-.21-7.33-4.77-14.09-10.07-17.44-18.58Z"/>
    </g>
  </g>
</svg>