<?xml version="1.0" encoding="UTF-8"?>
<svg id="Layer_2" xmlns="http://www.w3.org/2000/svg" viewBox="0 0 604.82 605.39">
  <defs>
    <style>
      .cls-1 {
        fill: #4796cf;
      }

      .cls-2 {
        fill: #4696cf;
      }

      .cls-3 {
        fill: #fad7af;
      }

      .cls-4 {
        fill: #f5c89a;
      }
    </style>
  </defs>
  <g id="Layer_1-2" data-name="Layer_1">
    <g>
      <path class="cls-3" d="M115.05,488.64c10.31-6.87,21.12-13.12,30.82-20.77,13.24-10.46,23.79-23.53,32.09-38.29,8.87-15.77,13.99-32.73,17.28-50.52,4.15-22.47,1.92-45.05,2.84-67.57.64-15.65,3.89-30.89,10.49-45.17,4.86-10.52,11.08-20.45,15.38-31.17,3.4-8.49,5.81-17.65,6.9-26.73,2.6-21.68,4.16-43.48,6.17-65.23.67-7.26,1.43-14.5,2.15-21.75.66-.62,1.65-1.12,1.92-1.89,3.08-8.55,6.12-17.11,9.01-25.72,3.04-9.06,4.53-19,12.64-25.36,3.25-2.55,8.06-6.14,11.06-5.31,4.86,1.35,9.49,5.37,13,9.33,4.67,5.27,5.21,12.37,5.21,19.25.02,120.76.13,241.51-.12,362.27-.03,16.37-1.05,32.84-3.11,49.07-2.06,16.26-8.93,30.76-23.16,40.2-8.55,5.67-18.07,9.87-26.71,15.42-6.34,4.07-11.97,9.25-17.92,13.94-7.1-.68-14.3-.84-21.29-2.13-30.33-5.57-55.34-19.67-71.78-46.6-6.61-10.83-11.86-22.32-12.87-35.27Z"/>
      <path class="cls-3" d="M364.18,118.63c.92,4.64,2.25,9.23,2.7,13.92,1.54,16.16,2.5,32.38,4.2,48.51,1.58,14.94,3.11,29.96,6.1,44.65,1.55,7.59,5.64,14.88,9.64,21.69,8.49,14.46,13.83,29.88,17.41,46.22,4.05,18.48,1.91,37.08,2.83,55.61.61,12.22.8,24.66,3.34,36.55,5.13,24.08,14.77,46.23,31.28,65.19,13.3,15.26,28.76,27.49,46.25,37.38.42.24.96.24,1.45.35-1.34,5.79-2.08,11.81-4.13,17.34-16.65,44.91-57.43,65.67-101.2,66.6-1.02-1.06-1.98-2.18-3.07-3.16-10.65-9.53-23.57-15.36-35.98-22-8.52-4.56-15.64-10.84-20.43-19.16-8.14-14.12-11.37-29.88-11.4-45.88-.25-131.8-.1-263.6-.24-395.4,0-8.58,3.78-14.69,9.95-19.63,2.68-2.15,6.65-4.93,9.39-4.35,7.73,1.64,13.96,6.52,16.75,14.22,4.61,12.74,8.62,25.69,12.99,38.52.36,1.07,1.44,1.89,2.19,2.82Z"/>
      <path class="cls-1" d="M384.05,572.64c43.76-.93,84.55-21.7,101.2-66.6,2.05-5.53,2.78-11.55,4.13-17.34.06-1.33.09-2.66.19-3.99.65-8.74,7.05-13.25,15.3-10.18,12.16,4.53,24.34,9.08,36.13,14.46,16.64,7.6,32.93,15.98,49.39,23.99,10.04,4.89,14.69,12.73,14.43,24.03-.36,15.48-.02,30.98-.12,46.47-.09,13.06-9.01,21.92-22.08,21.89-60.3-.11-120.59-.55-180.89-.26-16.88.08-28.23-8.5-26.57-27.22.15-1.66.22-3.32.33-4.98,2.86-.1,5.71-.19,8.57-.28Z"/>
      <path class="cls-2" d="M115.05,488.64c1.01,12.95,6.26,24.44,12.87,35.27,16.44,26.93,41.46,41.03,71.78,46.6,6.99,1.28,14.19,1.45,21.29,2.13,2.63.09,5.27.18,7.9.27.1,3.33.31,6.65.28,9.98-.11,13.23-8.31,21.54-21.45,21.67-23.65.24-47.31.52-70.96.61-37.82.15-75.65.17-113.47.22-14.87.02-23.21-8.3-23.24-23.17-.04-15.66.09-31.33-.04-46.99-.09-10.05,4.31-16.9,13.17-21.66,26.74-14.35,54.38-26.67,82.58-37.87,11.66-4.63,19.94-.78,19.3,12.93Z"/>
      <path class="cls-4" d="M228.89,572.91c-2.63-.09-5.27-.18-7.9-.27,5.95-4.69,11.57-9.87,17.92-13.94,8.64-5.55,18.16-9.75,26.71-15.42,14.22-9.44,21.1-23.94,23.16-40.2,2.06-16.23,3.08-32.7,3.11-49.07.25-120.75.14-241.51.12-362.27,0-6.88-.55-13.98-5.21-19.25-3.51-3.97-8.14-7.98-13-9.33-3-.83-7.81,2.76-11.06,5.31-8.11,6.36-9.59,16.29-12.64,25.36-2.89,8.61-5.94,17.17-9.01,25.72-.27.76-1.27,1.26-1.92,1.89.98-11.24,1.9-22.47,2.94-33.7,1.51-16.35,3.11-32.69,4.66-49.03.44-4.62.8-9.26,1.24-13.88,1.2-12.52,11.13-23.15,22.66-24.32,14.38-1.46,25.9,5.51,30.26,18.29.25.73.44,1.47.47,1.58,4-4.93,7.36-10.79,12.25-14.78,13.81-11.29,35.7-4.61,41.27,12.41,1.78,5.44,2.41,11.36,2.91,17.11,1.61,18.51,2.87,37.06,4.35,55.58.48,5.95,1.22,11.87,1.84,17.81.03.67.07,1.34.1,2.02.02,2.7.04,5.41.06,8.11-.75-.93-1.83-1.75-2.19-2.82-4.36-12.83-8.38-25.78-12.99-38.52-2.78-7.7-9.01-12.58-16.75-14.22-2.74-.58-6.71,2.2-9.39,4.35-6.17,4.94-9.96,11.05-9.95,19.63.15,131.8,0,263.6.24,395.4.03,16,3.25,31.76,11.4,45.88,4.79,8.31,11.91,14.6,20.43,19.16,12.42,6.64,25.33,12.48,35.98,22,1.09.98,2.05,2.1,3.07,3.16-2.86.09-5.71.19-8.57.28-2.38-1.76-4.66-3.7-7.17-5.26-9.02-5.61-17.72-11.96-27.29-16.44-21.01-9.83-32.44-26.17-36.05-48.61-.73-4.52-1.59-9.03-3.2-13.59-.9,5.38-1.74,10.78-2.72,16.15-3.68,20.28-14.19,35.62-32.98,44.67-12.65,6.09-24.68,13.08-35.39,22.22-.49.41-1.19.57-1.8.84Z"/>
      <path class="cls-3" d="M364.13,110.51c-.03-.67-.07-1.34-.1-2.02.03.67.07,1.34.1,2.02Z"/>
    </g>
  </g>
</svg>