<?xml version="1.0" encoding="UTF-8"?>
<svg id="Layer_2" xmlns="http://www.w3.org/2000/svg" viewBox="0 0 622.71 625.85">
  <defs>
    <style>
      .cls-1 {
        fill: #fecc87;
      }

      .cls-2 {
        fill: #f1f1f1;
      }

      .cls-3 {
        fill: #efefef;
      }

      .cls-4 {
        fill: #eeb877;
      }

      .cls-5 {
        fill: #fd6354;
      }

      .cls-6 {
        fill: #ededed;
      }

      .cls-7 {
        fill: #d13331;
      }

      .cls-8 {
        fill: #eaeaea;
      }

      .cls-9 {
        fill: #fde1ca;
      }
    </style>
  </defs>
  <g id="Layer_1-2" data-name="Layer_1">
    <g>
      <g>
        <path class="cls-9" d="M326.78,625.8c-4.65,0-9.31.01-13.96.02-8.45-.34-16.91-.64-25.36-1.07-1.28-.06-2.53-.68-3.79-1.05.05-.28.02-.55-.08-.81.83-.04,1.66-.18,2.47-.12,33.32,2.57,66.21-.28,98.74-7.76-1.92.92-3.83,1.86-5.76,2.76-1.44.68-2.9,1.33-4.35,2-.29,0-.58,0-.87,0-1.01,0-2.02,0-3.03,0-1,.33-2,.66-2.99.99-1.42.08-2.85.06-4.25.26-6.26.89-12.5,1.84-18.76,2.77-6.01.66-12.01,1.33-18.02,1.99Z"/>
        <path class="cls-3" d="M260.81,624.85c-10.37,0-20.73.08-31.1-.09-1.65-.03-3.27-1.24-4.91-1.9,7.74-.34,15.5-.55,23.23-1.11,1.99-.14,3.91-1.39,5.86-2.13.64.13,1.28.27,1.92.4,1.65.61,3.25,1.44,4.95,1.78,3.99.81,8.02,1.38,12.04,2.05-.47.54-.95,1.55-1.41,1.54-3.53-.07-7.05-.33-10.58-.54Z"/>
        <path class="cls-5" d="M282.91,623.79c-.09-.31-.06-.61.07-.9,0,0,.3-.07.3-.07l.3.09c.11.26.13.53.08.81-.25.06-.5.09-.76.08Z"/>
        <path class="cls-3" d="M344.8,623.82c6.25-.93,12.5-1.88,18.76-2.77,1.4-.2,2.83-.18,4.25-.26,0,1.68,0,3.37.01,5.05-5.67,0-11.33,0-17,0-2,0-4,0-6,0,0-.67,0-1.35-.01-2.02Z"/>
        <path class="cls-5" d="M280.79,621.88c-5.54-.54-11.08-1.14-16.63-1.59-2.77-.23-5.56-.19-8.34-.28-.64-.13-1.28-.27-1.92-.4-2.42-.87-4.77-2.05-7.26-2.56-48.2-9.87-91.36-30.56-129.72-61.16-42.93-34.25-74.64-77.04-95.06-128.02-12.28-30.63-19.3-62.48-21.25-95.5-3.99-67.64,12.04-130.06,48.41-187.17,27.34-42.93,63.62-76.44,107.29-102.56,12.83-7.67,26.33-13.45,39.75-19.56,7.22-3.29,15.15-5.04,22.76-7.49,8.02-2.19,16.05-4.38,24.07-6.57.98-.13,1.95-.27,2.93-.4,6.99-1.3,13.97-2.59,20.96-3.89.68-.06,1.36-.12,2.04-.19,1.34-.23,2.68-.45,4.02-.68,1.33-.08,2.66-.17,3.98-.25,1.99-.29,3.98-.57,5.97-.86,1.01-.01,2.02-.03,3.03-.04,16.34-.03,32.67-.06,49.01-.09,1.34.05,2.68.09,4.02.14,4,.54,7.99,1.07,11.99,1.61,1.67.13,3.34.27,5,.4,6.66,1.28,13.33,2.56,19.99,3.83,2.11.39,4.22.78,6.32,1.16,0,0,.11.23.11.23l.15-.15c1.16.27,2.31.55,3.47.82,4.32,1.23,8.64,2.45,12.96,3.68.67.15,1.33.31,2,.46.67.26,1.33.52,2,.78.53.13,1.05.26,1.58.38,9.8,3.61,19.6,7.22,29.39,10.83.17.21.38.27.64.19,2.11.98,4.22,1.97,6.32,2.95,0,0-.04-.03-.04-.03.37.22.73.43,1.1.65.32.11.64.22.96.33,4.67,2.32,9.34,4.64,14.01,6.95,2.34,1.32,4.68,2.65,7.02,3.97.68.34,1.36.68,2.04,1.02,1.99,1,3.98,2,5.97,3,6.02,4.24,12.03,8.51,18.09,12.7.88.61,2.01.87,3.03,1.29.3.29.61.58.91.88,0,0,.05.1.05.1,2.96,2.37,5.92,4.73,8.88,7.1,0,0-.02-.02-.02-.02,1.35.65,2.71,1.3,4.06,1.95,2.79,3.81,5.69,7.4,11.68,6.02-.13,7.87,6.89,10.18,10.57,15.02.26.27.52.55.77.82.7.71,1.4,1.41,2.1,2.12,1.62,1.7,3.23,3.39,4.85,5.09.32.33.64.65.96.98.67.68,1.34,1.37,2.01,2.05,0,0-.02-.03-.02-.03,1.35,1.29,2.71,2.58,4.06,3.87.1.25.27.33.53.26.79,1.03,1.58,2.06,2.37,3.08,4.06,5.24,8.12,10.47,12.17,15.71,2.27,3.11,4.54,6.23,6.81,9.34.37.57.74,1.13,1.11,1.7,2.01,2.98,4.03,5.96,6.04,8.94,0,0,.02.04.02.04,2.63,4.38,5.26,8.76,7.89,13.13,3.38,6.29,6.75,12.59,10.13,18.88,1.26,2.71,2.51,5.41,3.77,8.12,0,0,0,.04,0,.04,1.67,3.35,3.34,6.7,5.02,10.05.73,2.06,1.46,4.13,2.19,6.19,0,0-.3.16-.3.16l.31.13c0,.24.13.37.36.39.16.73.32,1.46.48,2.19-.14.28-.1.52.13.73,1.36,3.98,2.73,7.97,4.09,11.95.25.79.5,1.59.75,2.38,0,0-.12.33-.12.33l.27.26s.02.07.02.07c1.29,3.41,2.58,6.82,3.87,10.23.37,1.94.74,3.88,1.12,5.82.66,3.32,1.31,6.64,1.97,9.96.1.99.19,1.97.29,2.96.47,1.82.95,3.64,1.42,5.46.1.53.2,1.06.3,1.59.27,1.73.53,3.45.8,5.18-.22.31-.17.56.17.77.38,2.34.77,4.68,1.15,7.03.15,1.34.31,2.69.46,4.03.15.66.3,1.32.45,1.98.07.69.14,1.38.22,2.07.02.62.03,1.25.05,1.87.06.73.11,1.46.16,2.19.14.44.27.88.41,1.32.29,3.52.58,7.04.87,10.55-2.02-1.28-4.36-2.24-6-3.89-13.4-13.5-26.57-27.21-40-40.68-10.3-10.33-20.98-20.28-31.29-30.61-13.79-13.83-27.29-27.94-41.07-41.77-13.79-13.85-27.71-27.55-41.69-41.21-2.29-2.24-5.16-3.88-7.76-5.8,0,0,.03.02.03.02-.34-.68-.68-1.35-1.03-2.03,0,0,.02.03.02.03-.36-.35-.72-.7-1.08-1.05-3.48-3.99-6.65-8.3-10.48-11.92-16.62-15.7-36.29-22.71-59.2-20.06-22.72,2.63-40.54,13.5-52.89,32.58-4.78,7.39-7.8,15.92-11.7,24.1-.93-.43-2.14-.95-3.3-1.55-14.73-7.57-30.08-10.56-46.73-8.29-31.45,4.28-58.86,32.41-61.52,64.27-.29,3.46-1.65,4.09-4.66,3.97-5.11-.22-10.28-.57-15.35-.06-23.21,2.37-40.77,13.77-51.25,34.64-4.17,8.3-6.21,17.67-9.3,26.8-53.01,1.24-72.11,58.59-49.58,90.59,8.67,16.46,17.25,32.97,26.03,49.37,8.79,16.41,18.14,32.52,26.59,49.1,7.61,14.92,15.39,29.44,30.44,38.35.52.38,1.03.75,1.55,1.13l.14-.12c1.72,2.18,3.25,4.56,5.2,6.51,37.13,37.2,74.32,74.34,111.45,111.55,1.46,1.46,2.45,3.4,3.66,5.11Z"/>
        <path class="cls-7" d="M453.75,128.86c2.6,1.92,5.47,3.57,7.76,5.8,13.98,13.65,27.9,27.36,41.69,41.21,13.78,13.84,27.28,27.95,41.07,41.77,10.3,10.33,20.99,20.28,31.29,30.61,13.43,13.47,26.6,27.19,40,40.68,1.64,1.65,3.98,2.61,6,3.89.08,14.47.5,28.94.09,43.4-.21,7.48-1.9,14.92-2.93,22.38-1.59,8.75-3.19,17.5-4.78,26.24-.87,2.96-1.74,5.92-2.61,8.89-.92,3.33-1.84,6.67-2.75,10-2.28,6.68-4.57,13.36-6.85,20.04,0,0,.02-.03.02-.03-.3.7-.6,1.39-.9,2.09-3.02,6.98-6.05,13.95-9.07,20.93-1.31,2.7-2.62,5.39-3.92,8.09v.03c-.33.66-.64,1.31-.96,1.97,0,0-.05.08-.05.08-.22.28-.43.56-.65.84-.14.33-.27.67-.41,1-.25.34-.5.69-.74,1.03-2.14,4.32-4.29,8.63-6.43,12.95-.63.61-1.26,1.23-1.89,1.84-3.03,4.71-6.05,9.42-9.08,14.12,0,0,.04-.04.04-.04-2.29,3.05-4.58,6.11-6.88,9.16-.36.94-.71,1.88-1.07,2.82-.35.37-.71.74-1.06,1.11,0,0,.04-.06.04-.06-2.31,2.7-4.63,5.4-6.94,8.11-.32.37-.63.74-.95,1.12-2.37,2.62-4.74,5.24-7.11,7.85-2.32,2.65-4.64,5.3-6.96,7.94-3.04,3.34-6.08,6.69-9.12,10.03-27.09,24.02-56.1,45.19-89.47,59.8-8.66,3.79-17.57,7.03-26.36,10.52-8.41,2.54-16.82,5.07-25.23,7.61-.6.11-1.2.21-1.8.32-32.53,7.48-65.42,10.33-98.74,7.76-.82-.06-1.65.07-2.47.12,0,0-.3-.08-.3-.08,0,0-.3.07-.3.07-.39-.23-.78-.45-1.18-.68-.35-.11-.69-.23-1.04-.34,0,0,.03.01.03.01-1.21-1.71-2.2-3.65-3.66-5.11-37.13-37.2-74.32-74.34-111.45-111.55-1.95-1.95-3.47-4.33-5.19-6.51,1.25.46,2.52.86,3.73,1.38,25.88,11.13,53.82,3.99,71.09-18.26,2.2-2.83,4.07-5.92,6.06-8.82,17.87,7.34,35.43,8.42,53.18,1.02,17.68-7.38,29.27-20.65,36.56-38.44,12.76,8.15,26.39,11.39,40.69,12.28-5.84,23.58-1.52,45.05,15.01,62.98,16.15,17.5,36.46,24.62,60.29,20.25,7.31-2.51,15.13-4.09,21.84-7.72,15.59-8.42,27.15-21.59,38.08-35.25,1.28-1.04,2.66-1.97,3.82-3.13,8.25-8.23,16.53-16.43,24.66-24.77,16.83-17.28,22.9-37.99,18.03-61.44-1.67-8.03-5.77-15.54-8.63-23.33-12.13-32.93-24.14-65.91-36.32-98.82-18.23-49.27-36.55-98.51-54.83-147.76Z"/>
        <path class="cls-3" d="M334.81,2.63c-16.34.03-32.67.06-49.01.09,3.94-.95,7.87-2.68,11.82-2.71,11.53-.08,23.08.48,34.61.93.88.03,1.72,1.11,2.58,1.7Z"/>
        <path class="cls-6" d="M433.8,26.81c-9.8-3.61-19.59-7.22-29.39-10.83,3.32.62,6.74.94,9.94,1.94,5.62,1.76,11.15,3.85,16.63,6.02,1.14.45,1.89,1.88,2.82,2.86Z"/>
        <path class="cls-2" d="M617.62,261.03c-.27-1.73-.53-3.45-.8-5.18,1.08-.84,2.16-1.69,3.24-2.53,3.88,4.12,3.5,9.3-1.11,15.5-.38-2.34-.77-4.68-1.15-7.03.04-.28-.01-.53-.17-.77Z"/>
        <path class="cls-3" d="M456.79,37.85c-4.67-2.32-9.34-4.64-14.01-6.95.4-.24.88-.76,1.2-.68,5.47,1.37,10.92,2.81,17.07,4.42-.01.14-.15,1.68-.29,3.22-1.33,0-2.65,0-3.98,0Z"/>
        <path class="cls-3" d="M266.76,4.73c-6.99,1.3-13.97,2.59-20.96,3.89,1.31-.92,2.51-2.11,3.96-2.72,2.79-1.18,5.67-2.65,8.6-2.86,2.75-.2,5.6,1.07,8.4,1.69Z"/>
        <path class="cls-3" d="M375.82,8.62c-6.66-1.28-13.33-2.56-19.99-3.83,5.81-3.34,11.27,1.21,16.85.71,3.2-.29,3.21.96,3.14,3.12Z"/>
        <path class="cls-6" d="M242.87,9.02c-8.02,2.19-16.05,4.38-24.07,6.57,2.48-1.46,4.8-3.4,7.47-4.28,4.38-1.45,8.98-2.31,13.52-3.2.93-.18,2.05.58,3.08.91Z"/>
        <path class="cls-8" d="M601.71,423.79c2.28-6.68,4.57-13.36,6.85-20.04.4.04.8.07,1.21.11-1.65,5.97-3.2,11.96-5.05,17.86-.29.91-1.97,1.39-3.01,2.07Z"/>
        <path class="cls-9" d="M386.6,614.71c8.41-2.54,16.82-5.07,25.23-7.61-2.19,1.24-4.24,3.01-6.6,3.63-6.14,1.6-12.41,2.69-18.64,3.98Z"/>
        <path class="cls-2" d="M576.72,474.6c.63-.61,1.26-1.23,1.89-1.84,1.26,1.06,2.59,2.04,3.77,3.18,1.38,1.34,3.58,2.99.86,4.65-1.09.66-3.31-.32-4.92-.86-.64-.21-1.01-1.24-1.51-1.9-.03-1.08-.06-2.16-.09-3.24Z"/>
        <path class="cls-3" d="M565.68,134.16c-2.27-3.11-4.54-6.23-6.81-9.34,1.57-.39,3.81-1.6,4.56-.99,1.64,1.33,4.35,2.71,2.66,5.97-.62,1.2-.3,2.9-.41,4.37Z"/>
        <path class="cls-3" d="M527.65,536.78c3.04-3.34,6.08-6.69,9.12-10.03-.86,3.33-1.32,6.84-2.68,9.96-1.75,4.02-4.26.58-6.44.07Z"/>
        <path class="cls-8" d="M613.94,384.86c1.59-8.75,3.19-17.49,4.78-26.24-1.07,8.39-2.11,16.78-3.26,25.16-.06.42-.99.72-1.52,1.08Z"/>
        <path class="cls-3" d="M580.74,157.96c-2.63-4.38-5.26-8.76-7.89-13.13,1.75.61,3.5,1.22,5.22,1.81,1.02,2.24,2.24,4.93,3.91,8.61-.03.07-.63,1.39-1.24,2.71Z"/>
        <path class="cls-6" d="M502.78,67.9c-2.96-2.37-5.92-4.73-8.88-7.1,2.02-.04,4.39,1.73,5.85-1.43.23-.5,2.45-.07,4.82-.07-1.55,2.15-2.43,3.37-3.31,4.59.51,1.34,1.02,2.67,1.53,4.01Z"/>
        <path class="cls-3" d="M576.72,474.6c.03,1.08.06,2.16.09,3.24-1.59,2.87-2.96,5.91-4.88,8.54-.86,1.19-2.82,1.59-4.28,2.34,3.03-4.71,6.05-9.42,9.08-14.12Z"/>
        <path class="cls-3" d="M606.93,216.79c-1.36-3.98-2.73-7.97-4.09-11.95,3.26,1.21,5.34,7.27,4.09,11.95Z"/>
        <path class="cls-6" d="M609.77,403.86c-.4-.04-.8-.07-1.21-.11.92-3.33,1.84-6.67,2.75-10,3.58.79,2.78,3.08,1.64,5.25-.89,1.71-2.12,3.24-3.19,4.86Z"/>
        <path class="cls-3" d="M350.83,4.38c-4-.54-7.99-1.07-11.99-1.61,3.25-.31,6.51-.79,9.76-.82.74,0,1.48,1.58,2.23,2.43Z"/>
        <path class="cls-6" d="M543.73,518.81c2.37-2.62,4.74-5.24,7.11-7.85-.87,2.57-1.47,5.3-2.78,7.63-.38.68-2.83.18-4.33.23Z"/>
        <path class="cls-6" d="M551.79,509.84c2.31-2.7,4.63-5.4,6.94-8.11-.81,2.7-1.63,5.4-2.56,8.5-1.32-.12-2.85-.26-4.37-.4Z"/>
        <path class="cls-8" d="M398.83,14.35c-4.32-1.23-8.64-2.45-12.96-3.68,3.65-1,11.51,1.23,12.96,3.68Z"/>
        <path class="cls-3" d="M611.72,230.06c-1.29-3.41-2.58-6.82-3.87-10.23,4.4,2.23,4.85,5.96,3.87,10.23Z"/>
        <path class="cls-2" d="M469.21,617.37c-.77-1.57-1.66-3.1-2.2-4.75-.1-.3,1.24-1.07,1.92-1.62.89,1.84,1.78,3.68,2.66,5.52-.79.28-1.59.57-2.38.85Z"/>
        <path class="cls-3" d="M560.81,497.85c2.29-3.05,4.58-6.11,6.88-9.16-.05,4.73-1.46,8.45-6.88,9.16Z"/>
        <path class="cls-2" d="M587.84,454.86c1.31-2.7,2.62-5.39,3.92-8.09,1.59,4.71.66,6.65-3.92,8.09Z"/>
        <path class="cls-9" d="M599.66,195.06c-1.67-3.35-3.34-6.7-5.02-10.05,1.67,3.35,3.34,6.7,5.02,10.05Z"/>
        <path class="cls-9" d="M614.81,245.83c-.66-3.32-1.31-6.64-1.97-9.96,1.93,3.07,4.14,6.08,1.97,9.96Z"/>
        <path class="cls-3" d="M572.83,144.8c-2.01-2.98-4.03-5.96-6.04-8.94,3.78,1.78,6.05,4.59,6.04,8.94Z"/>
        <path class="cls-3" d="M438.81,26.86l5.22-3.05c.17.35.34.69.51,1.04-.92,1.67-1.84,3.33-2.77,5-.35.02-.7.05-1.05.07,0,0,.04.03.04.03-.65-1.03-1.31-2.06-1.96-3.09Z"/>
        <path class="cls-9" d="M594.64,184.97c-1.26-2.71-2.51-5.41-3.77-8.12,4.11,1.38,3.65,4.88,3.77,8.12Z"/>
        <path class="cls-3" d="M272.82,3.87c-1.34.23-2.68.45-4.02.68.41-1.15.83-2.29,1.24-3.44l2.77,2.77Z"/>
        <path class="cls-6" d="M456.79,37.85c1.33,0,2.65,0,3.98,0,1.01,1.32,2.03,2.64,3.04,3.97-2.34-1.32-4.68-2.65-7.02-3.97Z"/>
        <path class="cls-6" d="M471.82,45.83c-1.99-1-3.98-2-5.97-3,3.08-1.17,5.57-1.16,5.97,3Z"/>
        <path class="cls-3" d="M282.77,2.76c-1.99.29-3.98.57-5.97.86,1.99-.29,3.98-.57,5.97-.86Z"/>
        <path class="cls-8" d="M536.79,98.89c-1.62-1.7-3.23-3.39-4.85-5.09,3.28.11,4.94,1.77,4.85,5.09Z"/>
        <path class="cls-6" d="M438.81,26.86c.65,1.03,1.31,2.06,1.96,3.09-2.11-.98-4.21-1.97-6.32-2.95,1.45-.05,2.91-.1,4.37-.14Z"/>
        <path class="cls-9" d="M616.52,254.26c-.47-1.82-.95-3.64-1.42-5.46.47,1.82.95,3.64,1.42,5.46Z"/>
        <path class="cls-8" d="M543.8,105.77c-1.35-1.29-2.71-2.58-4.06-3.87,1.35,1.29,2.71,2.58,4.06,3.87Z"/>
        <path class="cls-6" d="M506.81,69.83c-1.35-.65-2.71-1.3-4.06-1.95,1.35.65,2.71,1.3,4.06,1.95Z"/>
        <path class="cls-8" d="M546.69,109.11c-.79-1.03-1.58-2.06-2.37-3.08.79,1.03,1.58,2.06,2.37,3.08Z"/>
        <path class="cls-8" d="M402.83,15.6c-.67-.26-1.33-.52-2-.78.67.26,1.33.52,2,.78Z"/>
        <path class="cls-8" d="M539.76,101.92c-.67-.68-1.34-1.37-2.01-2.05.67.68,1.34,1.37,2.01,2.05Z"/>
        <path class="cls-2" d="M599.39,447.62c-.11.25-.17.65-.35.72-.18.07-.49-.18-.74-.29.11-.25.16-.65.35-.72.18-.07.49.18.74.29Z"/>
        <path class="cls-2" d="M619.85,274.83c-.15-.66-.3-1.32-.45-1.98.15.66.3,1.32.45,1.98Z"/>
        <path class="cls-8" d="M600.84,425.85c.3-.7.6-1.39.9-2.09-.3.7-.6,1.39-.9,2.09Z"/>
        <path class="cls-3" d="M602.71,204.12c-.16-.73-.32-1.46-.48-2.19.16.73.32,1.46.48,2.19Z"/>
        <path class="cls-2" d="M620.11,278.78c-.02-.62-.03-1.25-.05-1.87.02.62.03,1.25.05,1.87Z"/>
        <path class="cls-2" d="M586.89,456.86c.32-.66.63-1.31.95-1.97-.32.66-.63,1.31-.95,1.97Z"/>
        <polygon class="cls-8" points="382.41 9.86 382.25 10.02 382.14 9.78 382.41 9.86"/>
        <polygon class="cls-3" points="601.86 201.54 601.55 201.41 601.85 201.25 601.86 201.54"/>
        <path class="cls-6" d="M558.68,501.79c.35-.37.71-.74,1.06-1.11-.35.37-.71.74-1.06,1.11Z"/>
        <path class="cls-2" d="M620.69,282.28c-.14-.44-.27-.88-.41-1.32.14.44.27.88.41,1.32Z"/>
        <path class="cls-6" d="M493.85,60.7c-.3-.29-.61-.58-.91-.88.31.29.61.58.91.88Z"/>
        <path class="cls-2" d="M585.04,459.82c.25-.34.5-.69.74-1.03-.25.34-.5.69-.74,1.03Z"/>
        <path class="cls-3" d="M607.83,219.76l-.27-.26s.11-.33.12-.33c.06.19.11.39.15.59Z"/>
        <path class="cls-2" d="M586.19,457.78c.22-.28.43-.56.65-.84-.22.28-.43.56-.65.84Z"/>
        <path class="cls-6" d="M440.72,29.91c.35-.02.7-.05,1.05-.07.03.24.05.48.05.72-.37-.22-.73-.43-1.1-.65Z"/>
        <path class="cls-8" d="M529.84,91.69c-.26-.27-.52-.55-.77-.82.26.27.52.55.77.82Z"/>
        <path class="cls-8" d="M344.8,623.82c0,.67,0,1.35.01,2.02-6.01-.01-12.02-.02-18.03-.04,6.01-.66,12.01-1.33,18.02-1.99Z"/>
        <path class="cls-5" d="M280.76,621.87c.35.11.69.23,1.04.34-.35-.11-.69-.23-1.04-.34Z"/>
        <path class="cls-1" d="M453.75,128.86c18.28,49.25,36.61,98.49,54.83,147.76,12.17,32.92,24.19,65.89,36.32,98.82,2.87,7.79,6.97,15.3,8.63,23.33,4.87,23.45-1.2,44.16-18.03,61.44-8.13,8.35-16.41,16.55-24.66,24.77-1.16,1.16-2.54,2.09-3.82,3.13-.32-7.2-.76-14.4-6.36-19.86-7.33-7.14-14.64-14.3-22.19-21.2-6.86-6.27-17.7-6.44-24.34.14-8.52,8.44-16.48,17.44-24.53,26.35-9.84,10.88-11.95,24.22-10.52,38.06.45,4.33,3.61,8.78,6.51,12.38,5.46,6.76,13.71,6.56,21.5,7.12-23.83,4.37-44.14-2.74-60.29-20.25-16.54-17.92-20.86-39.39-15.01-62.98,3.86-12.26,10.57-22.6,19.87-31.55,9.95-9.57,19.11-19.96,28.94-29.65,8.4-8.27,17.17-16.18,25.98-24.02,3.78-3.37,7.72-6.94,12.24-8.97,3.55-1.59,4.05-3.35,4.04-6.61-.1-26.67-.07-53.33-.04-80,0-1.99.37-3.97.37-5.95.04-10.31.02-20.62.02-29.19-3.92,16.56-11.3,32.83-26.32,44.98-15.16,12.26-32.55,17.24-51.88,16.9v7.08q-1.9-7.96-5.72-7.02c3.5,6,3.23,9.11-1.14,13.09-3.13,2.85-9.16,3.09-12.93.52-4.6-3.14-4.91-9.47-.94-18.88-25.26-11.84-43.1-29.65-47.24-58.62-.24,6.17.12,12.34-.33,18.45-.71,9.6,1.72,18.78,4.59,27.53,4.94,15.02,16.34,25.78,27.48,36.44.4.39,1.25.41,1.89.43,5.12.17,10.96-1.4,13.11,5.67.06.18.59.27.92.32,3.31.45,3.1,2.93,3.09,5.3,0,4.12,0,8.25,0,12.37.36,0,.73-.02,1.09-.03v-14.93h5.4c.32-1.56.62-2.98.87-4.21.66,1.79,1.02,4.83,2,5.04,2.22.48,4.73-.43,7.33-.81-.36,4.45,2.62,2.43,5.13.98.17,2.38.3,4.26.44,6.14.14,0,.28,0,.43,0,.26-1.43.51-2.85.72-3.99,2.32-.86,4.23-1.79,6.26-2.28,3.95-.95,7.97-1.6,11.94-2.46,2.81-.61,5.57-1.56,8.4-1.95,2.19-.31,5.06-.81,6.56.27,1.86,1.33,2.48,4.29,3.92,6.35.54.77,1.88.97,3.29,1.63,2.31,5.16,1.11,12.46,6.53,17.83,2.13,2.11,3.59,5.42,4.16,8.41.47,2.5.13,6.38-1.48,7.79-3.85,3.39-8.59,5.79-13.09,8.39-8.94,5.16-18.03,10.05-26.92,15.29-10.73,6.32-22.18,10.09-34.63,10.92-11.69.77-22.77-2.06-33.38-6.34-9.57-3.85-18.62-9.5-24.73-17.76-9.96-13.47-18.66-27.88-28.11-42.21-.58,2.55-1.12,4.87-1.71,7.44-1.56-5.1,1.75-10.86-3.11-15.06-2.66,9.63-1.44,18.63,2.84,27.38,4.42,9.04,8.48,18.25,12.92,27.28,7.01,14.27,14.25,28.43,21.22,42.72.58,1.18.43,3.82-.37,4.38-5.2,3.67-10.34,7.73-16.13,10.14-6.31,2.62-13.32,3.55-20.01,5.27-9.08,2.33-17.85,0-26.28-2.63-19.13-5.97-31.34-20.06-41.13-36.75-5.98-10.2-12.07-20.36-18.5-30.29-4.31-6.65-9.35-12.81-13.94-19.28-1.21-1.71-2.66-3.75-2.7-5.66-.04-1.73,1.71-3.5,2.91-5.69-10.9,2.7-10.21-7.24-14-12.6-.12,2.06-.25,4.25-.38,6.43-.56-8.5-5.05-14.74-10.82-20.3-.4.19-.8.38-1.21.58,22.72,48.06,45.43,96.12,68.3,144.5-8.2,4.43-17.46,8.58-27.94,8.38-16.74-.31-31.73-5.76-43.34-17.95-7.85-8.24-14.51-17.64-21.52-26.66-5.68-7.3-10.95-14.92-16.67-22.19-6.03-7.67-12.22-15.23-18.64-22.58-4.42-5.06-9.33-9.69-14.02-14.51-22.52-32-3.43-89.35,49.58-90.59,3.09-9.13,5.13-18.5,9.3-26.8,10.48-20.87,28.04-32.26,51.25-34.64,5.06-.52,10.24-.16,15.35.06,3.01.13,4.37-.51,4.66-3.97,2.65-31.86,30.06-59.99,61.52-64.27,16.65-2.27,32.01.72,46.73,8.29,1.17.6,2.38,1.12,3.3,1.55,3.91-8.19,6.92-16.72,11.7-24.1,12.35-19.08,30.17-29.95,52.89-32.58,22.91-2.65,42.58,4.36,59.2,20.06,3.83,3.62,7.01,7.93,10.49,11.92.36.35.72.7,1.08,1.05,0,0-.02-.03-.02-.03.34.68.68,1.35,1.03,2.03,0,0-.03-.02-.03-.02ZM433.4,223.09c0-.08.02-.17.03-.25,2.17,0,4.33.07,6.5-.01,4.03-.15,6.72-1.57,7.55-6.16,1.25-6.94-1.56-14.06-8.62-18.74-9.58-6.35-20.32-9.12-31.68-10.63-19.76-2.61-39.01-1.44-57.49,6.26-7.05,2.94-14.31,6.77-16.11,15.11-2.28,10.52-1.42,14.35,9.66,14.06,6.21-.16,12.39-1.19,18.59-1.83,6.09-.63,12.17-1.66,18.28-1.8,8.46-.2,16.96-.13,25.39.53,9.34.73,18.61,2.27,27.91,3.45ZM272.97,336.82c0-5.54.11-10.18-.04-14.81-.07-2.3,0-4.95-1.06-6.82-3.76-6.59-8.12-12.83-12-19.35-7.52-12.61-14.86-25.33-22.34-37.96-.29-.48-1.23-.57-1.92-.87-.21.7-.47,1.08-.38,1.29,5.6,12.33,11.21,24.66,16.87,36.97.34.73,1.21,1.22,1.52,1.95,4.11,9.69,8.24,19.38,12.19,29.14,1.49,3.68,1.82,8,7.17,10.46ZM370.5,291.27c-1.17.33-2.8.29-3.53,1.07-2.76,2.97-3.46,6.99-1.13,9.99,1.76,2.25,5.34,3.95,8.21,4.1,1.47.08,4.24-3.67,4.41-5.84.13-1.72-2.46-4.52-4.46-5.34-3.47-1.43-3.74,1.94-4.42,4.28-.09.32-.68.5-1.03.75-.35-.16-.71-.32-1.06-.48.91-2.56,1.81-5.12,3.03-8.54ZM390.69,337.49c-.11-.26-.22-.53-.33-.8-.12.1-.32.19-.33.29-.02.29.05.58.08.87.19-.12.38-.23.58-.36Z"/>
        <path class="cls-4" d="M75.73,360.9c4.69,4.82,9.6,9.45,14.02,14.51,6.41,7.35,12.61,14.91,18.64,22.58,5.72,7.27,10.99,14.89,16.67,22.19,7.02,9.02,13.67,18.42,21.52,26.66,11.61,12.19,26.59,17.64,43.34,17.95,10.49.2,19.74-3.95,27.94-8.38-22.87-48.38-45.58-96.44-68.3-144.5.4-.19.8-.38,1.21-.58,5.77,5.56,10.26,11.8,10.82,20.3.13-2.19.26-4.37.38-6.43,3.78,5.36,3.1,15.29,14,12.6-1.2,2.19-2.94,3.96-2.91,5.69.04,1.91,1.49,3.95,2.7,5.66,4.59,6.47,9.63,12.63,13.94,19.28,6.43,9.93,12.51,20.08,18.5,30.29,9.79,16.69,22,30.78,41.13,36.75,8.44,2.63,17.2,4.96,26.28,2.63,6.69-1.72,13.7-2.65,20.01-5.27,5.79-2.41,10.93-6.47,16.13-10.14.8-.56.95-3.2.37-4.38-6.97-14.29-14.21-28.45-21.22-42.72-4.44-9.03-8.5-18.24-12.92-27.28-4.28-8.75-5.5-17.75-2.84-27.38,4.85,4.2,1.55,9.96,3.11,15.06.59-2.57,1.12-4.89,1.71-7.44,9.45,14.34,18.15,28.74,28.11,42.21,6.11,8.27,15.16,13.91,24.73,17.76,10.61,4.27,21.69,7.11,33.38,6.34,12.44-.82,23.9-4.6,34.63-10.92,8.89-5.24,17.98-10.13,26.92-15.29,4.5-2.6,9.24-5.01,13.09-8.39,1.61-1.42,1.95-5.3,1.48-7.79-.57-2.99-2.03-6.3-4.16-8.41-5.42-5.37-4.23-12.67-6.53-17.83-1.41-.66-2.75-.86-3.29-1.63-1.44-2.06-2.06-5.02-3.92-6.35-1.5-1.07-4.37-.57-6.56-.27-2.84.39-5.59,1.35-8.4,1.95-3.97.86-7.99,1.51-11.94,2.46-2.02.49-3.94,1.42-6.26,2.28-.2,1.13-.46,2.56-.72,3.99-.14,0-.28,0-.43,0-.13-1.88-.27-3.76-.44-6.14-2.51,1.44-5.49,3.46-5.13-.98-2.6.38-5.12,1.29-7.33.81-.98-.21-1.34-3.25-2-5.04-.26,1.23-.55,2.65-.87,4.21h-5.4v14.93c-.36,0-.73.02-1.09.03,0-4.12,0-8.25,0-12.37,0-2.37.21-4.85-3.09-5.3-.32-.04-.86-.13-.92-.32-2.15-7.07-8-5.51-13.11-5.67-.64-.02-1.49-.04-1.89-.43-11.15-10.66-22.54-21.42-27.48-36.44-2.88-8.75-5.31-17.92-4.59-27.53.45-6.11.08-12.27.33-18.45,4.15,28.97,21.99,46.78,47.24,58.62-3.97,9.42-3.66,15.74.94,18.88,3.77,2.58,9.79,2.33,12.93-.52,4.37-3.98,4.64-7.09,1.14-13.09q3.82-.94,5.72,7.02v-7.08c19.33.34,36.72-4.64,51.88-16.9,15.02-12.15,22.4-28.42,26.32-44.98,0,8.57.02,18.88-.02,29.19,0,1.99-.37,3.97-.37,5.95-.02,26.67-.05,53.33.04,80,.01,3.26-.49,5.02-4.04,6.61-4.52,2.03-8.46,5.6-12.24,8.97-8.81,7.84-17.58,15.75-25.98,24.02-9.84,9.69-19,20.07-28.94,29.65-9.3,8.95-16.01,19.3-19.87,31.55-14.31-.89-27.94-4.13-40.69-12.28-7.3,17.79-18.88,31.06-36.56,38.44-17.75,7.41-35.31,6.32-53.18-1.02-1.98,2.91-3.86,5.99-6.06,8.82-17.27,22.25-45.21,29.39-71.09,18.26-1.22-.52-2.48-.92-3.73-1.38,0,0-.15.12-.15.12-.52-.38-1.03-.75-1.55-1.13-15.04-8.9-22.83-23.43-30.44-38.35-8.45-16.58-17.8-32.69-26.59-49.1-8.79-16.4-17.36-32.91-26.03-49.37Z"/>
        <path class="cls-7" d="M453.79,128.88c-.34-.68-.68-1.35-1.03-2.03.34.68.68,1.35,1.03,2.03Z"/>
        <path class="cls-7" d="M452.78,126.89c-.36-.35-.72-.7-1.08-1.05.36.35.72.7,1.08,1.05Z"/>
        <path class="cls-7" d="M158.79,497.71c.52.38,1.03.75,1.55,1.13-.52-.38-1.03-.75-1.55-1.13Z"/>
        <path class="cls-9" d="M617.62,261.03c.16.23.22.49.17.77-.34-.2-.4-.46-.17-.77Z"/>
        <path class="cls-9" d="M447.1,531.1c-7.79-.56-16.04-.36-21.5-7.12-2.91-3.6-6.06-8.04-6.51-12.38-1.44-13.83.68-27.18,10.52-38.06,8.05-8.9,16.01-17.91,24.53-26.35,6.64-6.58,17.47-6.41,24.34-.14,7.55,6.9,14.87,14.06,22.19,21.2,5.6,5.46,6.03,12.66,6.36,19.86-10.94,13.66-22.49,26.83-38.08,35.25-6.71,3.63-14.53,5.21-21.84,7.72Z"/>
        <path class="cls-9" d="M433.4,223.09c-9.3-1.18-18.57-2.72-27.91-3.45-8.43-.66-16.93-.73-25.39-.53-6.1.15-12.18,1.17-18.28,1.8-6.19.64-12.38,1.67-18.59,1.83-11.09.29-11.94-3.54-9.66-14.06,1.8-8.34,9.06-12.17,16.11-15.11,18.48-7.7,37.73-8.88,57.49-6.26,11.36,1.5,22.1,4.28,31.68,10.63,7.06,4.68,9.87,11.8,8.62,18.74-.83,4.59-3.52,6.01-7.55,6.16-2.16.08-4.33.01-6.5.01,0,.08-.02.17-.03.25Z"/>
        <path class="cls-4" d="M272.97,336.82c-5.35-2.46-5.68-6.78-7.17-10.46-3.95-9.76-8.08-19.45-12.19-29.14-.31-.73-1.18-1.22-1.52-1.95-5.66-12.31-11.27-24.63-16.87-36.97-.1-.22.16-.59.38-1.29.69.3,1.63.39,1.92.87,7.48,12.63,14.82,25.35,22.34,37.96,3.89,6.52,8.25,12.76,12,19.35,1.07,1.87.99,4.52,1.06,6.82.15,4.63.04,9.27.04,14.81Z"/>
        <path class="cls-4" d="M370.5,291.27c-1.21,3.42-2.12,5.98-3.03,8.54.35.16.71.32,1.06.48.36-.25.94-.43,1.03-.75.68-2.34.95-5.71,4.42-4.28,2,.82,4.59,3.62,4.46,5.34-.17,2.17-2.93,5.92-4.41,5.84-2.87-.16-6.45-1.85-8.21-4.1-2.33-2.99-1.63-7.02,1.13-9.99.73-.79,2.36-.75,3.53-1.07ZM370.71,302.54c.26.49.53.98.79,1.48,1.54-1.04,3.08-2.08,4.62-3.12-.25-.37-.5-.75-.75-1.12-1.55.92-3.1,1.84-4.65,2.77Z"/>
        <path class="cls-4" d="M390.69,337.49c-.2.13-.39.24-.58.36-.03-.29-.1-.58-.08-.87,0-.1.21-.19.33-.29.11.27.22.53.33.8Z"/>
        <path class="cls-1" d="M370.71,302.54c1.55-.92,3.1-1.84,4.65-2.77.25.37.5.75.75,1.12-1.54,1.04-3.08,2.08-4.62,3.12-.26-.49-.53-.98-.79-1.48Z"/>
      </g>
      <path class="cls-4" d="M347.11,308.89c9.14,8.93,23.45,9.14,36.22,8.59,1.11-.05,2.25-.11,3.25-.58,1.86-.88,2.8-3.01,3.09-5.04,1.32-9.3-7.92-16.93-17.01-19.31-4.86-1.27-30.36-8.76-33.61-7.51-9.09,3.47,2.34,18.27,8.06,23.85Z"/>
    </g>
  </g>
</svg>